<svg width="390" height="844" viewBox="0 0 390 844" fill="none" xmlns="http://www.w3.org/2000/svg">
<g clip-path="url(#clip0_10150_53677)">
<rect width="390" height="844" fill="url(#paint0_linear_10150_53677)"/>
<path d="M825.36 333.877V333.878V509.793V509.794C825.365 513.964 824.533 518.09 822.915 521.923C821.296 525.756 818.926 529.214 815.949 532.087C812.971 534.961 809.449 537.189 805.596 538.639C801.744 540.088 797.641 540.728 793.537 540.52L793.51 540.518H793.482H265.461H265.434L265.406 540.52C261.303 540.728 257.2 540.088 253.347 538.639C249.495 537.189 245.973 534.961 242.995 532.087C240.018 529.214 237.648 525.756 236.029 521.923C234.411 518.09 233.579 513.964 233.584 509.794V509.793V333.878V333.877C233.579 329.707 234.411 325.581 236.029 321.748C237.648 317.915 240.018 314.457 242.995 311.584C245.973 308.71 249.495 306.481 253.347 305.032C257.2 303.583 261.303 302.943 265.406 303.151L265.434 303.152H265.461H793.482H793.51L793.537 303.151C797.641 302.943 801.744 303.583 805.596 305.032C809.449 306.481 812.971 308.71 815.949 311.584C818.926 314.457 821.296 317.915 822.915 321.748C824.533 325.581 825.365 329.707 825.36 333.877ZM793.482 602.811H793.511L793.539 602.81C797.773 602.589 802.006 603.272 805.965 604.814C809.923 606.356 813.519 608.723 816.519 611.764C819.519 614.804 821.857 618.449 823.381 622.465C824.904 626.48 825.579 630.776 825.361 635.073L825.36 635.1V635.128V776.363C825.278 793.743 818.407 810.38 806.255 822.635C794.103 834.891 777.659 841.768 760.52 841.768H265.461H265.434L265.406 841.769C261.303 841.977 257.2 841.338 253.347 839.888C249.495 838.439 245.973 836.21 242.995 833.336C240.018 830.463 237.648 827.005 236.029 823.172C234.411 819.34 233.579 815.213 233.584 811.043V811.042V635.128V635.1L233.583 635.073C233.365 630.776 234.04 626.48 235.563 622.465C237.087 618.449 239.424 614.804 242.425 611.764C245.425 608.723 249.021 606.356 252.979 604.814C256.938 603.272 261.171 602.589 265.405 602.81L265.433 602.811H265.461H793.482ZM265.406 0.310928L265.434 0.312322H265.461H760.52C777.712 0.312322 794.203 7.23262 806.364 19.5556C818.525 31.879 825.36 48.5962 825.36 66.0302V206.953V206.954C825.365 211.124 824.533 215.25 822.915 219.083C821.296 222.916 818.926 226.374 815.949 229.247C812.971 232.121 809.449 234.349 805.596 235.799C801.744 237.248 797.641 237.888 793.537 237.68L793.51 237.678H793.482H265.461H265.434L265.406 237.68C261.303 237.888 257.2 237.248 253.347 235.799C249.495 234.349 245.973 232.121 242.995 229.247C240.018 226.374 237.648 222.916 236.029 219.083C234.411 215.25 233.579 211.124 233.584 206.954V206.953V31.0382V31.0369C233.579 26.8672 234.411 22.7405 236.029 18.9078C237.648 15.0751 240.018 11.6171 242.995 8.74368C245.973 5.87026 249.495 3.64144 253.347 2.19204C257.2 0.742654 261.303 0.102749 265.406 0.310928ZM128.276 461.889H128.277C132.359 461.885 136.4 462.718 140.158 464.337C143.915 465.957 147.312 468.329 150.143 471.313C152.975 474.297 155.183 477.831 156.633 481.703C158.084 485.575 158.748 489.705 158.585 493.844L158.584 493.866V493.887V808.815C158.584 816.969 155.387 824.786 149.702 830.547C144.017 836.307 136.31 839.541 128.276 839.541H-11.4201C-28.5585 839.541 -45.0024 832.664 -57.1544 820.409C-69.3062 808.153 -76.1769 791.518 -76.2592 774.139V492.615C-76.2592 484.461 -73.0627 476.644 -67.3773 470.883C-61.6924 465.122 -53.9851 461.889 -45.9518 461.889H128.276ZM128.276 0.630438L128.277 0.630438C132.332 0.628588 136.348 1.45199 140.084 3.05223C143.821 4.65248 147.203 6.99721 150.03 9.94809C152.858 12.899 155.072 16.396 156.542 20.232C158.011 24.0681 158.706 28.1646 158.584 32.2785L158.584 32.2946V32.3106V350.42V350.447L158.585 350.473C158.791 354.638 158.158 358.801 156.726 362.709C155.294 366.617 153.093 370.189 150.257 373.206C147.422 376.223 144.01 378.624 140.232 380.262C136.454 381.9 132.386 382.741 128.278 382.736H128.276H-47.5214H-47.5228C-51.6315 382.741 -55.6987 381.9 -59.4771 380.262C-63.2556 378.624 -66.6667 376.223 -69.5025 373.206L-70.2931 373.949L-69.5025 373.206C-72.3384 370.189 -74.5396 366.617 -75.9715 362.709C-77.4034 358.801 -78.0359 354.638 -77.8301 350.473L-77.8288 350.447V350.42V66.3483C-77.8288 48.9143 -70.9941 32.1971 -58.8328 19.8736C-46.672 7.55071 -30.1814 0.630438 -12.9897 0.630438L128.276 0.630438Z" stroke="white" stroke-opacity="0.1" stroke-width="2.17006"/>
<g clip-path="url(#clip1_10150_53677)">
<path d="M85 -2H304C301.894 -1.39731 300.418 0.495246 300.345 2.68446L300.317 3.5618C300.317 17.0587 289.375 28 275.878 28H113.122C99.6249 28 88.6835 17.0587 88.6835 3.5618L88.6545 2.68447C88.5823 0.49525 87.1059 -1.39731 85 -2Z" fill="black"/>
<path opacity="0.35" d="M343.5 19.9987C343.5 18.8021 344.47 17.832 345.667 17.832H362.333C363.53 17.832 364.5 18.8021 364.5 19.9987V25.9987C364.5 27.1953 363.53 28.1654 362.333 28.1654H345.667C344.47 28.1654 343.5 27.1953 343.5 25.9987V19.9987Z" fill="white" stroke="white"/>
<path opacity="0.4" d="M366 20.998V24.998C366.805 24.6593 367.328 23.8712 367.328 22.998C367.328 22.1249 366.805 21.3368 366 20.998Z" fill="white"/>
<path d="M345 20.6654C345 19.929 345.597 19.332 346.333 19.332H361.667C362.403 19.332 363 19.929 363 20.6654V25.332C363 26.0684 362.403 26.6654 361.667 26.6654H346.333C345.597 26.6654 345 26.0684 345 25.332V20.6654Z" fill="white"/>
<path fill-rule="evenodd" clip-rule="evenodd" d="M330.324 19.6074C332.54 19.6075 334.671 20.4589 336.277 21.9857C336.398 22.1036 336.591 22.1021 336.71 21.9824L337.866 20.8157C337.927 20.755 337.96 20.6728 337.96 20.5872C337.959 20.5016 337.925 20.4198 337.864 20.3597C333.649 16.3202 326.999 16.3202 322.784 20.3597C322.723 20.4197 322.688 20.5015 322.688 20.5871C322.687 20.6727 322.721 20.755 322.781 20.8157L323.937 21.9824C324.056 22.1023 324.25 22.1038 324.37 21.9857C325.977 20.4588 328.108 19.6074 330.324 19.6074ZM330.324 23.4031C331.542 23.403 332.716 23.8555 333.618 24.6727C333.74 24.7887 333.932 24.7862 334.051 24.6671L335.206 23.5004C335.267 23.4392 335.301 23.3562 335.3 23.2699C335.299 23.1837 335.263 23.1014 335.201 23.0414C332.453 20.485 328.197 20.485 325.449 23.0414C325.387 23.1014 325.352 23.1837 325.351 23.27C325.35 23.3563 325.384 23.4393 325.445 23.5004L326.599 24.6671C326.718 24.7862 326.91 24.7887 327.032 24.6727C327.934 23.8561 329.107 23.4036 330.324 23.4031ZM332.637 25.9569C332.639 26.0434 332.605 26.1268 332.543 26.1874L330.546 28.2031C330.487 28.2623 330.407 28.2956 330.324 28.2956C330.241 28.2956 330.161 28.2623 330.102 28.2031L328.105 26.1874C328.043 26.1268 328.009 26.0433 328.011 25.9568C328.013 25.8703 328.05 25.7884 328.114 25.7304C329.39 24.6515 331.258 24.6515 332.534 25.7304C332.598 25.7884 332.635 25.8704 332.637 25.9569Z" fill="white"/>
<path fill-rule="evenodd" clip-rule="evenodd" d="M316.664 17.666H315.664C315.112 17.666 314.664 18.1137 314.664 18.666V27.3327C314.664 27.885 315.112 28.3327 315.664 28.3327H316.664C317.216 28.3327 317.664 27.885 317.664 27.3327V18.666C317.664 18.1137 317.216 17.666 316.664 17.666ZM310.997 19.9993H311.997C312.55 19.9993 312.997 20.4471 312.997 20.9993V27.3327C312.997 27.885 312.55 28.3327 311.997 28.3327H310.997C310.445 28.3327 309.997 27.885 309.997 27.3327V20.9993C309.997 20.4471 310.445 19.9993 310.997 19.9993ZM307.331 22.3327H306.331C305.778 22.3327 305.331 22.7804 305.331 23.3327V27.3327C305.331 27.885 305.778 28.3327 306.331 28.3327H307.331C307.883 28.3327 308.331 27.885 308.331 27.3327V23.3327C308.331 22.7804 307.883 22.3327 307.331 22.3327ZM302.664 24.3327H301.664C301.112 24.3327 300.664 24.7804 300.664 25.3327V27.3327C300.664 27.885 301.112 28.3327 301.664 28.3327H302.664C303.216 28.3327 303.664 27.885 303.664 27.3327V25.3327C303.664 24.7804 303.216 24.3327 302.664 24.3327Z" fill="white"/>
<path d="M44.3203 28.2568C47.0083 28.2568 48.605 26.1548 48.605 22.5952C48.605 21.2549 48.3486 20.127 47.8579 19.2554C47.1475 17.9004 45.9243 17.168 44.3789 17.168C42.0791 17.168 40.4531 18.7134 40.4531 20.8813C40.4531 22.9175 41.918 24.397 43.9321 24.397C45.1699 24.397 46.1733 23.8184 46.6714 22.8149H46.6934C46.6934 22.8149 46.7227 22.8149 46.73 22.8149C46.7446 22.8149 46.7959 22.8149 46.7959 22.8149C46.7959 25.2319 45.8804 26.6748 44.335 26.6748C43.4268 26.6748 42.7236 26.1768 42.4819 25.3784H40.5996C40.9146 27.1143 42.3867 28.2568 44.3203 28.2568ZM44.3862 22.8955C43.1704 22.8955 42.3062 22.0312 42.3062 20.8228C42.3062 19.6436 43.2144 18.7427 44.3936 18.7427C45.5728 18.7427 46.481 19.6582 46.481 20.8521C46.481 22.0312 45.5947 22.8955 44.3862 22.8955Z" fill="white"/>
<path d="M51.6961 28.1543C52.3919 28.1543 52.868 27.6562 52.868 26.9971C52.868 26.3306 52.3919 25.8398 51.6961 25.8398C51.0076 25.8398 50.5242 26.3306 50.5242 26.9971C50.5242 27.6562 51.0076 28.1543 51.6961 28.1543ZM51.6961 22.6611C52.3919 22.6611 52.868 22.1704 52.868 21.5112C52.868 20.8447 52.3919 20.354 51.6961 20.354C51.0076 20.354 50.5242 20.8447 50.5242 21.5112C50.5242 22.1704 51.0076 22.6611 51.6961 22.6611Z" fill="white"/>
<path d="M59.7237 28.0005H61.5328V26.0303H62.961V24.4336H61.5328V17.4316H58.8668C56.9991 20.2441 55.5123 22.5952 54.5602 24.3457V26.0303H59.7237V28.0005ZM56.3106 24.3677C57.5411 22.1997 58.6397 20.4639 59.6505 18.9697H59.753V24.4775H56.3106V24.3677Z" fill="white"/>
<path d="M66.9896 28.0005H68.8793V17.4316H66.997L64.2357 19.3652V21.1816L66.8651 19.3359H66.9896V28.0005Z" fill="white"/>
</g>
<rect x="128" y="831" width="134" height="5" rx="2.5" fill="white"/>
<g clip-path="url(#clip2_10150_53677)">
<path d="M166.062 416.835V426.951C166.063 427.199 166.013 427.444 165.917 427.673C165.821 427.901 165.679 428.107 165.502 428.278C165.325 428.449 165.115 428.582 164.886 428.668C164.656 428.754 164.411 428.792 164.167 428.78H133.805C133.56 428.792 133.316 428.754 133.086 428.668C132.857 428.582 132.647 428.449 132.469 428.278C132.292 428.107 132.151 427.901 132.055 427.673C131.958 427.444 131.909 427.199 131.909 426.951V416.835C131.909 416.587 131.958 416.342 132.055 416.114C132.151 415.885 132.292 415.68 132.469 415.508C132.647 415.337 132.857 415.205 133.086 415.118C133.316 415.032 133.56 414.994 133.805 415.006H164.167C164.411 414.994 164.656 415.032 164.886 415.118C165.115 415.205 165.325 415.337 165.502 415.508C165.679 415.68 165.821 415.885 165.917 416.114C166.013 416.342 166.063 416.587 166.062 416.835ZM164.167 432.237H133.805C133.552 432.224 133.3 432.265 133.064 432.357C132.828 432.448 132.614 432.589 132.436 432.77C132.257 432.952 132.118 433.169 132.027 433.408C131.936 433.647 131.896 433.902 131.909 434.158V444.273C131.909 444.521 131.958 444.767 132.055 444.995C132.151 445.223 132.292 445.429 132.469 445.6C132.647 445.771 132.857 445.904 133.086 445.99C133.316 446.077 133.56 446.115 133.805 446.102H162.272C163.274 446.102 164.235 445.7 164.946 444.984C165.656 444.267 166.058 443.295 166.062 442.279V434.158C166.075 433.902 166.035 433.647 165.945 433.408C165.854 433.169 165.715 432.952 165.536 432.77C165.357 432.589 165.143 432.448 164.907 432.357C164.672 432.265 164.419 432.224 164.167 432.237ZM162.362 397.592H133.805C133.56 397.58 133.316 397.618 133.086 397.704C132.857 397.791 132.647 397.923 132.469 398.094C132.292 398.266 132.151 398.471 132.055 398.7C131.958 398.928 131.909 399.173 131.909 399.421V409.537C131.909 409.785 131.958 410.03 132.055 410.259C132.151 410.487 132.292 410.693 132.469 410.864C132.647 411.035 132.857 411.168 133.086 411.254C133.316 411.34 133.56 411.378 133.805 411.366H164.167C164.411 411.378 164.656 411.34 164.886 411.254C165.115 411.168 165.325 411.035 165.502 410.864C165.679 410.693 165.821 410.487 165.917 410.259C166.013 410.03 166.063 409.785 166.062 409.537V401.433C166.062 400.415 165.663 399.438 164.952 398.717C164.241 397.997 163.277 397.592 162.272 397.592H162.362ZM125.916 424.134H115.898C115.419 424.134 114.96 424.327 114.621 424.67C114.283 425.013 114.093 425.478 114.093 425.963V442.151C114.097 443.167 114.499 444.139 115.209 444.856C115.92 445.572 116.881 445.974 117.883 445.974H125.916C126.395 445.974 126.854 445.782 127.193 445.439C127.531 445.096 127.721 444.63 127.721 444.145V426.036C127.731 425.79 127.692 425.544 127.605 425.314C127.519 425.083 127.387 424.873 127.219 424.695C127.05 424.517 126.848 424.376 126.624 424.28C126.4 424.183 126.159 424.134 125.916 424.134ZM125.916 397.61H117.793C116.788 397.61 115.823 398.015 115.113 398.736C114.402 399.456 114.002 400.433 114.002 401.452V417.786C113.99 418.034 114.028 418.282 114.113 418.515C114.198 418.747 114.329 418.96 114.498 419.139C114.667 419.319 114.87 419.462 115.095 419.56C115.32 419.657 115.563 419.707 115.807 419.707H125.916C126.161 419.707 126.403 419.657 126.628 419.56C126.854 419.462 127.057 419.319 127.226 419.139C127.394 418.96 127.525 418.747 127.611 418.515C127.696 418.282 127.734 418.034 127.721 417.786V399.494C127.729 399.25 127.687 399.006 127.6 398.778C127.512 398.549 127.38 398.341 127.212 398.165C127.044 397.99 126.842 397.85 126.62 397.755C126.397 397.659 126.158 397.61 125.916 397.61Z" fill="white"/>
<path d="M212.995 436.773H213.952L213.338 439.901C213.493 439.561 213.714 439.256 213.988 439.005C214.244 438.8 214.564 438.697 214.89 438.712C215.087 438.704 215.282 438.742 215.461 438.825C215.64 438.908 215.797 439.032 215.919 439.188C216.175 439.57 216.301 440.026 216.28 440.487C216.282 440.901 216.227 441.313 216.118 441.712C216.024 442.088 215.871 442.446 215.666 442.773C215.473 443.061 215.228 443.309 214.944 443.505C214.657 443.685 214.326 443.78 213.988 443.779C213.7 443.784 213.417 443.701 213.175 443.541C213.063 443.46 212.968 443.357 212.897 443.237C212.825 443.118 212.779 442.985 212.76 442.846L212.562 443.706H211.605L212.995 436.773ZM213.843 442.956C214 442.959 214.157 442.929 214.302 442.87C214.448 442.81 214.58 442.721 214.692 442.609C214.934 442.338 215.091 442.001 215.143 441.639L215.269 440.962C215.279 440.877 215.279 440.791 215.269 440.706C215.279 440.621 215.279 440.535 215.269 440.45C215.276 440.214 215.206 439.983 215.071 439.792C215.001 439.706 214.912 439.639 214.812 439.594C214.712 439.55 214.602 439.53 214.493 439.535C214.317 439.537 214.144 439.58 213.988 439.664C213.838 439.757 213.698 439.868 213.573 439.993C213.444 440.143 213.335 440.309 213.248 440.487C213.157 440.672 213.09 440.869 213.049 441.072L212.887 441.968C212.849 442.087 212.842 442.213 212.867 442.335C212.893 442.457 212.949 442.57 213.031 442.663C213.132 442.776 213.26 442.861 213.401 442.912C213.543 442.963 213.695 442.978 213.843 442.956ZM220.468 438.822H221.587L218.392 444.621L218.139 445.041C218.057 445.147 217.96 445.239 217.851 445.316C217.748 445.392 217.631 445.448 217.508 445.48C217.364 445.5 217.218 445.5 217.074 445.48H216.352L216.497 444.657H217.381L217.833 443.816L217.093 438.767H217.977L218.266 440.907L218.446 442.737L219.295 440.907L220.468 438.822ZM222.057 443.706C221.904 443.755 221.74 443.755 221.587 443.706C221.545 443.663 221.512 443.612 221.49 443.555C221.468 443.498 221.458 443.438 221.461 443.377C221.453 443.316 221.453 443.255 221.461 443.194C221.461 443.194 221.461 443.066 221.461 443.011C221.496 442.854 221.571 442.709 221.678 442.59C221.826 442.471 222.012 442.412 222.201 442.426C222.356 442.411 222.511 442.457 222.634 442.554C222.677 442.597 222.71 442.648 222.732 442.705C222.753 442.762 222.763 442.822 222.761 442.883C222.768 442.938 222.768 442.993 222.761 443.048C222.761 443.048 222.761 443.194 222.761 443.249C222.729 443.402 222.654 443.542 222.544 443.651C222.394 443.731 222.22 443.751 222.057 443.706ZM222.797 440.048C222.719 440.053 222.64 440.043 222.566 440.018C222.491 439.993 222.423 439.953 222.364 439.901C222.321 439.863 222.287 439.814 222.265 439.761C222.243 439.707 222.234 439.649 222.237 439.59V439.407C222.234 439.347 222.234 439.285 222.237 439.225C222.268 439.066 222.343 438.92 222.454 438.804C222.595 438.684 222.776 438.625 222.959 438.639C223.115 438.623 223.27 438.669 223.392 438.767C223.439 438.808 223.476 438.858 223.501 438.915C223.526 438.972 223.538 439.034 223.537 439.096C223.544 439.151 223.544 439.206 223.537 439.261C223.545 439.328 223.545 439.396 223.537 439.462C223.515 439.615 223.446 439.756 223.338 439.865C223.265 439.931 223.179 439.981 223.086 440.013C222.993 440.044 222.895 440.056 222.797 440.048ZM229.819 437.981L228.808 443.706H227.725L228.808 438.054H227.003L227.183 437.158H231.859L231.678 438.054L229.819 437.981ZM232.869 443.706C232.629 443.719 232.389 443.68 232.165 443.592C231.941 443.503 231.738 443.368 231.57 443.194C231.39 442.992 231.252 442.754 231.165 442.496C231.078 442.239 231.044 441.966 231.064 441.694C231.068 441.297 231.129 440.903 231.245 440.523C231.36 440.165 231.537 439.831 231.768 439.535C231.979 439.264 232.243 439.039 232.544 438.877C232.85 438.713 233.192 438.631 233.537 438.639C233.777 438.626 234.017 438.665 234.241 438.754C234.466 438.842 234.669 438.978 234.837 439.151C235.193 439.558 235.374 440.091 235.342 440.633C235.342 441.038 235.275 441.44 235.144 441.822C235.038 442.175 234.866 442.504 234.638 442.791C234.434 443.082 234.163 443.317 233.848 443.477C233.534 443.636 233.185 443.715 232.833 443.706H232.869ZM232.869 442.901C233.169 442.896 233.454 442.771 233.664 442.554C233.91 442.278 234.067 441.934 234.115 441.566L234.277 440.798C234.277 440.798 234.277 440.688 234.277 440.633V440.432C234.287 440.303 234.271 440.174 234.231 440.051C234.191 439.929 234.127 439.815 234.043 439.718C233.957 439.622 233.85 439.547 233.731 439.5C233.612 439.452 233.484 439.433 233.357 439.444C233.21 439.443 233.064 439.472 232.927 439.528C232.791 439.585 232.667 439.668 232.563 439.773C232.322 440.054 232.16 440.395 232.093 440.761L231.949 441.548C231.949 441.548 231.949 441.657 231.949 441.712V441.913C231.935 442.173 232.019 442.428 232.183 442.627C232.268 442.747 232.383 442.843 232.516 442.904C232.65 442.965 232.796 442.989 232.942 442.974L232.869 442.901ZM237.057 443.596C236.824 443.612 236.592 443.54 236.407 443.395C236.337 443.327 236.283 443.244 236.249 443.153C236.215 443.061 236.201 442.962 236.209 442.865V442.682C236.202 442.621 236.202 442.56 236.209 442.499L236.787 439.554H236.083L236.245 438.749H236.606C236.736 438.761 236.865 438.722 236.967 438.639C237.039 438.528 237.088 438.404 237.111 438.273L237.274 437.414H238.158L237.906 438.749H238.862L238.7 439.554H237.834L237.202 442.773H238.122L237.96 443.596H237.057ZM242.617 443.596C242.434 443.61 242.253 443.551 242.112 443.432C242.048 443.371 241.997 443.297 241.963 443.215C241.929 443.133 241.912 443.045 241.913 442.956C241.902 442.865 241.902 442.773 241.913 442.682V442.517C241.754 442.854 241.533 443.158 241.263 443.413C240.997 443.612 240.673 443.715 240.343 443.706C240.147 443.716 239.952 443.676 239.775 443.59C239.599 443.503 239.446 443.374 239.332 443.212C239.077 442.837 238.95 442.387 238.971 441.932C238.969 441.512 239.024 441.093 239.133 440.688C239.22 440.316 239.373 439.962 239.584 439.645C239.768 439.349 240.015 439.099 240.307 438.914C240.594 438.733 240.925 438.638 241.263 438.639C241.552 438.631 241.836 438.714 242.076 438.877C242.296 439.039 242.444 439.282 242.491 439.554L242.653 438.749H243.61L242.816 442.773H243.429L243.267 443.596H242.617ZM240.812 442.883C240.996 442.883 241.177 442.832 241.335 442.737C241.488 442.654 241.623 442.542 241.733 442.407C242.012 442.11 242.194 441.733 242.256 441.328L242.455 440.34C242.481 440.238 242.481 440.131 242.455 440.029C242.422 439.926 242.367 439.832 242.292 439.755C242.206 439.662 242.101 439.587 241.985 439.535C241.842 439.515 241.696 439.515 241.552 439.535C241.396 439.528 241.24 439.554 241.094 439.611C240.948 439.667 240.815 439.754 240.704 439.865C240.465 440.138 240.309 440.474 240.252 440.834L240.108 441.529C240.108 441.529 240.108 441.676 240.108 441.767V442.023C240.096 442.262 240.159 442.499 240.289 442.7C240.355 442.78 240.438 442.845 240.531 442.889C240.625 442.933 240.727 442.956 240.83 442.956L240.812 442.883ZM245.162 443.596C244.971 443.604 244.784 443.539 244.639 443.413C244.577 443.352 244.529 443.277 244.498 443.195C244.467 443.113 244.454 443.025 244.458 442.938C244.451 442.859 244.451 442.779 244.458 442.7L245.65 436.7H246.606L245.397 442.773H246.065L245.902 443.596H245.162ZM250 443.596H249.025L250.325 437.084H252.708C253.181 437.052 253.648 437.21 254.008 437.523C254.153 437.679 254.266 437.863 254.341 438.064C254.415 438.265 254.449 438.479 254.441 438.694C254.443 438.936 254.406 439.177 254.332 439.407C254.289 439.635 254.203 439.852 254.08 440.048C253.942 440.248 253.763 440.416 253.556 440.542C253.352 440.693 253.118 440.799 252.87 440.853L253.665 443.706H252.6L251.823 441.072H250.469L250 443.596ZM252.275 440.176C252.516 440.184 252.752 440.106 252.942 439.956C253.125 439.793 253.252 439.575 253.304 439.334C253.304 439.17 253.304 439.023 253.304 438.932C253.311 438.853 253.311 438.773 253.304 438.694C253.307 438.609 253.292 438.525 253.261 438.446C253.23 438.367 253.183 438.296 253.123 438.237C253.045 438.167 252.953 438.114 252.853 438.083C252.754 438.051 252.649 438.041 252.545 438.054H251.029L250.614 440.176H252.275ZM256.643 443.834C256.385 443.853 256.125 443.816 255.882 443.724C255.639 443.633 255.418 443.489 255.235 443.304C254.89 442.877 254.716 442.336 254.748 441.785C254.743 441.394 254.804 441.004 254.928 440.633C255.046 440.291 255.216 439.97 255.434 439.682C255.652 439.398 255.929 439.167 256.246 439.005C256.752 438.761 257.327 438.703 257.871 438.84C258.051 438.89 258.222 438.97 258.376 439.078C258.537 439.174 258.668 439.314 258.755 439.481C258.854 439.666 258.903 439.874 258.899 440.084C258.903 440.339 258.831 440.588 258.693 440.8C258.554 441.013 258.356 441.177 258.123 441.273C257.365 441.598 256.546 441.754 255.722 441.731C255.714 441.834 255.714 441.938 255.722 442.041C255.709 442.301 255.792 442.556 255.957 442.755C256.06 442.854 256.182 442.93 256.316 442.977C256.45 443.025 256.592 443.042 256.733 443.029C256.979 443.027 257.221 442.964 257.437 442.846C257.677 442.701 257.891 442.515 258.069 442.298L258.665 442.81C258.413 443.139 258.092 443.407 257.726 443.596C257.378 443.716 257.008 443.753 256.643 443.706V443.834ZM257.221 439.535C257.06 439.53 256.901 439.559 256.752 439.618C256.603 439.678 256.468 439.768 256.354 439.883C256.104 440.128 255.939 440.449 255.885 440.798V441.054C256.318 441.054 256.679 441.054 256.95 440.944C257.174 440.925 257.393 440.869 257.6 440.779C257.736 440.728 257.851 440.632 257.925 440.505C257.952 440.385 257.952 440.26 257.925 440.139C257.947 440.043 257.947 439.943 257.925 439.846C257.879 439.767 257.817 439.699 257.744 439.645L257.509 439.554L257.221 439.535ZM261.3 443.706C261.061 443.712 260.823 443.67 260.6 443.582C260.377 443.494 260.173 443.362 260.001 443.194C259.651 442.77 259.476 442.226 259.513 441.676C259.508 441.272 259.569 440.87 259.694 440.487C259.793 440.135 259.959 439.806 260.181 439.517C260.387 439.246 260.653 439.027 260.957 438.877C261.256 438.713 261.592 438.631 261.932 438.639C262.323 438.619 262.709 438.728 263.033 438.95C263.313 439.158 263.507 439.465 263.575 439.81L262.78 440.139C262.727 439.943 262.621 439.766 262.474 439.627C262.312 439.491 262.105 439.425 261.896 439.444C261.596 439.437 261.304 439.548 261.084 439.755C260.857 440.01 260.713 440.329 260.668 440.67L260.506 441.474C260.49 441.614 260.49 441.755 260.506 441.895C260.5 442.153 260.583 442.405 260.741 442.609C260.827 442.709 260.936 442.789 261.058 442.839C261.181 442.89 261.313 442.911 261.445 442.901C261.669 442.905 261.886 442.827 262.058 442.682C262.264 442.495 262.436 442.272 262.564 442.023L263.286 442.371C263.118 442.769 262.843 443.111 262.492 443.359C262.147 443.613 261.725 443.736 261.3 443.706ZM267.51 443.706C267.327 443.716 267.147 443.658 267.005 443.541C266.943 443.48 266.895 443.405 266.864 443.323C266.833 443.241 266.819 443.154 266.824 443.066C266.814 442.975 266.814 442.883 266.824 442.791V442.627C266.664 442.964 266.444 443.268 266.174 443.523C265.914 443.72 265.596 443.822 265.272 443.816C265.073 443.824 264.876 443.783 264.697 443.697C264.518 443.611 264.362 443.482 264.243 443.322C263.994 442.944 263.873 442.495 263.9 442.041C263.892 441.622 263.941 441.204 264.044 440.798C264.14 440.428 264.292 440.077 264.495 439.755C264.684 439.463 264.929 439.214 265.217 439.023C265.505 438.843 265.836 438.748 266.174 438.749C266.463 438.736 266.749 438.819 266.986 438.987C267.098 439.064 267.193 439.164 267.264 439.281C267.336 439.397 267.383 439.528 267.402 439.664L267.546 438.859H268.521L267.727 442.883H268.34L268.196 443.706H267.51ZM265.705 442.993C265.889 442.994 266.071 442.943 266.228 442.846C266.386 442.765 266.527 442.653 266.643 442.517C266.909 442.211 267.09 441.838 267.167 441.438L267.366 440.45C267.383 440.347 267.383 440.242 267.366 440.139C267.334 440.032 267.271 439.936 267.185 439.865C267.102 439.767 266.997 439.692 266.878 439.645C266.74 439.626 266.601 439.626 266.463 439.645C266.304 439.638 266.145 439.663 265.996 439.72C265.847 439.776 265.711 439.863 265.596 439.974C265.358 440.248 265.202 440.584 265.145 440.944L265.019 441.639C265.009 441.718 265.009 441.798 265.019 441.877C265.011 441.962 265.011 442.048 265.019 442.133C265.016 442.371 265.078 442.606 265.199 442.81C265.329 442.91 265.488 442.962 265.651 442.956L265.705 442.993ZM270.073 443.706C269.877 443.713 269.684 443.648 269.532 443.523C269.414 443.393 269.35 443.224 269.351 443.048C269.345 442.968 269.345 442.889 269.351 442.81L270.525 436.81H271.481L270.326 442.846H270.976L270.831 443.669L270.073 443.706ZM272.492 443.706C272.302 443.711 272.116 443.646 271.969 443.523C271.907 443.461 271.859 443.387 271.828 443.305C271.797 443.223 271.783 443.135 271.788 443.048C271.78 442.968 271.78 442.889 271.788 442.81L272.979 436.81H273.936L272.727 442.883H273.395L273.232 443.706H272.492ZM180.484 433.664H205.233V426.53H188.409V418.573H202.85V411.439H188.409V403.939H205.233V396.824H180.484V433.664ZM239.639 403.811C239.154 402.45 238.398 401.205 237.418 400.153C236.424 399.083 235.21 398.246 233.862 397.702C232.415 397.098 230.861 396.799 229.295 396.824H212.092V433.664H220.017V420.365H229.295C230.861 420.39 232.415 420.092 233.862 419.487C235.169 418.941 236.349 418.125 237.328 417.091C238.307 416.038 239.062 414.793 239.548 413.433C240.086 411.888 240.349 410.26 240.325 408.622C240.377 406.99 240.144 405.362 239.639 403.811ZM232.238 409.756C232.272 410.255 232.2 410.755 232.025 411.222C231.851 411.689 231.578 412.113 231.227 412.463C230.449 413.119 229.456 413.452 228.447 413.396H220.017V403.793H228.357C229.363 403.739 230.353 404.065 231.136 404.708C231.487 405.063 231.758 405.49 231.932 405.96C232.106 406.43 232.18 406.932 232.147 407.433L232.238 409.756ZM267.871 419.195C269.951 418.476 271.715 417.039 272.853 415.134C273.984 413.145 274.552 410.88 274.496 408.585C274.51 406.955 274.247 405.334 273.72 403.793C273.224 402.437 272.47 401.194 271.499 400.135C270.525 399.095 269.344 398.278 268.033 397.738C266.593 397.158 265.053 396.872 263.503 396.897H246.263V433.664H254.188V420.146H259.856L266.21 433.664H275.019L267.871 419.195ZM266.319 409.756C266.353 410.255 266.281 410.755 266.106 411.222C265.932 411.689 265.659 412.113 265.308 412.463C264.525 413.121 263.525 413.455 262.51 413.396H254.188V403.793H262.51C263.522 403.737 264.519 404.062 265.308 404.708C265.658 405.063 265.929 405.49 266.103 405.96C266.278 406.43 266.351 406.932 266.319 407.433V409.756Z" fill="white"/>
</g>
</g>
<defs>
<linearGradient id="paint0_linear_10150_53677" x1="-69.5" y1="-84.5" x2="471" y2="964.5" gradientUnits="userSpaceOnUse">
<stop stop-color="#3A86FF"/>
<stop offset="1" stop-color="#1C28AA"/>
</linearGradient>
<clipPath id="clip0_10150_53677">
<rect width="390" height="844" fill="white"/>
</clipPath>
<clipPath id="clip1_10150_53677">
<rect width="375" height="38" fill="white" transform="translate(7)"/>
</clipPath>
<clipPath id="clip2_10150_53677">
<rect width="161" height="49.3518" fill="white" transform="translate(114 396.824)"/>
</clipPath>
</defs>
</svg>
