<svg width="390" height="384" viewBox="0 0 390 384" fill="none" xmlns="http://www.w3.org/2000/svg">
<path d="M54.1057 26.1028C56.9436 10.9677 70.1588 0 85.5576 0H402L334.894 357.897C332.056 373.032 318.841 384 303.442 384H-13L54.1057 26.1028Z" fill="#9AC8FC"/>
<mask id="mask0_10811_163342" style="mask-type:alpha" maskUnits="userSpaceOnUse" x="-13" y="0" width="415" height="384">
<path d="M54.1057 26.1028C56.9436 10.9677 70.1588 0 85.5576 0H402L334.894 357.897C332.056 373.032 318.841 384 303.442 384H-13L54.1057 26.1028Z" fill="#9AC8FC"/>
</mask>
<g mask="url(#mask0_10811_163342)">
<rect x="48" y="252" width="253" height="54" rx="15" fill="url(#paint0_linear_10811_163342)"/>
<rect x="48" y="252" width="253" height="54" rx="15" stroke="white" stroke-width="3"/>
<path d="M75.06 287.24C74.14 287.24 73.3067 287.093 72.56 286.8C71.8267 286.493 71.1933 286.04 70.66 285.44C70.14 284.84 69.74 284.1 69.46 283.22C69.18 282.327 69.04 281.293 69.04 280.12C69.04 278.947 69.18 277.907 69.46 277C69.74 276.08 70.14 275.313 70.66 274.7C71.1933 274.073 71.8267 273.6 72.56 273.28C73.3067 272.96 74.14 272.8 75.06 272.8C76.3133 272.8 77.3533 273.067 78.18 273.6C79.0067 274.133 79.6667 274.94 80.16 276.02L77.9 277.22C77.7 276.593 77.3733 276.093 76.92 275.72C76.4667 275.333 75.8467 275.14 75.06 275.14C74.0733 275.14 73.2867 275.473 72.7 276.14C72.1267 276.807 71.84 277.74 71.84 278.94V281.14C71.84 282.353 72.1267 283.287 72.7 283.94C73.2867 284.58 74.0733 284.9 75.06 284.9C75.8467 284.9 76.4867 284.687 76.98 284.26C77.4867 283.833 77.8533 283.307 78.08 282.68L80.22 283.94C79.7133 284.98 79.04 285.793 78.2 286.38C77.36 286.953 76.3133 287.24 75.06 287.24ZM89.992 287C89.432 287 88.9854 286.84 88.652 286.52C88.332 286.187 88.132 285.747 88.052 285.2H87.932C87.7587 285.88 87.4054 286.393 86.872 286.74C86.3387 287.073 85.6787 287.24 84.892 287.24C83.8254 287.24 83.0054 286.96 82.432 286.4C81.8587 285.84 81.572 285.093 81.572 284.16C81.572 283.08 81.9587 282.28 82.732 281.76C83.5054 281.227 84.6054 280.96 86.032 280.96H87.812V280.2C87.812 279.613 87.6587 279.16 87.352 278.84C87.0454 278.52 86.552 278.36 85.872 278.36C85.272 278.36 84.7854 278.493 84.412 278.76C84.052 279.013 83.7454 279.32 83.492 279.68L81.972 278.32C82.3587 277.72 82.872 277.24 83.512 276.88C84.152 276.507 84.9987 276.32 86.052 276.32C87.4654 276.32 88.5387 276.64 89.272 277.28C90.0054 277.92 90.372 278.84 90.372 280.04V284.96H91.412V287H89.992ZM85.752 285.38C86.3254 285.38 86.812 285.253 87.212 285C87.612 284.747 87.812 284.373 87.812 283.88V282.5H86.172C84.8387 282.5 84.172 282.927 84.172 283.78V284.12C84.172 284.547 84.3054 284.867 84.572 285.08C84.852 285.28 85.2454 285.38 85.752 285.38ZM96.6658 287C95.7858 287 95.1124 286.773 94.6458 286.32C94.1924 285.853 93.9658 285.193 93.9658 284.34V278.6H92.4258V276.56H93.2258C93.6124 276.56 93.8724 276.473 94.0058 276.3C94.1524 276.113 94.2258 275.84 94.2258 275.48V273.7H96.5258V276.56H98.6658V278.6H96.5258V284.96H98.5058V287H96.6658ZM105.028 287.24C104.255 287.24 103.561 287.113 102.948 286.86C102.348 286.593 101.835 286.227 101.408 285.76C100.995 285.28 100.675 284.707 100.448 284.04C100.221 283.36 100.108 282.6 100.108 281.76C100.108 280.933 100.215 280.187 100.428 279.52C100.655 278.853 100.975 278.287 101.388 277.82C101.801 277.34 102.308 276.973 102.908 276.72C103.508 276.453 104.188 276.32 104.948 276.32C105.761 276.32 106.468 276.46 107.068 276.74C107.668 277.02 108.161 277.4 108.548 277.88C108.935 278.36 109.221 278.92 109.408 279.56C109.608 280.187 109.708 280.86 109.708 281.58V282.42H102.768V282.68C102.768 283.44 102.981 284.053 103.408 284.52C103.835 284.973 104.468 285.2 105.308 285.2C105.948 285.2 106.468 285.067 106.868 284.8C107.281 284.533 107.648 284.193 107.968 283.78L109.348 285.32C108.921 285.92 108.335 286.393 107.588 286.74C106.855 287.073 106.001 287.24 105.028 287.24ZM104.988 278.24C104.308 278.24 103.768 278.467 103.368 278.92C102.968 279.373 102.768 279.96 102.768 280.68V280.84H107.048V280.66C107.048 279.94 106.868 279.36 106.508 278.92C106.161 278.467 105.655 278.24 104.988 278.24ZM121.38 287.88C121.38 288.427 121.28 288.907 121.08 289.32C120.894 289.747 120.58 290.1 120.14 290.38C119.7 290.66 119.134 290.873 118.44 291.02C117.747 291.167 116.9 291.24 115.9 291.24C115.02 291.24 114.274 291.18 113.66 291.06C113.047 290.953 112.54 290.793 112.14 290.58C111.754 290.38 111.474 290.127 111.3 289.82C111.127 289.513 111.04 289.167 111.04 288.78C111.04 288.193 111.2 287.733 111.52 287.4C111.854 287.08 112.314 286.873 112.9 286.78V286.56C112.474 286.453 112.14 286.247 111.9 285.94C111.674 285.62 111.56 285.247 111.56 284.82C111.56 284.553 111.614 284.32 111.72 284.12C111.827 283.907 111.967 283.727 112.14 283.58C112.327 283.433 112.534 283.313 112.76 283.22C112.987 283.113 113.227 283.033 113.48 282.98V282.9C112.84 282.607 112.36 282.2 112.04 281.68C111.734 281.16 111.58 280.553 111.58 279.86C111.58 278.793 111.947 277.94 112.68 277.3C113.414 276.647 114.487 276.32 115.9 276.32C116.22 276.32 116.534 276.34 116.84 276.38C117.16 276.42 117.454 276.487 117.72 276.58V276.24C117.72 275.227 118.214 274.72 119.2 274.72H120.82V276.68H118.6V276.96C119.147 277.267 119.554 277.667 119.82 278.16C120.087 278.653 120.22 279.22 120.22 279.86C120.22 280.913 119.854 281.76 119.12 282.4C118.4 283.04 117.327 283.36 115.9 283.36C115.287 283.36 114.754 283.3 114.3 283.18C114.1 283.273 113.927 283.4 113.78 283.56C113.634 283.707 113.56 283.893 113.56 284.12C113.56 284.64 114.014 284.9 114.92 284.9H117.72C119 284.9 119.927 285.167 120.5 285.7C121.087 286.22 121.38 286.947 121.38 287.88ZM118.98 288.18C118.98 287.847 118.847 287.587 118.58 287.4C118.314 287.213 117.854 287.12 117.2 287.12H113.64C113.28 287.387 113.1 287.747 113.1 288.2C113.1 288.6 113.267 288.913 113.6 289.14C113.934 289.367 114.5 289.48 115.3 289.48H116.58C117.42 289.48 118.027 289.373 118.4 289.16C118.787 288.947 118.98 288.62 118.98 288.18ZM115.9 281.62C117.154 281.62 117.78 281.087 117.78 280.02V279.68C117.78 278.613 117.154 278.08 115.9 278.08C114.647 278.08 114.02 278.613 114.02 279.68V280.02C114.02 281.087 114.647 281.62 115.9 281.62ZM126.882 287.24C126.135 287.24 125.462 287.113 124.862 286.86C124.275 286.607 123.768 286.24 123.342 285.76C122.928 285.28 122.608 284.707 122.382 284.04C122.155 283.36 122.042 282.6 122.042 281.76C122.042 280.92 122.155 280.167 122.382 279.5C122.608 278.833 122.928 278.267 123.342 277.8C123.768 277.32 124.275 276.953 124.862 276.7C125.462 276.447 126.135 276.32 126.882 276.32C127.628 276.32 128.302 276.447 128.902 276.7C129.502 276.953 130.008 277.32 130.422 277.8C130.848 278.267 131.175 278.833 131.402 279.5C131.628 280.167 131.742 280.92 131.742 281.76C131.742 282.6 131.628 283.36 131.402 284.04C131.175 284.707 130.848 285.28 130.422 285.76C130.008 286.24 129.502 286.607 128.902 286.86C128.302 287.113 127.628 287.24 126.882 287.24ZM126.882 285.18C127.562 285.18 128.095 284.973 128.482 284.56C128.868 284.147 129.062 283.54 129.062 282.74V280.8C129.062 280.013 128.868 279.413 128.482 279C128.095 278.587 127.562 278.38 126.882 278.38C126.215 278.38 125.688 278.587 125.302 279C124.915 279.413 124.722 280.013 124.722 280.8V282.74C124.722 283.54 124.915 284.147 125.302 284.56C125.688 284.973 126.215 285.18 126.882 285.18ZM134.011 287V276.56H136.571V278.72H136.671C136.738 278.44 136.838 278.173 136.971 277.92C137.118 277.653 137.305 277.42 137.531 277.22C137.758 277.02 138.025 276.86 138.331 276.74C138.651 276.62 139.018 276.56 139.431 276.56H139.991V278.98H139.191C138.325 278.98 137.671 279.107 137.231 279.36C136.791 279.613 136.571 280.027 136.571 280.6V287H134.011ZM143.143 275.04C142.609 275.04 142.223 274.92 141.983 274.68C141.756 274.44 141.643 274.133 141.643 273.76V273.36C141.643 272.987 141.756 272.68 141.983 272.44C142.223 272.2 142.609 272.08 143.143 272.08C143.663 272.08 144.043 272.2 144.283 272.44C144.523 272.68 144.643 272.987 144.643 273.36V273.76C144.643 274.133 144.523 274.44 144.283 274.68C144.043 274.92 143.663 275.04 143.143 275.04ZM141.863 276.56H144.423V287H141.863V276.56ZM146.65 287V284.96L152.07 278.58H146.83V276.56H155.07V278.54L149.61 284.96H155.21V287H146.65ZM161.434 287.24C160.661 287.24 159.968 287.113 159.354 286.86C158.754 286.593 158.241 286.227 157.814 285.76C157.401 285.28 157.081 284.707 156.854 284.04C156.628 283.36 156.514 282.6 156.514 281.76C156.514 280.933 156.621 280.187 156.834 279.52C157.061 278.853 157.381 278.287 157.794 277.82C158.208 277.34 158.714 276.973 159.314 276.72C159.914 276.453 160.594 276.32 161.354 276.32C162.168 276.32 162.874 276.46 163.474 276.74C164.074 277.02 164.568 277.4 164.954 277.88C165.341 278.36 165.628 278.92 165.814 279.56C166.014 280.187 166.114 280.86 166.114 281.58V282.42H159.174V282.68C159.174 283.44 159.388 284.053 159.814 284.52C160.241 284.973 160.874 285.2 161.714 285.2C162.354 285.2 162.874 285.067 163.274 284.8C163.688 284.533 164.054 284.193 164.374 283.78L165.754 285.32C165.328 285.92 164.741 286.393 163.994 286.74C163.261 287.073 162.408 287.24 161.434 287.24ZM161.394 278.24C160.714 278.24 160.174 278.467 159.774 278.92C159.374 279.373 159.174 279.96 159.174 280.68V280.84H163.454V280.66C163.454 279.94 163.274 279.36 162.914 278.92C162.568 278.467 162.061 278.24 161.394 278.24ZM174.847 285.26H174.747C174.56 285.86 174.207 286.34 173.687 286.7C173.167 287.06 172.56 287.24 171.867 287.24C170.547 287.24 169.533 286.767 168.827 285.82C168.133 284.873 167.787 283.52 167.787 281.76C167.787 280.013 168.133 278.673 168.827 277.74C169.533 276.793 170.547 276.32 171.867 276.32C172.56 276.32 173.167 276.5 173.687 276.86C174.207 277.207 174.56 277.68 174.747 278.28H174.847V272.2H177.407V287H174.847V285.26ZM172.687 285.12C173.3 285.12 173.813 284.973 174.227 284.68C174.64 284.387 174.847 283.967 174.847 283.42V280.1C174.847 279.593 174.64 279.187 174.227 278.88C173.813 278.573 173.3 278.42 172.687 278.42C172.02 278.42 171.48 278.647 171.067 279.1C170.667 279.54 170.467 280.133 170.467 280.88V282.68C170.467 283.427 170.667 284.02 171.067 284.46C171.48 284.9 172.02 285.12 172.687 285.12ZM189.245 279.84L187.805 276.94H187.745V287H185.245V273.04H188.145L192.345 280.2L193.785 283.1H193.845V273.04H196.345V287H193.445L189.245 279.84ZM207.14 287C206.58 287 206.134 286.84 205.8 286.52C205.48 286.187 205.28 285.747 205.2 285.2H205.08C204.907 285.88 204.554 286.393 204.02 286.74C203.487 287.073 202.827 287.24 202.04 287.24C200.974 287.24 200.154 286.96 199.58 286.4C199.007 285.84 198.72 285.093 198.72 284.16C198.72 283.08 199.107 282.28 199.88 281.76C200.654 281.227 201.754 280.96 203.18 280.96H204.96V280.2C204.96 279.613 204.807 279.16 204.5 278.84C204.194 278.52 203.7 278.36 203.02 278.36C202.42 278.36 201.934 278.493 201.56 278.76C201.2 279.013 200.894 279.32 200.64 279.68L199.12 278.32C199.507 277.72 200.02 277.24 200.66 276.88C201.3 276.507 202.147 276.32 203.2 276.32C204.614 276.32 205.687 276.64 206.42 277.28C207.154 277.92 207.52 278.84 207.52 280.04V284.96H208.56V287H207.14ZM202.9 285.38C203.474 285.38 203.96 285.253 204.36 285C204.76 284.747 204.96 284.373 204.96 283.88V282.5H203.32C201.987 282.5 201.32 282.927 201.32 283.78V284.12C201.32 284.547 201.454 284.867 201.72 285.08C202 285.28 202.394 285.38 202.9 285.38ZM210.632 287V276.56H213.192V278.72H213.292C213.359 278.44 213.459 278.173 213.592 277.92C213.739 277.653 213.926 277.42 214.152 277.22C214.379 277.02 214.646 276.86 214.952 276.74C215.272 276.62 215.639 276.56 216.052 276.56H216.612V278.98H215.812C214.946 278.98 214.292 279.107 213.852 279.36C213.412 279.613 213.192 280.027 213.192 280.6V287H210.632ZM218.484 287V276.56H221.044V278.72H221.144C221.211 278.44 221.311 278.173 221.444 277.92C221.591 277.653 221.777 277.42 222.004 277.22C222.231 277.02 222.497 276.86 222.804 276.74C223.124 276.62 223.491 276.56 223.904 276.56H224.464V278.98H223.664C222.797 278.98 222.144 279.107 221.704 279.36C221.264 279.613 221.044 280.027 221.044 280.6V287H218.484ZM233.801 287C233.241 287 232.794 286.84 232.461 286.52C232.141 286.187 231.941 285.747 231.861 285.2H231.741C231.567 285.88 231.214 286.393 230.681 286.74C230.147 287.073 229.487 287.24 228.701 287.24C227.634 287.24 226.814 286.96 226.241 286.4C225.667 285.84 225.381 285.093 225.381 284.16C225.381 283.08 225.767 282.28 226.541 281.76C227.314 281.227 228.414 280.96 229.841 280.96H231.621V280.2C231.621 279.613 231.467 279.16 231.161 278.84C230.854 278.52 230.361 278.36 229.681 278.36C229.081 278.36 228.594 278.493 228.221 278.76C227.861 279.013 227.554 279.32 227.301 279.68L225.781 278.32C226.167 277.72 226.681 277.24 227.321 276.88C227.961 276.507 228.807 276.32 229.861 276.32C231.274 276.32 232.347 276.64 233.081 277.28C233.814 277.92 234.181 278.84 234.181 280.04V284.96H235.221V287H233.801ZM229.561 285.38C230.134 285.38 230.621 285.253 231.021 285C231.421 284.747 231.621 284.373 231.621 283.88V282.5H229.981C228.647 282.5 227.981 282.927 227.981 283.78V284.12C227.981 284.547 228.114 284.867 228.381 285.08C228.661 285.28 229.054 285.38 229.561 285.38ZM240.474 287C239.594 287 238.921 286.773 238.454 286.32C238.001 285.853 237.774 285.193 237.774 284.34V278.6H236.234V276.56H237.034C237.421 276.56 237.681 276.473 237.814 276.3C237.961 276.113 238.034 275.84 238.034 275.48V273.7H240.334V276.56H242.474V278.6H240.334V284.96H242.314V287H240.474ZM245.975 275.04C245.442 275.04 245.055 274.92 244.815 274.68C244.588 274.44 244.475 274.133 244.475 273.76V273.36C244.475 272.987 244.588 272.68 244.815 272.44C245.055 272.2 245.442 272.08 245.975 272.08C246.495 272.08 246.875 272.2 247.115 272.44C247.355 272.68 247.475 272.987 247.475 273.36V273.76C247.475 274.133 247.355 274.44 247.115 274.68C246.875 274.92 246.495 275.04 245.975 275.04ZM244.695 276.56H247.255V287H244.695V276.56ZM252.462 287L248.982 276.56H251.502L252.962 281.06L253.982 284.78H254.122L255.142 281.06L256.562 276.56H259.002L255.502 287H252.462ZM264.774 287.24C264.001 287.24 263.308 287.113 262.694 286.86C262.094 286.593 261.581 286.227 261.154 285.76C260.741 285.28 260.421 284.707 260.194 284.04C259.968 283.36 259.854 282.6 259.854 281.76C259.854 280.933 259.961 280.187 260.174 279.52C260.401 278.853 260.721 278.287 261.134 277.82C261.548 277.34 262.054 276.973 262.654 276.72C263.254 276.453 263.934 276.32 264.694 276.32C265.508 276.32 266.214 276.46 266.814 276.74C267.414 277.02 267.908 277.4 268.294 277.88C268.681 278.36 268.968 278.92 269.154 279.56C269.354 280.187 269.454 280.86 269.454 281.58V282.42H262.514V282.68C262.514 283.44 262.728 284.053 263.154 284.52C263.581 284.973 264.214 285.2 265.054 285.2C265.694 285.2 266.214 285.067 266.614 284.8C267.028 284.533 267.394 284.193 267.714 283.78L269.094 285.32C268.668 285.92 268.081 286.393 267.334 286.74C266.601 287.073 265.748 287.24 264.774 287.24ZM264.734 278.24C264.054 278.24 263.514 278.467 263.114 278.92C262.714 279.373 262.514 279.96 262.514 280.68V280.84H266.794V280.66C266.794 279.94 266.614 279.36 266.254 278.92C265.908 278.467 265.401 278.24 264.734 278.24ZM275.127 287.24C274.127 287.24 273.287 287.073 272.607 286.74C271.927 286.393 271.327 285.92 270.807 285.32L272.367 283.8C272.753 284.24 273.173 284.587 273.627 284.84C274.093 285.093 274.627 285.22 275.227 285.22C275.84 285.22 276.28 285.113 276.547 284.9C276.827 284.687 276.967 284.393 276.967 284.02C276.967 283.713 276.867 283.473 276.667 283.3C276.48 283.113 276.153 282.987 275.687 282.92L274.647 282.78C273.513 282.633 272.647 282.313 272.047 281.82C271.46 281.313 271.167 280.58 271.167 279.62C271.167 279.113 271.26 278.66 271.447 278.26C271.633 277.847 271.9 277.5 272.247 277.22C272.593 276.927 273.007 276.707 273.487 276.56C273.98 276.4 274.527 276.32 275.127 276.32C275.633 276.32 276.08 276.36 276.467 276.44C276.867 276.507 277.227 276.613 277.547 276.76C277.867 276.893 278.16 277.067 278.427 277.28C278.693 277.48 278.953 277.707 279.207 277.96L277.707 279.46C277.4 279.14 277.033 278.873 276.607 278.66C276.18 278.447 275.713 278.34 275.207 278.34C274.647 278.34 274.24 278.44 273.987 278.64C273.747 278.84 273.627 279.1 273.627 279.42C273.627 279.767 273.727 280.033 273.927 280.22C274.14 280.393 274.493 280.52 274.987 280.6L276.047 280.74C278.3 281.06 279.427 282.087 279.427 283.82C279.427 284.327 279.32 284.793 279.107 285.22C278.907 285.633 278.62 285.993 278.247 286.3C277.873 286.593 277.42 286.827 276.887 287C276.367 287.16 275.78 287.24 275.127 287.24Z" fill="white"/>
<path d="M156.766 270.5L151.679 260.134L163.199 260.912L156.766 270.5ZM155.93 268.069C155.93 267.516 156.378 267.069 156.93 267.069C157.482 267.069 157.93 267.517 157.93 268.069L155.93 268.069ZM157.454 263.032C157.551 263.576 157.188 264.094 156.644 264.191C156.1 264.287 155.581 263.924 155.485 263.38L157.454 263.032ZM154.353 258.754C154.19 258.226 154.485 257.666 155.013 257.503C155.54 257.34 156.1 257.635 156.264 258.163L154.353 258.754ZM154.533 253.475C154.75 253.983 154.515 254.571 154.007 254.789C153.5 255.006 152.912 254.771 152.694 254.263L154.533 253.475ZM150.599 249.946C150.336 249.461 150.516 248.854 151.002 248.59C151.487 248.327 152.094 248.507 152.357 248.993L150.599 249.946ZM149.808 244.729C150.11 245.191 149.981 245.811 149.519 246.114C149.057 246.416 148.437 246.287 148.134 245.825L149.808 244.729ZM145.347 241.901C145.01 241.463 145.093 240.835 145.531 240.499C145.969 240.163 146.597 240.245 146.933 240.683L145.347 241.901ZM143.779 236.858C144.144 237.272 144.105 237.904 143.691 238.269C143.277 238.635 142.645 238.596 142.279 238.182L143.779 236.858ZM138.968 234.663C138.577 234.273 138.577 233.64 138.967 233.249C139.357 232.858 139.99 232.858 140.381 233.248L138.968 234.663ZM136.779 229.854C137.191 230.221 137.228 230.854 136.861 231.266C136.494 231.679 135.862 231.715 135.449 231.348L136.779 229.854ZM131.775 228.151C131.366 227.78 131.335 227.148 131.706 226.739C132.077 226.33 132.71 226.299 133.119 226.67L131.775 228.151ZM129.749 223.326C130.12 223.735 130.091 224.367 129.682 224.739C129.274 225.111 128.641 225.081 128.269 224.672L129.749 223.326ZM125.184 220.786C124.875 220.328 124.997 219.707 125.455 219.398C125.913 219.09 126.534 219.211 126.843 219.669L125.184 220.786ZM124.717 215.61C124.906 216.129 124.638 216.702 124.119 216.891C123.6 217.079 123.026 216.811 122.837 216.292L124.717 215.61ZM122.022 211.156C122.056 210.604 122.531 210.185 123.082 210.219C123.633 210.253 124.053 210.728 124.019 211.279L122.022 211.156ZM125.345 207.204C125.052 207.672 124.435 207.814 123.967 207.521C123.499 207.228 123.357 206.611 123.65 206.143L125.345 207.204ZM127.194 202.38C127.636 202.048 128.263 202.137 128.595 202.579C128.926 203.02 128.837 203.647 128.395 203.979L127.194 202.38ZM132.378 201.731C131.869 201.944 131.283 201.704 131.07 201.194C130.856 200.685 131.097 200.099 131.606 199.886L132.378 201.731ZM155.485 263.38C155.234 261.958 154.865 260.409 154.353 258.754L156.264 258.163C156.8 259.895 157.188 261.526 157.454 263.032L155.485 263.38ZM152.694 254.263C152.098 252.871 151.403 251.428 150.599 249.946L152.357 248.993C153.19 250.529 153.912 252.026 154.533 253.475L152.694 254.263ZM148.134 245.825C147.291 244.536 146.364 243.227 145.347 241.901L146.933 240.683C147.981 242.048 148.937 243.399 149.808 244.729L148.134 245.825ZM142.279 238.182C141.249 237.015 140.147 235.841 138.968 234.663L140.381 233.248C141.59 234.455 142.721 235.66 143.779 236.858L142.279 238.182ZM135.449 231.348C134.856 230.82 134.247 230.292 133.621 229.765L134.91 228.235C135.55 228.775 136.172 229.314 136.779 229.854L135.449 231.348ZM133.621 229.765C132.975 229.22 132.36 228.682 131.775 228.151L133.119 226.67C133.685 227.184 134.282 227.705 134.91 228.235L133.621 229.765ZM128.269 224.672C127.047 223.329 126.024 222.034 125.184 220.786L126.843 219.669C127.622 220.826 128.583 222.045 129.749 223.326L128.269 224.672ZM122.837 216.292C122.173 214.462 121.924 212.748 122.022 211.156L124.019 211.279C123.939 212.569 124.136 214.009 124.717 215.61L122.837 216.292ZM123.65 206.143C124.576 204.661 125.82 203.412 127.194 202.38L128.395 203.979C127.173 204.897 126.115 205.973 125.345 207.204L123.65 206.143ZM131.606 199.886C132.409 199.55 133.209 199.268 133.983 199.041L134.548 200.959C133.842 201.167 133.111 201.424 132.378 201.731L131.606 199.886Z" fill="#FAAA3F"/>
<rect x="99.7422" y="146" width="253" height="54" rx="15" transform="rotate(6.107 99.7422 146)" fill="url(#paint1_linear_10811_163342)"/>
<rect x="99.7422" y="146" width="253" height="54" rx="15" transform="rotate(6.107 99.7422 146)" stroke="white" stroke-width="3"/>
<path d="M149.966 176.497L149.887 176.488L148.577 178.581L145.171 183.526L142.889 177.972L142.051 175.65L141.972 175.641L140.906 185.604L138.42 185.338L139.905 171.458L142.868 171.775L145.702 178.937L145.782 178.945L150.027 172.541L152.871 172.845L151.386 186.726L148.9 186.46L149.966 176.497ZM158.667 187.746C157.898 187.664 157.222 187.464 156.639 187.147C156.071 186.818 155.6 186.399 155.225 185.889C154.865 185.368 154.608 184.764 154.453 184.077C154.3 183.377 154.268 182.609 154.358 181.774C154.446 180.952 154.631 180.221 154.914 179.581C155.211 178.942 155.589 178.412 156.05 177.992C156.512 177.559 157.055 177.248 157.678 177.06C158.303 176.859 158.993 176.799 159.749 176.88C160.558 176.966 161.246 177.181 161.812 177.523C162.379 177.865 162.829 178.295 163.163 178.814C163.496 179.332 163.722 179.919 163.839 180.576C163.971 181.22 163.999 181.9 163.923 182.616L163.833 183.451L156.933 182.713L156.905 182.972C156.824 183.727 156.971 184.36 157.345 184.869C157.722 185.365 158.327 185.658 159.162 185.748C159.799 185.816 160.33 185.738 160.756 185.516C161.195 185.295 161.596 184.995 161.958 184.619L163.167 186.297C162.679 186.848 162.045 187.256 161.266 187.521C160.501 187.775 159.635 187.85 158.667 187.746ZM159.585 178.793C158.908 178.721 158.347 178.889 157.901 179.297C157.456 179.705 157.194 180.267 157.118 180.983L157.101 181.142L161.356 181.597L161.375 181.418C161.452 180.702 161.335 180.107 161.024 179.631C160.727 179.143 160.248 178.864 159.585 178.793ZM165.585 188.245L166.696 177.864L169.242 178.137L169.012 180.284L169.111 180.295C169.207 180.024 169.335 179.769 169.495 179.531C169.669 179.282 169.879 179.07 170.126 178.895C170.373 178.72 170.655 178.59 170.972 178.503C171.303 178.418 171.674 178.397 172.085 178.441L172.642 178.5L172.385 180.907L171.589 180.822C170.728 180.729 170.064 180.786 169.6 180.991C169.136 181.196 168.873 181.584 168.812 182.154L168.131 188.517L165.585 188.245ZM182.335 190.922C182.277 191.466 182.127 191.932 181.884 192.322C181.653 192.726 181.304 193.044 180.836 193.276C180.369 193.508 179.783 193.659 179.078 193.732C178.373 193.804 177.523 193.786 176.529 193.68C175.654 193.586 174.918 193.447 174.321 193.263C173.722 193.091 173.235 192.878 172.86 192.624C172.497 192.384 172.246 192.102 172.106 191.779C171.966 191.455 171.917 191.101 171.958 190.717C172.021 190.134 172.229 189.693 172.582 189.396C172.948 189.113 173.427 188.957 174.02 188.926L174.044 188.707C173.631 188.556 173.321 188.315 173.115 187.985C172.924 187.642 172.851 187.259 172.897 186.835C172.925 186.57 173.003 186.343 173.13 186.156C173.259 185.955 173.417 185.791 173.605 185.664C173.806 185.538 174.025 185.44 174.26 185.372C174.497 185.29 174.744 185.236 175.001 185.209L175.01 185.13C174.405 184.77 173.971 184.315 173.708 183.764C173.458 183.214 173.37 182.594 173.444 181.905C173.558 180.844 174.013 180.035 174.81 179.477C175.609 178.905 176.711 178.694 178.116 178.845C178.434 178.879 178.744 178.932 179.044 179.004C179.358 179.078 179.643 179.176 179.898 179.297L179.934 178.959C180.042 177.951 180.587 177.5 181.568 177.605L183.178 177.777L182.97 179.726L180.763 179.49L180.733 179.768C181.244 180.131 181.605 180.572 181.818 181.091C182.031 181.61 182.103 182.188 182.035 182.824C181.923 183.872 181.468 184.674 180.671 185.233C179.887 185.793 178.786 185.997 177.367 185.845C176.757 185.78 176.233 185.663 175.795 185.496C175.587 185.567 175.401 185.675 175.238 185.818C175.077 185.948 174.984 186.126 174.96 186.352C174.904 186.869 175.327 187.175 176.229 187.272L179.013 187.57C180.286 187.706 181.179 188.07 181.692 188.661C182.22 189.24 182.435 189.994 182.335 190.922ZM179.917 190.965C179.952 190.634 179.847 190.361 179.602 190.147C179.357 189.933 178.909 189.791 178.26 189.722L174.72 189.343C174.334 189.57 174.116 189.909 174.068 190.359C174.026 190.757 174.158 191.086 174.465 191.347C174.773 191.608 175.324 191.781 176.12 191.866L177.392 192.002C178.227 192.092 178.842 192.05 179.236 191.878C179.643 191.707 179.87 191.403 179.917 190.965ZM177.552 184.115C178.799 184.248 179.478 183.784 179.592 182.724L179.628 182.386C179.742 181.325 179.175 180.728 177.929 180.595C176.683 180.461 176.003 180.925 175.889 181.986L175.853 182.324C175.74 183.384 176.306 183.981 177.552 184.115ZM187.953 190.88C187.184 190.797 186.508 190.598 185.925 190.28C185.357 189.951 184.885 189.532 184.511 189.023C184.151 188.502 183.894 187.897 183.739 187.21C183.586 186.51 183.554 185.742 183.644 184.907C183.732 184.085 183.917 183.354 184.2 182.714C184.497 182.075 184.875 181.546 185.336 181.126C185.798 180.692 186.341 180.382 186.964 180.194C187.589 179.992 188.279 179.932 189.035 180.013C189.844 180.1 190.532 180.314 191.098 180.656C191.665 180.998 192.115 181.429 192.449 181.947C192.782 182.466 193.008 183.053 193.125 183.709C193.257 184.353 193.285 185.034 193.208 185.75L193.119 186.585L186.219 185.846L186.191 186.105C186.11 186.861 186.257 187.493 186.631 188.003C187.007 188.499 187.613 188.792 188.448 188.881C189.085 188.949 189.616 188.872 190.042 188.649C190.481 188.428 190.882 188.129 191.244 187.752L192.453 189.43C191.965 189.981 191.331 190.389 190.552 190.655C189.787 190.908 188.921 190.983 187.953 190.88ZM188.871 181.926C188.194 181.854 187.633 182.022 187.187 182.43C186.741 182.838 186.48 183.4 186.404 184.116L186.387 184.275L190.642 184.731L190.661 184.552C190.738 183.836 190.621 183.24 190.31 182.764C190.013 182.277 189.533 181.997 188.871 181.926ZM201.5 190.338L201.4 190.327C201.151 190.904 200.749 191.343 200.193 191.646C199.638 191.949 199.015 192.063 198.326 191.989C197.014 191.849 196.056 191.27 195.454 190.254C194.866 189.239 194.665 187.856 194.852 186.106C195.038 184.37 195.525 183.074 196.314 182.22C197.117 181.354 198.175 180.991 199.488 181.131C200.177 181.205 200.761 181.449 201.24 181.862C201.72 182.262 202.021 182.77 202.143 183.387L202.242 183.397L202.889 177.352L205.435 177.624L203.86 192.34L201.315 192.068L201.5 190.338ZM199.367 189.969C199.977 190.034 200.503 189.943 200.945 189.695C201.387 189.447 201.637 189.052 201.696 188.508L202.049 185.207C202.103 184.703 201.94 184.277 201.562 183.928C201.184 183.579 200.69 183.372 200.08 183.307C199.417 183.236 198.856 183.404 198.397 183.81C197.952 184.205 197.69 184.774 197.611 185.517L197.419 187.306C197.34 188.049 197.475 188.66 197.826 189.14C198.191 189.622 198.704 189.898 199.367 189.969ZM216.393 186.48L215.27 183.443L215.21 183.437L214.14 193.44L211.654 193.174L213.14 179.293L216.023 179.602L219.438 187.168L220.561 190.205L220.62 190.211L221.691 180.208L224.177 180.474L222.691 194.355L219.808 194.046L216.393 186.48ZM233.425 195.503C232.868 195.444 232.441 195.237 232.144 194.884C231.861 194.518 231.709 194.059 231.688 193.507L231.568 193.494C231.324 194.152 230.918 194.625 230.351 194.913C229.785 195.188 229.111 195.283 228.329 195.199C227.268 195.086 226.482 194.72 225.972 194.102C225.461 193.485 225.256 192.712 225.355 191.784C225.47 190.71 225.94 189.956 226.764 189.521C227.589 189.073 228.712 188.925 230.13 189.076L231.9 189.266L231.981 188.51C232.043 187.927 231.939 187.46 231.668 187.109C231.397 186.758 230.924 186.546 230.248 186.474C229.651 186.41 229.153 186.491 228.753 186.716C228.369 186.93 228.031 187.202 227.741 187.533L226.374 186.019C226.822 185.464 227.384 185.041 228.059 184.751C228.735 184.448 229.596 184.353 230.644 184.465C232.049 184.615 233.082 185.048 233.743 185.762C234.404 186.476 234.671 187.43 234.543 188.623L234.02 193.515L235.054 193.626L234.837 195.654L233.425 195.503ZM229.382 193.441C229.952 193.502 230.449 193.428 230.874 193.219C231.298 193.01 231.537 192.66 231.589 192.169L231.736 190.797L230.106 190.623C228.78 190.481 228.072 190.834 227.981 191.682L227.945 192.021C227.899 192.445 227.998 192.777 228.24 193.018C228.497 193.246 228.878 193.388 229.382 193.441ZM236.897 195.875L238.008 185.494L240.553 185.766L240.324 187.914L240.423 187.925C240.519 187.653 240.647 187.399 240.806 187.161C240.981 186.912 241.191 186.7 241.438 186.525C241.684 186.35 241.967 186.219 242.284 186.133C242.615 186.047 242.986 186.027 243.397 186.071L243.954 186.13L243.696 188.537L242.901 188.451C242.039 188.359 241.376 188.416 240.912 188.621C240.447 188.826 240.185 189.213 240.124 189.784L239.443 196.147L236.897 195.875ZM244.704 196.71L245.815 186.329L248.36 186.602L248.131 188.749L248.23 188.76C248.326 188.489 248.454 188.234 248.613 187.997C248.788 187.747 248.998 187.535 249.245 187.36C249.491 187.185 249.774 187.055 250.091 186.968C250.422 186.883 250.793 186.862 251.204 186.906L251.761 186.966L251.503 189.372L250.708 189.287C249.846 189.195 249.183 189.251 248.719 189.456C248.254 189.661 247.992 190.049 247.931 190.619L247.25 196.982L244.704 196.71ZM259.934 198.34C259.377 198.28 258.95 198.073 258.653 197.72C258.37 197.354 258.218 196.896 258.197 196.343L258.077 196.331C257.832 196.988 257.427 197.461 256.859 197.749C256.294 198.024 255.62 198.119 254.837 198.036C253.777 197.922 252.991 197.557 252.481 196.939C251.97 196.321 251.765 195.548 251.864 194.62C251.979 193.546 252.448 192.792 253.273 192.357C254.098 191.909 255.22 191.761 256.639 191.913L258.409 192.102L258.49 191.346C258.552 190.763 258.448 190.296 258.177 189.945C257.906 189.594 257.433 189.383 256.757 189.31C256.16 189.247 255.662 189.327 255.262 189.553C254.877 189.766 254.54 190.039 254.25 190.37L252.883 188.856C253.331 188.3 253.893 187.878 254.567 187.588C255.243 187.285 256.105 187.189 257.153 187.301C258.558 187.451 259.591 187.884 260.252 188.598C260.913 189.313 261.18 190.266 261.052 191.46L260.529 196.352L261.563 196.462L261.346 198.491L259.934 198.34ZM255.89 196.278C256.46 196.339 256.958 196.265 257.383 196.055C257.807 195.846 258.046 195.496 258.098 195.005L258.245 193.633L256.614 193.459C255.289 193.317 254.58 193.67 254.49 194.519L254.453 194.857C254.408 195.281 254.507 195.613 254.749 195.854C255.006 196.083 255.387 196.224 255.89 196.278ZM266.57 199.05C265.695 198.956 265.049 198.659 264.634 198.159C264.233 197.646 264.077 196.966 264.168 196.117L264.779 190.41L263.248 190.246L263.465 188.218L264.26 188.303C264.645 188.344 264.912 188.286 265.063 188.127C265.229 187.957 265.331 187.693 265.369 187.335L265.559 185.566L267.846 185.81L267.541 188.654L269.669 188.882L269.452 190.91L267.324 190.682L266.648 197.006L268.616 197.217L268.399 199.245L266.57 199.05ZM273.311 187.743C272.781 187.686 272.409 187.525 272.196 187.261C271.997 186.999 271.916 186.682 271.956 186.31L271.999 185.913C272.038 185.541 272.184 185.249 272.435 185.034C272.699 184.821 273.096 184.743 273.626 184.799C274.143 184.855 274.509 185.015 274.722 185.279C274.935 185.543 275.021 185.861 274.982 186.232L274.939 186.629C274.899 187.001 274.747 187.293 274.483 187.506C274.219 187.719 273.829 187.798 273.311 187.743ZM271.877 189.118L274.423 189.39L273.312 199.771L270.766 199.499L271.877 189.118ZM278.49 200.325L276.14 189.574L278.646 189.842L279.619 194.472L280.237 198.279L280.376 198.294L281.786 194.704L283.677 190.38L286.103 190.64L281.512 200.648L278.49 200.325ZM290.706 201.873C289.937 201.791 289.261 201.591 288.679 201.274C288.11 200.945 287.639 200.526 287.264 200.017C286.904 199.495 286.647 198.891 286.493 198.204C286.34 197.504 286.308 196.736 286.397 195.901C286.485 195.079 286.671 194.348 286.954 193.708C287.25 193.069 287.628 192.54 288.089 192.12C288.551 191.686 289.094 191.376 289.717 191.188C290.342 190.986 291.033 190.926 291.788 191.007C292.597 191.093 293.285 191.308 293.852 191.65C294.419 191.992 294.869 192.423 295.202 192.941C295.535 193.459 295.761 194.047 295.878 194.703C296.011 195.347 296.038 196.027 295.962 196.743L295.873 197.579L288.972 196.84L288.944 197.099C288.863 197.855 289.01 198.487 289.385 198.996C289.761 199.493 290.366 199.785 291.202 199.875C291.838 199.943 292.369 199.866 292.795 199.643C293.235 199.422 293.636 199.123 293.998 198.746L295.206 200.424C294.718 200.975 294.084 201.383 293.305 201.649C292.54 201.902 291.674 201.977 290.706 201.873ZM291.624 192.92C290.948 192.848 290.387 193.016 289.941 193.424C289.495 193.832 289.234 194.394 289.157 195.11L289.14 195.269L293.396 195.725L293.415 195.546C293.491 194.83 293.374 194.234 293.063 193.758C292.767 193.27 292.287 192.991 291.624 192.92ZM301 202.975C300.006 202.868 299.188 202.613 298.547 202.209C297.908 201.792 297.362 201.258 296.909 200.606L298.622 199.261C298.959 199.739 299.34 200.129 299.764 200.429C300.201 200.73 300.718 200.913 301.314 200.977C301.924 201.042 302.373 200.983 302.661 200.799C302.962 200.617 303.132 200.34 303.172 199.969C303.205 199.664 303.131 199.415 302.95 199.221C302.785 199.015 302.473 198.855 302.016 198.739L300.997 198.489C299.886 198.223 299.058 197.812 298.514 197.258C297.985 196.692 297.771 195.931 297.873 194.977C297.927 194.473 298.068 194.032 298.296 193.654C298.526 193.263 298.828 192.947 299.202 192.705C299.578 192.45 300.012 192.276 300.505 192.181C301.013 192.074 301.565 192.053 302.162 192.117C302.665 192.171 303.105 192.258 303.481 192.379C303.872 192.487 304.218 192.632 304.521 192.812C304.825 192.978 305.098 193.182 305.341 193.422C305.585 193.65 305.819 193.903 306.044 194.181L304.393 195.513C304.122 195.163 303.786 194.858 303.384 194.601C302.983 194.343 302.53 194.188 302.026 194.134C301.469 194.074 301.054 194.13 300.781 194.302C300.521 194.476 300.374 194.721 300.34 195.04C300.303 195.384 300.375 195.66 300.554 195.867C300.747 196.062 301.085 196.225 301.567 196.358L302.606 196.609C304.813 197.167 305.824 198.308 305.639 200.032C305.585 200.535 305.43 200.988 305.172 201.39C304.929 201.779 304.606 202.107 304.202 202.372C303.8 202.624 303.324 202.808 302.775 202.923C302.241 203.027 301.649 203.044 301 202.975Z" fill="white"/>
<path d="M249.164 169.5L254.251 159.134L242.73 159.912L249.164 169.5ZM250 167.069C250 166.516 249.552 166.069 249 166.069C248.448 166.069 248 166.517 248 167.069L250 167.069ZM248.475 162.032C248.379 162.576 248.742 163.094 249.286 163.191C249.83 163.287 250.349 162.924 250.445 162.38L248.475 162.032ZM251.576 157.754C251.74 157.226 251.444 156.666 250.917 156.503C250.389 156.34 249.829 156.635 249.666 157.163L251.576 157.754ZM251.397 152.475C251.179 152.983 251.415 153.571 251.922 153.789C252.43 154.006 253.018 153.771 253.235 153.263L251.397 152.475ZM255.33 148.946C255.594 148.461 255.414 147.854 254.928 147.59C254.443 147.327 253.836 147.507 253.572 147.993L255.33 148.946ZM256.122 143.729C255.819 144.191 255.949 144.811 256.411 145.114C256.873 145.416 257.493 145.287 257.795 144.825L256.122 143.729ZM260.583 140.901C260.919 140.463 260.837 139.835 260.399 139.499C259.961 139.163 259.333 139.245 258.997 139.683L260.583 140.901ZM262.151 135.858C261.786 136.272 261.825 136.904 262.239 137.269C262.653 137.635 263.285 137.596 263.65 137.182L262.151 135.858ZM266.962 133.663C267.353 133.273 267.353 132.64 266.963 132.249C266.572 131.858 265.939 131.858 265.549 132.248L266.962 133.663ZM269.151 128.854C268.738 129.221 268.702 129.854 269.069 130.266C269.436 130.679 270.068 130.715 270.481 130.348L269.151 128.854ZM274.155 127.151C274.564 126.78 274.595 126.148 274.224 125.739C273.853 125.33 273.22 125.299 272.811 125.67L274.155 127.151ZM276.181 122.326C275.809 122.735 275.839 123.367 276.248 123.739C276.656 124.111 277.288 124.081 277.66 123.672L276.181 122.326ZM280.746 119.786C281.054 119.328 280.933 118.707 280.475 118.398C280.017 118.09 279.396 118.211 279.087 118.669L280.746 119.786ZM281.212 114.61C281.024 115.129 281.292 115.702 281.811 115.891C282.33 116.079 282.904 115.811 283.092 115.292L281.212 114.61ZM283.907 110.156C283.873 109.604 283.399 109.185 282.847 109.219C282.296 109.253 281.877 109.728 281.911 110.279L283.907 110.156ZM280.585 106.204C280.877 106.672 281.494 106.814 281.963 106.521C282.431 106.228 282.573 105.611 282.28 105.143L280.585 106.204ZM278.735 101.38C278.294 101.048 277.667 101.137 277.335 101.579C277.004 102.02 277.093 102.647 277.534 102.979L278.735 101.38ZM273.551 100.731C274.061 100.944 274.647 100.704 274.86 100.194C275.073 99.6848 274.833 99.0989 274.324 98.8857L273.551 100.731ZM250.445 162.38C250.696 160.958 251.064 159.409 251.576 157.754L249.666 157.163C249.13 158.895 248.741 160.526 248.475 162.032L250.445 162.38ZM253.235 153.263C253.832 151.871 254.526 150.428 255.33 148.946L253.572 147.993C252.739 149.529 252.018 151.026 251.397 152.475L253.235 153.263ZM257.795 144.825C258.639 143.536 259.566 142.227 260.583 140.901L258.997 139.683C257.949 141.048 256.993 142.399 256.122 143.729L257.795 144.825ZM263.65 137.182C264.68 136.015 265.783 134.841 266.962 133.663L265.549 132.248C264.34 133.455 263.209 134.66 262.151 135.858L263.65 137.182ZM270.481 130.348C271.074 129.82 271.683 129.292 272.309 128.765L271.02 127.235C270.38 127.775 269.757 128.314 269.151 128.854L270.481 130.348ZM272.309 128.765C272.955 128.22 273.57 127.682 274.155 127.151L272.811 125.67C272.245 126.184 271.648 126.705 271.02 127.235L272.309 128.765ZM277.66 123.672C278.883 122.329 279.905 121.034 280.746 119.786L279.087 118.669C278.308 119.826 277.347 121.045 276.181 122.326L277.66 123.672ZM283.092 115.292C283.757 113.462 284.006 111.748 283.907 110.156L281.911 110.279C281.991 111.569 281.794 113.009 281.212 114.61L283.092 115.292ZM282.28 105.143C281.353 103.661 280.11 102.412 278.735 101.38L277.534 102.979C278.757 103.897 279.815 104.973 280.585 106.204L282.28 105.143ZM274.324 98.8857C273.521 98.5498 272.721 98.2684 271.946 98.0406L271.382 99.9594C272.087 100.167 272.818 100.424 273.551 100.731L274.324 98.8857Z" fill="#FAAA3F"/>
<g clip-path="url(#clip0_10811_163342)">
<rect x="61" y="93.3086" width="251" height="54" rx="15" transform="rotate(-11.0966 61 93.3086)" fill="url(#paint2_linear_10811_163342)"/>
<path d="M88.6217 123.559L86.8375 120.281L81.9702 121.235L81.576 124.94L78.9461 125.456L80.8518 110.856L84.0705 110.225L91.3105 123.031L88.6217 123.559ZM82.9034 112.9L82.8053 112.919L82.1633 118.894L85.7745 118.186L82.9034 112.9ZM92.7604 122.747L92.3524 120.666L94.158 120.312L92.2872 110.774L90.4816 111.128L90.0736 109.048L96.2951 107.828L96.7031 109.908L94.8779 110.266L96.7486 119.804L98.5738 119.446L98.9819 121.527L92.7604 122.747ZM114.585 116.265L114.506 116.281C114.519 116.971 114.257 117.607 113.718 118.188C113.191 118.753 112.41 119.137 111.376 119.34C110.565 119.499 109.783 119.496 109.031 119.331C108.291 119.164 107.609 118.836 106.983 118.347C106.368 117.843 105.83 117.181 105.371 116.36C104.911 115.54 104.568 114.554 104.342 113.403C104.116 112.252 104.061 111.209 104.177 110.276C104.304 109.328 104.576 108.5 104.995 107.793C105.413 107.086 105.964 106.502 106.648 106.042C107.333 105.581 108.133 105.261 109.049 105.082C110.278 104.84 111.378 104.903 112.347 105.27C113.315 105.638 114.147 106.276 114.842 107.186L112.984 108.834C112.62 108.294 112.151 107.877 111.577 107.582C111.016 107.284 110.323 107.216 109.499 107.378C108.478 107.578 107.722 108.052 107.23 108.801C106.749 109.534 106.628 110.509 106.867 111.726L107.298 113.924C107.534 115.128 108.021 115.983 108.759 116.491C109.497 116.998 110.383 117.15 111.417 116.948C111.822 116.868 112.193 116.748 112.528 116.587C112.861 116.413 113.139 116.202 113.362 115.955C113.585 115.707 113.747 115.424 113.848 115.105C113.948 114.787 113.96 114.431 113.883 114.039L113.71 113.156L111.021 113.683L110.594 111.504L115.775 110.488L117.238 117.946L115 118.385L114.585 116.265ZM124.269 116.812C123.51 116.96 122.805 116.97 122.155 116.839C121.515 116.693 120.94 116.432 120.432 116.056C119.934 115.664 119.51 115.163 119.159 114.553C118.805 113.929 118.548 113.205 118.386 112.381C118.227 111.57 118.188 110.817 118.269 110.121C118.363 109.423 118.568 108.806 118.884 108.268C119.197 107.718 119.624 107.26 120.164 106.896C120.701 106.519 121.343 106.257 122.089 106.111C122.887 105.955 123.607 105.956 124.25 106.115C124.893 106.275 125.45 106.552 125.922 106.949C126.394 107.346 126.783 107.84 127.089 108.432C127.406 109.009 127.634 109.65 127.772 110.357L127.934 111.181L121.124 112.517L121.174 112.772C121.32 113.518 121.647 114.078 122.156 114.454C122.662 114.817 123.327 114.917 124.151 114.756C124.779 114.633 125.264 114.402 125.605 114.063C125.959 113.722 126.254 113.318 126.488 112.85L128.139 114.096C127.836 114.767 127.351 115.344 126.685 115.828C126.029 116.296 125.224 116.624 124.269 116.812ZM122.498 107.988C121.83 108.118 121.344 108.445 121.039 108.967C120.733 109.488 120.65 110.103 120.789 110.809L120.82 110.966L125.019 110.142L124.985 109.966C124.846 109.259 124.558 108.725 124.12 108.362C123.693 107.984 123.152 107.859 122.498 107.988ZM131.026 115.242L129.016 104.997L131.528 104.504L131.863 106.212L131.961 106.193C132.063 105.602 132.3 105.08 132.673 104.626C133.057 104.157 133.648 103.844 134.446 103.688C135.506 103.48 136.385 103.667 137.083 104.25C137.782 104.834 138.257 105.766 138.509 107.048L139.779 113.525L137.267 114.018L136.046 107.796C135.903 107.064 135.664 106.54 135.331 106.225C134.997 105.91 134.529 105.811 133.927 105.929C133.666 105.981 133.418 106.07 133.185 106.197C132.962 106.309 132.767 106.456 132.599 106.638C132.442 106.805 132.324 107.005 132.248 107.237C132.169 107.456 132.156 107.703 132.21 107.978L133.538 114.749L131.026 115.242ZM146.751 112.402C145.992 112.551 145.287 112.56 144.637 112.43C143.997 112.283 143.422 112.022 142.914 111.647C142.416 111.255 141.991 110.754 141.641 110.143C141.287 109.52 141.03 108.796 140.868 107.972C140.709 107.16 140.67 106.407 140.751 105.712C140.845 105.014 141.05 104.396 141.366 103.859C141.679 103.308 142.106 102.851 142.646 102.487C143.183 102.11 143.825 101.848 144.571 101.702C145.369 101.545 146.089 101.547 146.732 101.706C147.375 101.865 147.932 102.143 148.404 102.54C148.875 102.936 149.264 103.431 149.571 104.023C149.888 104.599 150.115 105.241 150.254 105.947L150.416 106.772L143.605 108.107L143.655 108.362C143.802 109.108 144.129 109.669 144.638 110.045C145.144 110.408 145.809 110.508 146.633 110.346C147.261 110.223 147.746 109.992 148.087 109.654C148.441 109.312 148.735 108.908 148.97 108.441L150.621 109.687C150.317 110.358 149.833 110.935 149.167 111.419C148.511 111.887 147.706 112.215 146.751 112.402ZM144.979 103.578C144.312 103.709 143.826 104.035 143.521 104.557C143.215 105.079 143.132 105.693 143.271 106.4L143.301 106.557L147.501 105.733L147.467 105.556C147.328 104.85 147.04 104.315 146.602 103.953C146.174 103.575 145.634 103.45 144.979 103.578ZM153.507 110.832L151.498 100.588L154.01 100.095L154.426 102.215L154.524 102.195C154.536 101.908 154.582 101.627 154.664 101.353C154.757 101.063 154.895 100.798 155.079 100.558C155.263 100.318 155.494 100.11 155.772 99.9328C156.063 99.7535 156.411 99.624 156.817 99.5445L157.366 99.4367L157.832 101.811L157.047 101.965C156.197 102.132 155.58 102.382 155.197 102.716C154.814 103.049 154.677 103.497 154.788 104.059L156.02 110.34L153.507 110.832ZM168.538 107.885C167.988 107.992 167.519 107.921 167.13 107.671C166.752 107.406 166.471 107.013 166.288 106.492L166.17 106.515C166.131 107.215 165.883 107.787 165.426 108.23C164.967 108.66 164.351 108.95 163.579 109.102C162.533 109.307 161.674 109.19 161.004 108.751C160.333 108.312 159.908 107.634 159.729 106.718C159.521 105.658 159.746 104.799 160.405 104.14C161.061 103.468 162.089 102.994 163.489 102.72L165.236 102.377L165.09 101.631C164.977 101.056 164.739 100.64 164.377 100.385C164.014 100.13 163.499 100.068 162.832 100.199C162.243 100.314 161.791 100.539 161.476 100.873C161.172 101.19 160.93 101.55 160.75 101.952L158.997 100.91C159.261 100.247 159.672 99.6773 160.231 99.2009C160.787 98.7114 161.582 98.3652 162.616 98.1625C164.003 97.8905 165.118 97.9979 165.96 98.4848C166.803 98.9717 167.34 99.8039 167.571 100.982L168.518 105.81L169.539 105.609L169.931 107.611L168.538 107.885ZM164.065 107.111C164.628 107.001 165.081 106.783 165.425 106.457C165.769 106.131 165.893 105.727 165.798 105.242L165.532 103.888L163.923 104.204C162.615 104.46 162.043 105.007 162.207 105.845L162.272 106.179C162.354 106.597 162.547 106.886 162.85 107.044C163.163 107.186 163.568 107.208 164.065 107.111ZM175.087 106.6C174.223 106.769 173.519 106.677 172.974 106.322C172.439 105.951 172.089 105.347 171.925 104.509L170.821 98.8768L169.309 99.1732L168.917 97.1713L169.702 97.0173C170.081 96.9429 170.32 96.8078 170.417 96.6121C170.525 96.4007 170.544 96.1183 170.475 95.7651L170.133 94.0183L172.39 93.5757L172.94 96.3822L175.04 95.9703L175.433 97.9722L173.333 98.3841L174.557 104.625L176.5 104.244L176.892 106.246L175.087 106.6ZM183.339 105.226C182.58 105.375 181.875 105.384 181.225 105.254C180.585 105.107 180.01 104.846 179.502 104.471C179.004 104.079 178.579 103.578 178.229 102.967C177.875 102.344 177.618 101.62 177.456 100.796C177.297 99.9843 177.258 99.2311 177.339 98.5358C177.433 97.838 177.638 97.2203 177.954 96.6828C178.267 96.1322 178.694 95.6749 179.234 95.3108C179.771 94.9337 180.413 94.672 181.159 94.5257C181.957 94.3691 182.677 94.3705 183.32 94.5298C183.963 94.6891 184.52 94.967 184.992 95.3636C185.463 95.7603 185.853 96.2546 186.159 96.8467C186.476 97.4232 186.704 98.0647 186.842 98.7712L187.004 99.5955L180.194 100.931L180.244 101.186C180.39 101.932 180.717 102.493 181.226 102.869C181.732 103.232 182.397 103.332 183.221 103.17C183.849 103.047 184.334 102.816 184.675 102.478C185.029 102.136 185.324 101.732 185.558 101.265L187.209 102.511C186.905 103.181 186.421 103.759 185.755 104.243C185.099 104.711 184.294 105.039 183.339 105.226ZM181.567 96.4021C180.9 96.533 180.414 96.8593 180.109 97.3812C179.803 97.903 179.72 98.5172 179.859 99.2237L179.889 99.3808L184.089 98.557L184.055 98.3804C183.916 97.6738 183.628 97.1393 183.19 96.7768C182.763 96.3987 182.222 96.2738 181.567 96.4021ZM196.119 100.702L196.021 100.721C195.954 101.346 195.699 101.885 195.258 102.338C194.817 102.791 194.257 103.085 193.576 103.218C192.281 103.472 191.195 103.203 190.32 102.41C189.457 101.614 188.857 100.353 188.518 98.626C188.182 96.912 188.264 95.5303 188.765 94.481C189.276 93.416 190.179 92.7565 191.475 92.5024C192.155 92.369 192.785 92.4289 193.364 92.6821C193.941 92.9222 194.379 93.3186 194.678 93.8715L194.776 93.8522L193.606 87.8859L196.118 87.3932L198.966 101.917L196.454 102.409L196.119 100.702ZM193.973 100.98C194.575 100.862 195.05 100.619 195.399 100.252C195.749 99.8845 195.871 99.4326 195.765 98.8962L195.126 95.6382C195.029 95.141 194.748 94.7817 194.283 94.5604C193.818 94.339 193.285 94.2873 192.683 94.4054C192.029 94.5337 191.543 94.86 191.225 95.3844C190.917 95.8932 190.835 96.5139 190.978 97.2466L191.325 99.013C191.468 99.7457 191.779 100.289 192.256 100.644C192.746 100.996 193.319 101.108 193.973 100.98ZM206.659 100.408L203.972 86.7088L212.784 84.9805L213.234 87.2768L207.013 88.497L207.663 91.8138L213.08 90.7514L213.531 93.0476L208.114 94.11L209.249 99.8997L206.659 100.408ZM221.422 97.7569C220.663 97.9057 219.958 97.9148 219.308 97.7843C218.668 97.6381 218.093 97.3771 217.585 97.0013C217.087 96.6098 216.662 96.1088 216.312 95.4982C215.958 94.8745 215.701 94.1505 215.539 93.3262C215.38 92.515 215.341 91.7618 215.422 91.0665C215.516 90.3687 215.721 89.751 216.037 89.2135C216.35 88.663 216.777 88.2056 217.317 87.8416C217.854 87.4644 218.496 87.2027 219.242 87.0564C220.04 86.8999 220.76 86.9013 221.403 87.0605C222.046 87.2198 222.603 87.4978 223.075 87.8944C223.547 88.291 223.936 88.7853 224.242 89.3775C224.559 89.9539 224.787 90.5954 224.925 91.3019L225.087 92.1262L218.277 93.4619L218.327 93.7171C218.473 94.4629 218.8 95.0237 219.309 95.3995C219.815 95.7622 220.48 95.8628 221.304 95.7011C221.932 95.5779 222.417 95.347 222.758 95.0083C223.112 94.6671 223.407 94.2629 223.641 93.7957L225.292 95.0413C224.988 95.7122 224.504 96.2896 223.838 96.7735C223.182 97.2417 222.377 97.5695 221.422 97.7569ZM219.651 88.9328C218.983 89.0637 218.497 89.3901 218.192 89.9119C217.886 90.4337 217.803 91.0479 217.942 91.7545L217.972 91.9115L222.172 91.0877L222.138 90.9111C221.999 90.2046 221.711 89.6701 221.273 89.3076C220.846 88.9294 220.305 88.8045 219.651 88.9328ZM232.366 95.6104C231.607 95.7593 230.902 95.7684 230.252 95.6379C229.611 95.4917 229.037 95.2307 228.529 94.8548C228.031 94.4634 227.606 93.9623 227.256 93.3517C226.902 92.7281 226.645 92.0041 226.483 91.1798C226.324 90.3686 226.285 89.6154 226.366 88.9201C226.46 88.2223 226.665 87.6046 226.981 87.0671C227.294 86.5165 227.721 86.0592 228.261 85.6951C228.798 85.318 229.44 85.0563 230.186 84.91C230.984 84.7535 231.704 84.7548 232.347 84.9141C232.989 85.0734 233.547 85.3514 234.019 85.748C234.49 86.1446 234.879 86.6389 235.186 87.231C235.503 87.8075 235.73 88.449 235.869 89.1555L236.031 89.9798L229.22 91.3155L229.27 91.5707C229.417 92.3165 229.744 92.8773 230.253 93.2531C230.759 93.6158 231.424 93.7164 232.248 93.5547C232.876 93.4315 233.361 93.2006 233.702 92.8619C234.056 92.5207 234.35 92.1165 234.585 91.6493L236.235 92.8949C235.932 93.5658 235.448 94.1432 234.782 94.6271C234.126 95.0953 233.321 95.4231 232.366 95.6104ZM230.594 86.7864C229.927 86.9173 229.441 87.2436 229.136 87.7655C228.83 88.2873 228.747 88.9015 228.885 89.6081L228.916 89.7651L233.116 88.9413L233.082 88.7647C232.943 88.0581 232.655 87.5236 232.217 87.1611C231.789 86.783 231.249 86.6581 230.594 86.7864ZM245.146 91.0861L245.048 91.1053C244.98 91.73 244.726 92.269 244.285 92.7224C243.844 93.1757 243.283 93.4691 242.603 93.6026C241.308 93.8566 240.222 93.5872 239.347 92.7942C238.484 91.9987 237.883 90.7374 237.545 89.0103C237.209 87.2963 237.291 85.9146 237.792 84.8653C238.303 83.8003 239.206 83.1408 240.501 82.8867C241.182 82.7533 241.812 82.8132 242.391 83.0664C242.968 83.3065 243.406 83.7029 243.705 84.2558L243.803 84.2366L242.633 78.2702L245.145 77.7775L247.993 92.3008L245.481 92.7935L245.146 91.0861ZM243 91.3644C243.602 91.2464 244.077 91.0036 244.426 90.6362C244.775 90.2688 244.897 89.8169 244.792 89.2805L244.153 86.0225C244.056 85.5253 243.775 85.166 243.31 84.9447C242.845 84.7233 242.312 84.6716 241.71 84.7897C241.056 84.918 240.57 85.2443 240.251 85.7687C239.944 86.2775 239.861 86.8982 240.005 87.6309L240.352 89.3973C240.495 90.13 240.806 90.6737 241.283 91.0285C241.773 91.3808 242.346 91.4927 243 91.3644ZM248.042 77.2093L250.554 76.7166L251.724 82.6829L251.803 82.6676C251.87 82.0428 252.126 81.5104 252.57 81.0701C253.011 80.6167 253.571 80.3233 254.252 80.1899C255.56 79.9333 256.645 80.2027 257.508 80.9983C258.381 81.7781 258.986 83.0251 259.322 84.7391C259.661 86.4662 259.574 87.8622 259.063 88.9272C258.565 89.9896 257.662 90.6491 256.353 90.9057C255.673 91.0392 255.043 90.9793 254.463 90.7261C253.897 90.4704 253.458 90.0673 253.146 89.5171L253.068 89.5325L253.402 91.2399L250.89 91.7326L248.042 77.2093ZM255.141 88.9832C255.795 88.8549 256.282 88.5351 256.603 88.0237C256.924 87.5124 257.013 86.8904 256.869 86.1577L256.523 84.3913C256.379 83.6586 256.062 83.1162 255.572 82.764C255.079 82.3986 254.505 82.2801 253.851 82.4085C253.249 82.5265 252.775 82.7758 252.428 83.1563C252.095 83.5342 251.977 83.9717 252.074 84.4689L252.713 87.7269C252.819 88.2633 253.096 88.637 253.545 88.8478C254.007 89.0561 254.539 89.1012 255.141 88.9832ZM270.195 87.9464C269.645 88.0542 269.176 87.9832 268.787 87.7333C268.409 87.4678 268.128 87.0745 267.945 86.5535L267.827 86.5766C267.788 87.2772 267.54 87.849 267.083 88.2918C266.624 88.7215 266.008 89.0121 265.236 89.1635C264.19 89.3688 263.331 89.2519 262.661 88.8127C261.99 88.3735 261.565 87.696 261.386 86.7801C261.178 85.7203 261.403 84.8608 262.062 84.2017C262.718 83.5295 263.746 83.0561 265.146 82.7815L266.893 82.4389L266.747 81.6931C266.634 81.1174 266.396 80.7021 266.034 80.4471C265.671 80.1921 265.156 80.13 264.489 80.2609C263.9 80.3764 263.448 80.6009 263.133 80.9344C262.829 81.2523 262.587 81.6123 262.407 82.0143L260.654 80.9723C260.918 80.3091 261.329 79.7393 261.888 79.2628C262.444 78.7733 263.239 78.4271 264.273 78.2244C265.66 77.9524 266.775 78.0598 267.617 78.5467C268.46 79.0336 268.997 79.8659 269.228 81.0434L270.175 85.8714L271.196 85.6713L271.588 87.6731L270.195 87.9464ZM265.722 87.1728C266.285 87.0624 266.738 86.8445 267.082 86.5189C267.426 86.1933 267.55 85.7885 267.455 85.3043L267.189 83.9501L265.58 84.2658C264.272 84.5224 263.7 85.0694 263.864 85.9068L263.929 86.2404C264.011 86.6591 264.204 86.9475 264.507 87.1055C264.82 87.2479 265.225 87.2703 265.722 87.1728ZM277.71 86.7169C276.952 86.8658 276.253 86.8736 275.616 86.7405C274.978 86.6074 274.411 86.3451 273.913 85.9536C273.428 85.5596 273.016 85.056 272.679 84.4429C272.338 83.8166 272.088 83.0914 271.926 82.2671C271.764 81.4428 271.724 80.683 271.805 79.9877C271.886 79.2925 272.078 78.6774 272.381 78.1424C272.694 77.5919 273.12 77.1345 273.66 76.7705C274.2 76.4064 274.85 76.1499 275.609 76.0011C276.642 75.7984 277.538 75.8605 278.295 76.1876C279.065 76.5121 279.68 77.0504 280.14 77.8026L278.26 79.1292C278.058 78.7206 277.766 78.4109 277.385 78.2003C277.015 77.974 276.555 77.9148 276.005 78.0226C275.299 78.1612 274.812 78.4875 274.546 79.0017C274.293 79.5132 274.238 80.1288 274.379 80.8485L274.744 82.7129C274.886 83.4326 275.17 83.9814 275.597 84.3596C276.035 84.7221 276.607 84.834 277.314 84.6954C277.916 84.5774 278.351 84.3358 278.619 83.9708C278.884 83.5926 279.064 83.1566 279.157 82.6627L281.261 83.2079C281.098 84.1774 280.715 84.9591 280.111 85.5531C279.505 86.134 278.705 86.5219 277.71 86.7169ZM280.835 70.7776L283.347 70.2849L285.064 79.0381L285.162 79.0188L286.154 76.9084L287.935 73.8281L290.781 73.27L288.026 77.9273L293.163 83.4417L290.18 84.0268L286.649 79.9501L285.584 81.6876L286.196 84.8082L283.684 85.3009L280.835 70.7776ZM297.915 82.7543C296.933 82.9467 296.077 82.9449 295.345 82.7486C294.611 82.5393 293.932 82.1903 293.306 81.7016L294.544 79.9098C295.008 80.2671 295.487 80.5265 295.981 80.6878C296.487 80.8466 297.035 80.8683 297.624 80.7528C298.226 80.6348 298.637 80.4454 298.858 80.1847C299.091 79.9215 299.172 79.6067 299.1 79.2403C299.041 78.9394 298.897 78.7231 298.668 78.5915C298.448 78.4443 298.103 78.3829 297.633 78.4073L296.585 78.47C295.445 78.5442 294.533 78.397 293.849 78.0284C293.176 77.6441 292.747 76.981 292.562 76.0389C292.465 75.5417 292.469 75.0789 292.575 74.6504C292.679 74.2089 292.874 73.8174 293.16 73.4759C293.444 73.1213 293.807 72.8259 294.25 72.5896C294.703 72.3376 295.224 72.1539 295.813 72.0384C296.31 71.9409 296.756 71.8942 297.151 71.8983C297.556 71.8867 297.93 71.9221 298.272 72.0044C298.612 72.0737 298.933 72.1873 299.236 72.3454C299.536 72.4903 299.835 72.6627 300.132 72.8625L298.949 74.6232C298.586 74.3682 298.175 74.1771 297.716 74.0498C297.256 73.9226 296.777 73.9078 296.28 74.0053C295.731 74.1131 295.351 74.2895 295.141 74.5345C294.944 74.7769 294.876 75.0552 294.938 75.3692C295.004 75.7094 295.154 75.9518 295.386 76.0965C295.629 76.2255 296 76.2818 296.499 76.2654L297.566 76.1987C299.839 76.0791 301.142 76.8697 301.476 78.5706C301.573 79.0678 301.559 79.5463 301.431 80.006C301.315 80.4501 301.103 80.8586 300.795 81.2314C300.485 81.5911 300.086 81.9073 299.596 82.18C299.116 82.4371 298.556 82.6285 297.915 82.7543Z" fill="white"/>
</g>
<rect x="61" y="93.3086" width="251" height="54" rx="15" transform="rotate(-11.0966 61 93.3086)" stroke="white" stroke-width="3"/>
<g filter="url(#filter0_d_10811_163342)">
<path d="M270 -31C270 -31.5523 269.552 -32 269 -32C268.448 -32 268 -31.5523 268 -31L270 -31ZM269 54.6667C266.054 54.6667 263.667 57.0545 263.667 60C263.667 62.9455 266.054 65.3333 269 65.3333C271.946 65.3333 274.333 62.9455 274.333 60C274.333 57.0545 271.946 54.6667 269 54.6667ZM268 -31L268 60L270 60L270 -31L268 -31Z" fill="white"/>
</g>
<g filter="url(#filter1_d_10811_163342)">
<path d="M98 -31C98 -31.5523 97.5523 -32 97 -32C96.4477 -32 96 -31.5523 96 -31L98 -31ZM97 90.6667C94.0545 90.6667 91.6667 93.0545 91.6667 96C91.6667 98.9455 94.0545 101.333 97 101.333C99.9455 101.333 102.333 98.9455 102.333 96C102.333 93.0545 99.9455 90.6667 97 90.6667ZM96 -31L96 96L98 96L98 -31L96 -31Z" fill="white"/>
</g>
</g>
<defs>
<filter id="filter0_d_10811_163342" x="261.664" y="-32" width="14.6719" height="102.334" filterUnits="userSpaceOnUse" color-interpolation-filters="sRGB">
<feFlood flood-opacity="0" result="BackgroundImageFix"/>
<feColorMatrix in="SourceAlpha" type="matrix" values="0 0 0 0 0 0 0 0 0 0 0 0 0 0 0 0 0 0 127 0" result="hardAlpha"/>
<feOffset dy="3"/>
<feGaussianBlur stdDeviation="1"/>
<feComposite in2="hardAlpha" operator="out"/>
<feColorMatrix type="matrix" values="0 0 0 0 0.185275 0 0 0 0 0.185275 0 0 0 0 0.185275 0 0 0 0.8 0"/>
<feBlend mode="normal" in2="BackgroundImageFix" result="effect1_dropShadow_10811_163342"/>
<feBlend mode="normal" in="SourceGraphic" in2="effect1_dropShadow_10811_163342" result="shape"/>
</filter>
<filter id="filter1_d_10811_163342" x="89.6641" y="-32" width="14.6719" height="138.334" filterUnits="userSpaceOnUse" color-interpolation-filters="sRGB">
<feFlood flood-opacity="0" result="BackgroundImageFix"/>
<feColorMatrix in="SourceAlpha" type="matrix" values="0 0 0 0 0 0 0 0 0 0 0 0 0 0 0 0 0 0 127 0" result="hardAlpha"/>
<feOffset dy="3"/>
<feGaussianBlur stdDeviation="1"/>
<feComposite in2="hardAlpha" operator="out"/>
<feColorMatrix type="matrix" values="0 0 0 0 0.185275 0 0 0 0 0.185275 0 0 0 0 0.185275 0 0 0 0.8 0"/>
<feBlend mode="normal" in2="BackgroundImageFix" result="effect1_dropShadow_10811_163342"/>
<feBlend mode="normal" in="SourceGraphic" in2="effect1_dropShadow_10811_163342" result="shape"/>
</filter>
<linearGradient id="paint0_linear_10811_163342" x1="2.9141" y1="246.594" x2="7.21916" y2="331.309" gradientUnits="userSpaceOnUse">
<stop stop-color="#3A86FF"/>
<stop offset="1" stop-color="#1C28AA"/>
</linearGradient>
<linearGradient id="paint1_linear_10811_163342" x1="54.6563" y1="140.594" x2="58.9613" y2="225.309" gradientUnits="userSpaceOnUse">
<stop stop-color="#3A86FF"/>
<stop offset="1" stop-color="#1C28AA"/>
</linearGradient>
<linearGradient id="paint2_linear_10811_163342" x1="16.2705" y1="87.9022" x2="20.6097" y2="172.614" gradientUnits="userSpaceOnUse">
<stop stop-color="#3A86FF"/>
<stop offset="1" stop-color="#1C28AA"/>
</linearGradient>
<clipPath id="clip0_10811_163342">
<rect x="61" y="93.3086" width="251" height="54" rx="15" transform="rotate(-11.0966 61 93.3086)" fill="white"/>
</clipPath>
</defs>
</svg>
