<svg width="56" height="52" viewBox="0 0 56 52" fill="none" xmlns="http://www.w3.org/2000/svg">
<path d="M0 19.32C0 12.4861 0 9.06917 1.35104 6.46831C2.48955 4.27659 4.27659 2.48955 6.46831 1.35104C9.06917 0 12.4861 0 19.32 0H36.68C43.5139 0 46.9308 0 49.5317 1.35104C51.7234 2.48955 53.5105 4.27659 54.649 6.46831C56 9.06917 56 12.4861 56 19.32V32.68C56 39.5139 56 42.9308 54.649 45.5317C53.5105 47.7234 51.7234 49.5105 49.5317 50.649C46.9308 52 43.5139 52 36.68 52H19.32C12.4861 52 9.06917 52 6.46831 50.649C4.27659 49.5105 2.48955 47.7234 1.35104 45.5317C0 42.9308 0 39.5139 0 32.68V19.32Z" fill="url(#paint0_linear_9995_61197)"/>
<path d="M32.1654 15.9993C34.4666 15.9993 36.332 14.1339 36.332 11.8327C36.332 9.5315 34.4666 7.66602 32.1654 7.66602C29.8642 7.66602 27.9987 9.5315 27.9987 11.8327C27.9987 12.4992 28.1552 13.1292 28.4335 13.6879C28.5074 13.8363 28.532 14.006 28.4892 14.1663L28.241 15.0938C28.1333 15.4964 28.5016 15.8648 28.9043 15.7571L29.8318 15.5089C29.992 15.466 30.1617 15.4906 30.3102 15.5646C30.8688 15.8428 31.4988 15.9993 32.1654 15.9993Z" fill="white"/>
<path d="M24.6993 12.0968L25.2401 13.0659C25.7282 13.9405 25.5323 15.0878 24.7636 15.8565C24.7636 15.8565 24.7636 15.8565 24.7636 15.8565C24.7634 15.8566 23.8312 16.7891 25.5217 18.4796C27.2116 20.1694 28.144 19.2386 28.1448 19.2377C28.1448 19.2377 28.1448 19.2377 28.1448 19.2377C28.9136 18.469 30.0608 18.2731 30.9354 18.7612L31.9045 19.302C33.2251 20.039 33.3811 21.891 32.2203 23.0518C31.5228 23.7493 30.6683 24.2921 29.7237 24.3279C28.1336 24.3882 25.4332 23.9857 22.7244 21.2769C20.0156 18.5681 19.6131 15.8677 19.6734 14.2776C19.7092 13.333 20.252 12.4785 20.9495 11.781C22.1103 10.6202 23.9623 10.7762 24.6993 12.0968Z" fill="white"/>
<path d="M9.468 43.144C8.788 43.144 8.208 43.016 7.728 42.76C7.248 42.496 6.84 42.136 6.504 41.68L7.248 41.056C7.544 41.448 7.872 41.748 8.232 41.956C8.592 42.156 9.016 42.256 9.504 42.256C10.104 42.256 10.56 42.112 10.872 41.824C11.192 41.536 11.352 41.152 11.352 40.672C11.352 40.272 11.232 39.964 10.992 39.748C10.752 39.532 10.356 39.36 9.804 39.232L9.12 39.076C8.352 38.9 7.764 38.636 7.356 38.284C6.956 37.924 6.756 37.42 6.756 36.772C6.756 36.404 6.824 36.076 6.96 35.788C7.096 35.5 7.284 35.26 7.524 35.068C7.772 34.876 8.064 34.732 8.4 34.636C8.744 34.532 9.12 34.48 9.528 34.48C10.16 34.48 10.7 34.596 11.148 34.828C11.604 35.06 11.988 35.4 12.3 35.848L11.544 36.4C11.312 36.08 11.032 35.828 10.704 35.644C10.376 35.46 9.968 35.368 9.48 35.368C8.944 35.368 8.52 35.484 8.208 35.716C7.904 35.94 7.752 36.28 7.752 36.736C7.752 37.136 7.88 37.44 8.136 37.648C8.4 37.848 8.796 38.008 9.324 38.128L10.008 38.284C10.832 38.468 11.428 38.748 11.796 39.124C12.164 39.5 12.348 40 12.348 40.624C12.348 41.008 12.28 41.356 12.144 41.668C12.016 41.98 11.828 42.244 11.58 42.46C11.332 42.676 11.028 42.844 10.668 42.964C10.316 43.084 9.916 43.144 9.468 43.144ZM17.8087 41.992H17.7607C17.6967 42.136 17.6167 42.28 17.5207 42.424C17.4327 42.56 17.3207 42.684 17.1847 42.796C17.0487 42.9 16.8847 42.984 16.6927 43.048C16.5007 43.112 16.2767 43.144 16.0207 43.144C15.3807 43.144 14.8727 42.94 14.4967 42.532C14.1207 42.116 13.9327 41.532 13.9327 40.78V36.808H14.8927V40.612C14.8927 41.724 15.3647 42.28 16.3087 42.28C16.5007 42.28 16.6847 42.256 16.8607 42.208C17.0447 42.16 17.2047 42.088 17.3407 41.992C17.4847 41.896 17.5967 41.776 17.6767 41.632C17.7647 41.48 17.8087 41.3 17.8087 41.092V36.808H18.7687V43H17.8087V41.992ZM20.813 36.808H21.773V37.816H21.821C21.981 37.424 22.213 37.136 22.517 36.952C22.829 36.76 23.201 36.664 23.633 36.664C24.017 36.664 24.365 36.74 24.677 36.892C24.989 37.044 25.253 37.26 25.469 37.54C25.693 37.82 25.861 38.16 25.973 38.56C26.093 38.96 26.153 39.408 26.153 39.904C26.153 40.4 26.093 40.848 25.973 41.248C25.861 41.648 25.693 41.988 25.469 42.268C25.253 42.548 24.989 42.764 24.677 42.916C24.365 43.068 24.017 43.144 23.633 43.144C22.793 43.144 22.189 42.76 21.821 41.992H21.773V45.4H20.813V36.808ZM23.369 42.28C23.913 42.28 24.341 42.112 24.653 41.776C24.965 41.432 25.121 40.984 25.121 40.432V39.376C25.121 38.824 24.965 38.38 24.653 38.044C24.341 37.7 23.913 37.528 23.369 37.528C23.153 37.528 22.945 37.56 22.745 37.624C22.553 37.68 22.385 37.76 22.241 37.864C22.097 37.968 21.981 38.096 21.893 38.248C21.813 38.392 21.773 38.548 21.773 38.716V41.02C21.773 41.22 21.813 41.4 21.893 41.56C21.981 41.712 22.097 41.844 22.241 41.956C22.385 42.06 22.553 42.14 22.745 42.196C22.945 42.252 23.153 42.28 23.369 42.28ZM27.7739 36.808H28.7339V37.816H28.7819C28.9419 37.424 29.1739 37.136 29.4779 36.952C29.7899 36.76 30.1619 36.664 30.5939 36.664C30.9779 36.664 31.3259 36.74 31.6379 36.892C31.9499 37.044 32.2139 37.26 32.4299 37.54C32.6539 37.82 32.8219 38.16 32.9339 38.56C33.0539 38.96 33.1139 39.408 33.1139 39.904C33.1139 40.4 33.0539 40.848 32.9339 41.248C32.8219 41.648 32.6539 41.988 32.4299 42.268C32.2139 42.548 31.9499 42.764 31.6379 42.916C31.3259 43.068 30.9779 43.144 30.5939 43.144C29.7539 43.144 29.1499 42.76 28.7819 41.992H28.7339V45.4H27.7739V36.808ZM30.3299 42.28C30.8739 42.28 31.3019 42.112 31.6139 41.776C31.9259 41.432 32.0819 40.984 32.0819 40.432V39.376C32.0819 38.824 31.9259 38.38 31.6139 38.044C31.3019 37.7 30.8739 37.528 30.3299 37.528C30.1139 37.528 29.9059 37.56 29.7059 37.624C29.5139 37.68 29.3459 37.76 29.2019 37.864C29.0579 37.968 28.9419 38.096 28.8539 38.248C28.7739 38.392 28.7339 38.548 28.7339 38.716V41.02C28.7339 41.22 28.7739 41.4 28.8539 41.56C28.9419 41.712 29.0579 41.844 29.2019 41.956C29.3459 42.06 29.5139 42.14 29.7059 42.196C29.9059 42.252 30.1139 42.28 30.3299 42.28ZM37.0748 43.144C36.6588 43.144 36.2788 43.068 35.9348 42.916C35.5908 42.764 35.2948 42.548 35.0468 42.268C34.8068 41.98 34.6188 41.64 34.4828 41.248C34.3468 40.848 34.2788 40.4 34.2788 39.904C34.2788 39.416 34.3468 38.972 34.4828 38.572C34.6188 38.172 34.8068 37.832 35.0468 37.552C35.2948 37.264 35.5908 37.044 35.9348 36.892C36.2788 36.74 36.6588 36.664 37.0748 36.664C37.4908 36.664 37.8668 36.74 38.2028 36.892C38.5468 37.044 38.8428 37.264 39.0908 37.552C39.3388 37.832 39.5308 38.172 39.6668 38.572C39.8028 38.972 39.8708 39.416 39.8708 39.904C39.8708 40.4 39.8028 40.848 39.6668 41.248C39.5308 41.64 39.3388 41.98 39.0908 42.268C38.8428 42.548 38.5468 42.764 38.2028 42.916C37.8668 43.068 37.4908 43.144 37.0748 43.144ZM37.0748 42.292C37.5948 42.292 38.0188 42.132 38.3468 41.812C38.6748 41.492 38.8388 41.004 38.8388 40.348V39.46C38.8388 38.804 38.6748 38.316 38.3468 37.996C38.0188 37.676 37.5948 37.516 37.0748 37.516C36.5548 37.516 36.1308 37.676 35.8028 37.996C35.4748 38.316 35.3108 38.804 35.3108 39.46V40.348C35.3108 41.004 35.4748 41.492 35.8028 41.812C36.1308 42.132 36.5548 42.292 37.0748 42.292ZM41.4497 43V36.808H42.4097V37.948H42.4697C42.5817 37.652 42.7817 37.388 43.0697 37.156C43.3577 36.924 43.7537 36.808 44.2577 36.808H44.6297V37.768H44.0657C43.5457 37.768 43.1377 37.868 42.8417 38.068C42.5537 38.26 42.4097 38.504 42.4097 38.8V43H41.4497ZM47.2708 43C46.9348 43 46.6788 42.908 46.5028 42.724C46.3348 42.532 46.2508 42.284 46.2508 41.98V37.648H45.2308V36.808H45.8068C46.0148 36.808 46.1548 36.768 46.2268 36.688C46.3068 36.6 46.3468 36.452 46.3468 36.244V35.092H47.2108V36.808H48.5668V37.648H47.2108V42.16H48.4708V43H47.2708Z" fill="white"/>
<defs>
<linearGradient id="paint0_linear_9995_61197" x1="-9.97949" y1="-5.20616" x2="7.26007" y2="72.7712" gradientUnits="userSpaceOnUse">
<stop stop-color="#3A86FF"/>
<stop offset="1" stop-color="#1C28AA"/>
</linearGradient>
</defs>
</svg>
