<svg width="60" height="52" viewBox="0 0 60 52" fill="none" xmlns="http://www.w3.org/2000/svg">
<rect width="60" height="52" rx="12" fill="url(#paint0_linear_9995_61197)"/>
<circle cx="30.4974" cy="10.9993" r="3.33333" fill="white"/>
<path d="M37.1693 20.584C37.1693 22.6551 37.1693 24.334 30.5026 24.334C23.8359 24.334 23.8359 22.6551 23.8359 20.584C23.8359 18.5129 26.8207 16.834 30.5026 16.834C34.1845 16.834 37.1693 18.5129 37.1693 20.584Z" fill="white"/>
<path d="M14.36 43L13.52 40.528H10.136L9.296 43H8.276L11.204 34.624H12.488L15.416 43H14.36ZM11.852 35.56H11.792L10.376 39.64H13.268L11.852 35.56ZM19.0115 43.144C18.5795 43.144 18.1915 43.068 17.8475 42.916C17.5035 42.764 17.2115 42.548 16.9715 42.268C16.7395 41.988 16.5595 41.648 16.4315 41.248C16.3115 40.848 16.2515 40.4 16.2515 39.904C16.2515 39.408 16.3115 38.96 16.4315 38.56C16.5595 38.16 16.7395 37.82 16.9715 37.54C17.2115 37.26 17.5035 37.044 17.8475 36.892C18.1915 36.74 18.5795 36.664 19.0115 36.664C19.6275 36.664 20.1195 36.8 20.4875 37.072C20.8635 37.336 21.1435 37.684 21.3275 38.116L20.5235 38.524C20.4115 38.204 20.2275 37.956 19.9715 37.78C19.7155 37.604 19.3955 37.516 19.0115 37.516C18.7235 37.516 18.4715 37.564 18.2555 37.66C18.0395 37.748 17.8595 37.876 17.7155 38.044C17.5715 38.204 17.4635 38.4 17.3915 38.632C17.3195 38.856 17.2835 39.104 17.2835 39.376V40.432C17.2835 40.976 17.4275 41.424 17.7155 41.776C18.0115 42.12 18.4435 42.292 19.0115 42.292C19.7875 42.292 20.3475 41.932 20.6915 41.212L21.3875 41.68C21.1875 42.128 20.8875 42.484 20.4875 42.748C20.0955 43.012 19.6035 43.144 19.0115 43.144ZM24.9763 43.144C24.5443 43.144 24.1563 43.068 23.8123 42.916C23.4683 42.764 23.1763 42.548 22.9363 42.268C22.7043 41.988 22.5243 41.648 22.3963 41.248C22.2763 40.848 22.2163 40.4 22.2163 39.904C22.2163 39.408 22.2763 38.96 22.3963 38.56C22.5243 38.16 22.7043 37.82 22.9363 37.54C23.1763 37.26 23.4683 37.044 23.8123 36.892C24.1563 36.74 24.5443 36.664 24.9763 36.664C25.5923 36.664 26.0843 36.8 26.4523 37.072C26.8283 37.336 27.1083 37.684 27.2923 38.116L26.4883 38.524C26.3763 38.204 26.1923 37.956 25.9363 37.78C25.6803 37.604 25.3603 37.516 24.9763 37.516C24.6883 37.516 24.4363 37.564 24.2203 37.66C24.0043 37.748 23.8243 37.876 23.6803 38.044C23.5363 38.204 23.4283 38.4 23.3563 38.632C23.2843 38.856 23.2483 39.104 23.2483 39.376V40.432C23.2483 40.976 23.3923 41.424 23.6803 41.776C23.9763 42.12 24.4083 42.292 24.9763 42.292C25.7523 42.292 26.3123 41.932 26.6563 41.212L27.3523 41.68C27.1523 42.128 26.8523 42.484 26.4523 42.748C26.0603 43.012 25.5683 43.144 24.9763 43.144ZM30.9772 43.144C30.5612 43.144 30.1812 43.068 29.8372 42.916C29.4932 42.764 29.1972 42.548 28.9492 42.268C28.7092 41.98 28.5212 41.64 28.3852 41.248C28.2492 40.848 28.1812 40.4 28.1812 39.904C28.1812 39.416 28.2492 38.972 28.3852 38.572C28.5212 38.172 28.7092 37.832 28.9492 37.552C29.1972 37.264 29.4932 37.044 29.8372 36.892C30.1812 36.74 30.5612 36.664 30.9772 36.664C31.3932 36.664 31.7692 36.74 32.1052 36.892C32.4492 37.044 32.7452 37.264 32.9932 37.552C33.2412 37.832 33.4332 38.172 33.5692 38.572C33.7052 38.972 33.7732 39.416 33.7732 39.904C33.7732 40.4 33.7052 40.848 33.5692 41.248C33.4332 41.64 33.2412 41.98 32.9932 42.268C32.7452 42.548 32.4492 42.764 32.1052 42.916C31.7692 43.068 31.3932 43.144 30.9772 43.144ZM30.9772 42.292C31.4972 42.292 31.9212 42.132 32.2492 41.812C32.5772 41.492 32.7412 41.004 32.7412 40.348V39.46C32.7412 38.804 32.5772 38.316 32.2492 37.996C31.9212 37.676 31.4972 37.516 30.9772 37.516C30.4572 37.516 30.0332 37.676 29.7052 37.996C29.3772 38.316 29.2132 38.804 29.2132 39.46V40.348C29.2132 41.004 29.3772 41.492 29.7052 41.812C30.0332 42.132 30.4572 42.292 30.9772 42.292ZM39.168 41.992H39.12C39.056 42.136 38.976 42.28 38.88 42.424C38.792 42.56 38.68 42.684 38.544 42.796C38.408 42.9 38.244 42.984 38.052 43.048C37.86 43.112 37.636 43.144 37.38 43.144C36.74 43.144 36.232 42.94 35.856 42.532C35.48 42.116 35.292 41.532 35.292 40.78V36.808H36.252V40.612C36.252 41.724 36.724 42.28 37.668 42.28C37.86 42.28 38.044 42.256 38.22 42.208C38.404 42.16 38.564 42.088 38.7 41.992C38.844 41.896 38.956 41.776 39.036 41.632C39.124 41.48 39.168 41.3 39.168 41.092V36.808H40.128V43H39.168V41.992ZM42.1723 43V36.808H43.1323V37.816H43.1803C43.3323 37.464 43.5443 37.184 43.8163 36.976C44.0963 36.768 44.4683 36.664 44.9323 36.664C45.5723 36.664 46.0763 36.872 46.4443 37.288C46.8203 37.696 47.0083 38.276 47.0083 39.028V43H46.0483V39.196C46.0483 38.084 45.5803 37.528 44.6443 37.528C44.4523 37.528 44.2643 37.552 44.0803 37.6C43.9043 37.648 43.7443 37.72 43.6003 37.816C43.4563 37.912 43.3403 38.036 43.2523 38.188C43.1723 38.332 43.1323 38.504 43.1323 38.704V43H42.1723ZM50.3607 43C50.0247 43 49.7687 42.908 49.5927 42.724C49.4247 42.532 49.3407 42.284 49.3407 41.98V37.648H48.3207V36.808H48.8967C49.1047 36.808 49.2447 36.768 49.3167 36.688C49.3967 36.6 49.4367 36.452 49.4367 36.244V35.092H50.3007V36.808H51.6567V37.648H50.3007V42.16H51.5607V43H50.3607Z" fill="white"/>
<defs>
<linearGradient id="paint0_linear_9995_61197" x1="-10.6923" y1="-5.20616" x2="5.49517" y2="73.2424" gradientUnits="userSpaceOnUse">
<stop stop-color="#3A86FF"/>
<stop offset="1" stop-color="#1C28AA"/>
</linearGradient>
</defs>
</svg>
