<svg width="75" height="52" viewBox="0 0 75 52" fill="none" xmlns="http://www.w3.org/2000/svg">
<rect width="75" height="52" rx="12" fill="url(#paint0_linear_9995_61197)"/>
<path fill-rule="evenodd" clip-rule="evenodd" d="M30.4763 8.64233C29.5 9.61864 29.5 11.19 29.5 14.3327V17.666C29.5 20.8087 29.5 22.3801 30.4763 23.3564C31.4526 24.3327 33.024 24.3327 36.1667 24.3327H37.8333C40.976 24.3327 42.5474 24.3327 43.5237 23.3564C44.5 22.3801 44.5 20.8087 44.5 17.666V14.3327C44.5 11.19 44.5 9.61864 43.5237 8.64233C42.5474 7.66602 40.976 7.66602 37.8333 7.66602H36.1667C33.024 7.66602 31.4526 7.66602 30.4763 8.64233ZM33.6667 13.7077C33.3215 13.7077 33.0417 13.9875 33.0417 14.3327C33.0417 14.6779 33.3215 14.9577 33.6667 14.9577H40.3333C40.6785 14.9577 40.9583 14.6779 40.9583 14.3327C40.9583 13.9875 40.6785 13.7077 40.3333 13.7077H33.6667ZM33.6667 17.041C33.3215 17.041 33.0417 17.3208 33.0417 17.666C33.0417 18.0112 33.3215 18.291 33.6667 18.291H37.8333C38.1785 18.291 38.4583 18.0112 38.4583 17.666C38.4583 17.3208 38.1785 17.041 37.8333 17.041H33.6667Z" fill="white"/>
<path d="M12.144 37.888L11.136 36.028H11.1V43H10.116V34.624H11.28L14.34 39.736L15.348 41.596H15.384V34.624H16.368V43H15.204L12.144 37.888ZM23.0044 43C22.6444 43 22.3844 42.904 22.2244 42.712C22.0724 42.52 21.9764 42.28 21.9364 41.992H21.8764C21.7404 42.376 21.5164 42.664 21.2044 42.856C20.8924 43.048 20.5204 43.144 20.0884 43.144C19.4324 43.144 18.9204 42.976 18.5524 42.64C18.1924 42.304 18.0124 41.848 18.0124 41.272C18.0124 40.688 18.2244 40.24 18.6484 39.928C19.0804 39.616 19.7484 39.46 20.6524 39.46H21.8764V38.848C21.8764 38.408 21.7564 38.072 21.5164 37.84C21.2764 37.608 20.9084 37.492 20.4124 37.492C20.0364 37.492 19.7204 37.576 19.4644 37.744C19.2164 37.912 19.0084 38.136 18.8404 38.416L18.2644 37.876C18.4324 37.54 18.7004 37.256 19.0684 37.024C19.4364 36.784 19.9004 36.664 20.4604 36.664C21.2124 36.664 21.7964 36.848 22.2124 37.216C22.6284 37.584 22.8364 38.096 22.8364 38.752V42.16H23.5444V43H23.0044ZM20.2444 42.328C20.4844 42.328 20.7044 42.3 20.9044 42.244C21.1044 42.188 21.2764 42.108 21.4204 42.004C21.5644 41.9 21.6764 41.78 21.7564 41.644C21.8364 41.508 21.8764 41.36 21.8764 41.2V40.18H20.6044C20.0524 40.18 19.6484 40.26 19.3924 40.42C19.1444 40.58 19.0204 40.812 19.0204 41.116V41.368C19.0204 41.672 19.1284 41.908 19.3444 42.076C19.5684 42.244 19.8684 42.328 20.2444 42.328ZM24.9145 43V36.808H25.8745V37.948H25.9345C26.0465 37.652 26.2465 37.388 26.5345 37.156C26.8225 36.924 27.2185 36.808 27.7225 36.808H28.0945V37.768H27.5305C27.0105 37.768 26.6025 37.868 26.3065 38.068C26.0185 38.26 25.8745 38.504 25.8745 38.8V43H24.9145ZM29.3208 43V36.808H30.2808V37.948H30.3408C30.4528 37.652 30.6528 37.388 30.9408 37.156C31.2288 36.924 31.6248 36.808 32.1288 36.808H32.5008V37.768H31.9368C31.4168 37.768 31.0088 37.868 30.7128 38.068C30.4248 38.26 30.2808 38.504 30.2808 38.8V43H29.3208ZM38.1802 43C37.8202 43 37.5602 42.904 37.4002 42.712C37.2482 42.52 37.1522 42.28 37.1122 41.992H37.0522C36.9162 42.376 36.6922 42.664 36.3802 42.856C36.0682 43.048 35.6962 43.144 35.2642 43.144C34.6082 43.144 34.0962 42.976 33.7282 42.64C33.3682 42.304 33.1882 41.848 33.1882 41.272C33.1882 40.688 33.4002 40.24 33.8242 39.928C34.2562 39.616 34.9242 39.46 35.8282 39.46H37.0522V38.848C37.0522 38.408 36.9322 38.072 36.6922 37.84C36.4522 37.608 36.0842 37.492 35.5882 37.492C35.2122 37.492 34.8962 37.576 34.6402 37.744C34.3922 37.912 34.1842 38.136 34.0162 38.416L33.4402 37.876C33.6082 37.54 33.8762 37.256 34.2442 37.024C34.6122 36.784 35.0762 36.664 35.6362 36.664C36.3882 36.664 36.9722 36.848 37.3882 37.216C37.8042 37.584 38.0122 38.096 38.0122 38.752V42.16H38.7202V43H38.1802ZM35.4202 42.328C35.6602 42.328 35.8802 42.3 36.0802 42.244C36.2802 42.188 36.4522 42.108 36.5962 42.004C36.7402 41.9 36.8522 41.78 36.9322 41.644C37.0122 41.508 37.0522 41.36 37.0522 41.2V40.18H35.7802C35.2282 40.18 34.8242 40.26 34.5682 40.42C34.3202 40.58 34.1962 40.812 34.1962 41.116V41.368C34.1962 41.672 34.3042 41.908 34.5202 42.076C34.7442 42.244 35.0442 42.328 35.4202 42.328ZM41.4583 43C41.1223 43 40.8663 42.908 40.6903 42.724C40.5223 42.532 40.4383 42.284 40.4383 41.98V37.648H39.4183V36.808H39.9943C40.2023 36.808 40.3423 36.768 40.4143 36.688C40.4943 36.6 40.5343 36.452 40.5343 36.244V35.092H41.3983V36.808H42.7543V37.648H41.3983V42.16H42.6583V43H41.4583ZM44.7773 35.356C44.5693 35.356 44.4173 35.308 44.3213 35.212C44.2333 35.108 44.1893 34.976 44.1893 34.816V34.66C44.1893 34.5 44.2333 34.372 44.3213 34.276C44.4173 34.172 44.5693 34.12 44.7773 34.12C44.9853 34.12 45.1333 34.172 45.2213 34.276C45.3173 34.372 45.3653 34.5 45.3653 34.66V34.816C45.3653 34.976 45.3173 35.108 45.2213 35.212C45.1333 35.308 44.9853 35.356 44.7773 35.356ZM44.2973 36.808H45.2573V43H44.2973V36.808ZM48.6653 43L46.4933 36.808H47.4533L48.5333 39.88L49.2053 41.992H49.2653L49.9373 39.88L51.0413 36.808H51.9653L49.7813 43H48.6653ZM55.4378 43.144C55.0138 43.144 54.6298 43.068 54.2858 42.916C53.9498 42.764 53.6578 42.548 53.4098 42.268C53.1698 41.98 52.9818 41.64 52.8458 41.248C52.7178 40.848 52.6538 40.4 52.6538 39.904C52.6538 39.416 52.7178 38.972 52.8458 38.572C52.9818 38.172 53.1698 37.832 53.4098 37.552C53.6578 37.264 53.9498 37.044 54.2858 36.892C54.6298 36.74 55.0138 36.664 55.4378 36.664C55.8538 36.664 56.2258 36.74 56.5538 36.892C56.8818 37.044 57.1618 37.256 57.3938 37.528C57.6258 37.792 57.8018 38.108 57.9218 38.476C58.0498 38.844 58.1138 39.248 58.1138 39.688V40.144H53.6618V40.432C53.6618 40.696 53.7018 40.944 53.7818 41.176C53.8698 41.4 53.9898 41.596 54.1418 41.764C54.3018 41.932 54.4938 42.064 54.7178 42.16C54.9498 42.256 55.2098 42.304 55.4978 42.304C55.8898 42.304 56.2298 42.212 56.5178 42.028C56.8138 41.844 57.0418 41.58 57.2018 41.236L57.8858 41.728C57.6858 42.152 57.3738 42.496 56.9498 42.76C56.5258 43.016 56.0218 43.144 55.4378 43.144ZM55.4378 37.468C55.1738 37.468 54.9338 37.516 54.7178 37.612C54.5018 37.7 54.3138 37.828 54.1538 37.996C54.0018 38.164 53.8818 38.364 53.7938 38.596C53.7058 38.82 53.6618 39.068 53.6618 39.34V39.424H57.0818V39.292C57.0818 38.74 56.9298 38.3 56.6258 37.972C56.3298 37.636 55.9338 37.468 55.4378 37.468ZM61.5558 43.144C60.9798 43.144 60.4958 43.036 60.1038 42.82C59.7198 42.596 59.3878 42.3 59.1078 41.932L59.7918 41.38C60.0318 41.684 60.2998 41.92 60.5958 42.088C60.8918 42.248 61.2358 42.328 61.6278 42.328C62.0358 42.328 62.3518 42.24 62.5758 42.064C62.8078 41.888 62.9238 41.64 62.9238 41.32C62.9238 41.08 62.8438 40.876 62.6838 40.708C62.5318 40.532 62.2518 40.412 61.8438 40.348L61.3518 40.276C61.0638 40.236 60.7998 40.176 60.5598 40.096C60.3198 40.008 60.1078 39.896 59.9238 39.76C59.7478 39.616 59.6078 39.44 59.5038 39.232C59.4078 39.024 59.3598 38.776 59.3598 38.488C59.3598 38.184 59.4158 37.92 59.5278 37.696C59.6398 37.464 59.7918 37.272 59.9838 37.12C60.1838 36.968 60.4198 36.856 60.6918 36.784C60.9638 36.704 61.2558 36.664 61.5678 36.664C62.0718 36.664 62.4918 36.752 62.8278 36.928C63.1718 37.104 63.4718 37.348 63.7278 37.66L63.0918 38.236C62.9558 38.044 62.7558 37.872 62.4918 37.72C62.2278 37.56 61.8958 37.48 61.4958 37.48C61.0958 37.48 60.7918 37.568 60.5838 37.744C60.3838 37.912 60.2838 38.144 60.2838 38.44C60.2838 38.744 60.3838 38.964 60.5838 39.1C60.7918 39.236 61.0878 39.336 61.4718 39.4L61.9518 39.472C62.6398 39.576 63.1278 39.776 63.4158 40.072C63.7038 40.36 63.8478 40.74 63.8478 41.212C63.8478 41.812 63.6438 42.284 63.2358 42.628C62.8278 42.972 62.2678 43.144 61.5558 43.144Z" fill="white"/>
<defs>
<linearGradient id="paint0_linear_9995_61197" x1="-13.3654" y1="-5.20616" x2="-0.222166" y2="74.4129" gradientUnits="userSpaceOnUse">
<stop stop-color="#3A86FF"/>
<stop offset="1" stop-color="#1C28AA"/>
</linearGradient>
</defs>
</svg>
