<svg width="56" height="52" viewBox="0 0 56 52" fill="none" xmlns="http://www.w3.org/2000/svg">
<rect width="56" height="52" rx="12" fill="url(#paint0_linear_9995_61197)"/>
<path d="M20.1641 11.1748C20.1641 9.52074 20.1641 8.69371 20.7132 8.17986C21.2624 7.66602 22.1463 7.66602 23.9141 7.66602C25.6818 7.66602 26.5657 7.66602 27.1149 8.17986C27.6641 8.69371 27.6641 9.52074 27.6641 11.1748V20.8239C27.6641 22.478 27.6641 23.305 27.1149 23.8188C26.5657 24.3327 25.6818 24.3327 23.9141 24.3327C22.1463 24.3327 21.2624 24.3327 20.7132 23.8188C20.1641 23.305 20.1641 22.478 20.1641 20.8239V11.1748Z" fill="white"/>
<path d="M29.3359 18.8327C29.3359 17.1042 29.3359 16.24 29.8851 15.703C30.4343 15.166 31.3182 15.166 33.0859 15.166C34.8537 15.166 35.7376 15.166 36.2868 15.703C36.8359 16.24 36.8359 17.1042 36.8359 18.8327V20.666C36.8359 22.3945 36.8359 23.2587 36.2868 23.7957C35.7376 24.3327 34.8537 24.3327 33.0859 24.3327C31.3182 24.3327 30.4343 24.3327 29.8851 23.7957C29.3359 23.2587 29.3359 22.3945 29.3359 20.666V18.8327Z" fill="white"/>
<path d="M29.3359 10.5827C29.3359 9.67668 29.3359 9.22369 29.4787 8.86635C29.669 8.38991 30.034 8.01138 30.4934 7.81403C30.838 7.66602 31.2748 7.66602 32.1484 7.66602H34.0234C34.8971 7.66602 35.3339 7.66602 35.6785 7.81403C36.1379 8.01138 36.5029 8.38991 36.6932 8.86635C36.8359 9.22369 36.8359 9.67668 36.8359 10.5827C36.8359 11.4887 36.8359 11.9417 36.6932 12.299C36.5029 12.7755 36.1379 13.154 35.6785 13.3513C35.3339 13.4993 34.8971 13.4993 34.0234 13.4993H32.1484C31.2748 13.4993 30.838 13.4993 30.4934 13.3513C30.034 13.154 29.669 12.7755 29.4787 12.299C29.3359 11.9417 29.3359 11.4887 29.3359 10.5827Z" fill="white"/>
<path d="M18.36 39.208H14.124V43H13.116V34.624H14.124V38.32H18.36V34.624H19.368V43H18.36V39.208ZM23.8444 43.144C23.4284 43.144 23.0484 43.068 22.7044 42.916C22.3604 42.764 22.0644 42.548 21.8164 42.268C21.5764 41.98 21.3884 41.64 21.2524 41.248C21.1164 40.848 21.0484 40.4 21.0484 39.904C21.0484 39.416 21.1164 38.972 21.2524 38.572C21.3884 38.172 21.5764 37.832 21.8164 37.552C22.0644 37.264 22.3604 37.044 22.7044 36.892C23.0484 36.74 23.4284 36.664 23.8444 36.664C24.2604 36.664 24.6364 36.74 24.9724 36.892C25.3164 37.044 25.6124 37.264 25.8604 37.552C26.1084 37.832 26.3004 38.172 26.4364 38.572C26.5724 38.972 26.6404 39.416 26.6404 39.904C26.6404 40.4 26.5724 40.848 26.4364 41.248C26.3004 41.64 26.1084 41.98 25.8604 42.268C25.6124 42.548 25.3164 42.764 24.9724 42.916C24.6364 43.068 24.2604 43.144 23.8444 43.144ZM23.8444 42.292C24.3644 42.292 24.7884 42.132 25.1164 41.812C25.4444 41.492 25.6084 41.004 25.6084 40.348V39.46C25.6084 38.804 25.4444 38.316 25.1164 37.996C24.7884 37.676 24.3644 37.516 23.8444 37.516C23.3244 37.516 22.9004 37.676 22.5724 37.996C22.2444 38.316 22.0804 38.804 22.0804 39.46V40.348C22.0804 41.004 22.2444 41.492 22.5724 41.812C22.9004 42.132 23.3244 42.292 23.8444 42.292ZM28.2192 43V36.808H29.1792V37.816H29.2272C29.2992 37.656 29.3792 37.508 29.4672 37.372C29.5632 37.228 29.6752 37.104 29.8032 37C29.9392 36.896 30.0952 36.816 30.2712 36.76C30.4472 36.696 30.6552 36.664 30.8952 36.664C31.3032 36.664 31.6792 36.764 32.0232 36.964C32.3672 37.156 32.6232 37.476 32.7912 37.924H32.8152C32.9272 37.588 33.1352 37.296 33.4392 37.048C33.7512 36.792 34.1712 36.664 34.6992 36.664C35.3312 36.664 35.8232 36.872 36.1752 37.288C36.5352 37.696 36.7152 38.276 36.7152 39.028V43H35.7552V39.196C35.7552 38.644 35.6472 38.228 35.4312 37.948C35.2152 37.668 34.8712 37.528 34.3992 37.528C34.2072 37.528 34.0232 37.552 33.8472 37.6C33.6792 37.648 33.5272 37.72 33.3912 37.816C33.2552 37.912 33.1472 38.036 33.0672 38.188C32.9872 38.332 32.9472 38.504 32.9472 38.704V43H31.9872V39.196C31.9872 38.644 31.8792 38.228 31.6632 37.948C31.4472 37.668 31.1112 37.528 30.6552 37.528C30.4632 37.528 30.2792 37.552 30.1032 37.6C29.9272 37.648 29.7712 37.72 29.6352 37.816C29.4992 37.912 29.3872 38.036 29.2992 38.188C29.2192 38.332 29.1792 38.504 29.1792 38.704V43H28.2192ZM41.0238 43.144C40.5998 43.144 40.2158 43.068 39.8718 42.916C39.5358 42.764 39.2438 42.548 38.9958 42.268C38.7558 41.98 38.5678 41.64 38.4318 41.248C38.3038 40.848 38.2398 40.4 38.2398 39.904C38.2398 39.416 38.3038 38.972 38.4318 38.572C38.5678 38.172 38.7558 37.832 38.9958 37.552C39.2438 37.264 39.5358 37.044 39.8718 36.892C40.2158 36.74 40.5998 36.664 41.0238 36.664C41.4398 36.664 41.8118 36.74 42.1398 36.892C42.4678 37.044 42.7478 37.256 42.9798 37.528C43.2118 37.792 43.3878 38.108 43.5078 38.476C43.6358 38.844 43.6998 39.248 43.6998 39.688V40.144H39.2478V40.432C39.2478 40.696 39.2878 40.944 39.3678 41.176C39.4558 41.4 39.5758 41.596 39.7278 41.764C39.8878 41.932 40.0798 42.064 40.3038 42.16C40.5358 42.256 40.7958 42.304 41.0838 42.304C41.4758 42.304 41.8158 42.212 42.1038 42.028C42.3998 41.844 42.6278 41.58 42.7878 41.236L43.4718 41.728C43.2718 42.152 42.9598 42.496 42.5358 42.76C42.1118 43.016 41.6078 43.144 41.0238 43.144ZM41.0238 37.468C40.7598 37.468 40.5198 37.516 40.3038 37.612C40.0878 37.7 39.8998 37.828 39.7398 37.996C39.5878 38.164 39.4678 38.364 39.3798 38.596C39.2918 38.82 39.2478 39.068 39.2478 39.34V39.424H42.6678V39.292C42.6678 38.74 42.5158 38.3 42.2118 37.972C41.9158 37.636 41.5198 37.468 41.0238 37.468Z" fill="white"/>
<defs>
<linearGradient id="paint0_linear_9995_61197" x1="-9.97949" y1="-5.20616" x2="7.26007" y2="72.7712" gradientUnits="userSpaceOnUse">
<stop stop-color="#3A86FF"/>
<stop offset="1" stop-color="#1C28AA"/>
</linearGradient>
</defs>
</svg>
