<svg width="56" height="52" viewBox="0 0 56 52" fill="none" xmlns="http://www.w3.org/2000/svg">
<path d="M0 19.32C0 12.4861 0 9.06917 1.35104 6.46831C2.48955 4.27659 4.27659 2.48955 6.46831 1.35104C9.06917 0 12.4861 0 19.32 0H36.68C43.5139 0 46.9308 0 49.5317 1.35104C51.7234 2.48955 53.5105 4.27659 54.649 6.46831C56 9.06917 56 12.4861 56 19.32V32.68C56 39.5139 56 42.9308 54.649 45.5317C53.5105 47.7234 51.7234 49.5105 49.5317 50.649C46.9308 52 43.5139 52 36.68 52H19.32C12.4861 52 9.06917 52 6.46831 50.649C4.27659 49.5105 2.48955 47.7234 1.35104 45.5317C0 42.9308 0 39.5139 0 32.68V19.32Z" fill="url(#paint0_linear_9995_61197)"/>
<path fill-rule="evenodd" clip-rule="evenodd" d="M21.9763 8.64233C21 9.61864 21 11.19 21 14.3327V17.666C21 20.8087 21 22.3801 21.9763 23.3564C22.9526 24.3327 24.524 24.3327 27.6667 24.3327H29.3333C32.476 24.3327 34.0474 24.3327 35.0237 23.3564C36 22.3801 36 20.8087 36 17.666V14.3327C36 11.19 36 9.61864 35.0237 8.64233C34.0474 7.66602 32.476 7.66602 29.3333 7.66602H27.6667C24.524 7.66602 22.9526 7.66602 21.9763 8.64233ZM29.125 10.9993C29.125 10.6542 28.8452 10.3743 28.5 10.3743C28.1548 10.3743 27.875 10.6542 27.875 10.9993V12.041H26.8333C26.4881 12.041 26.2083 12.3208 26.2083 12.666C26.2083 13.0112 26.4881 13.291 26.8333 13.291H27.875L27.875 14.3327C27.875 14.6779 28.1548 14.9577 28.5 14.9577C28.8452 14.9577 29.125 14.6779 29.125 14.3327V13.291H30.1666C30.5118 13.291 30.7916 13.0112 30.7916 12.666C30.7916 12.3208 30.5118 12.041 30.1666 12.041H29.125V10.9993ZM25.1667 17.041C24.8215 17.041 24.5417 17.3208 24.5417 17.666C24.5417 18.0112 24.8215 18.291 25.1667 18.291H31.8333C32.1785 18.291 32.4583 18.0112 32.4583 17.666C32.4583 17.3208 32.1785 17.041 31.8333 17.041H25.1667ZM26 20.3743C25.6548 20.3743 25.375 20.6542 25.375 20.9993C25.375 21.3445 25.6548 21.6243 26 21.6243H31C31.3452 21.6243 31.625 21.3445 31.625 20.9993C31.625 20.6542 31.3452 20.3743 31 20.3743H26Z" fill="white"/>
<path d="M15.644 35.944H15.584L14.876 37.348L12.872 40.996L10.868 37.348L10.16 35.944H10.1V43H9.116V34.624H10.46L12.86 39.136H12.92L15.332 34.624H16.628V43H15.644V35.944ZM21.0863 43.144C20.6623 43.144 20.2783 43.068 19.9343 42.916C19.5983 42.764 19.3063 42.548 19.0583 42.268C18.8183 41.98 18.6303 41.64 18.4943 41.248C18.3663 40.848 18.3023 40.4 18.3023 39.904C18.3023 39.416 18.3663 38.972 18.4943 38.572C18.6303 38.172 18.8183 37.832 19.0583 37.552C19.3063 37.264 19.5983 37.044 19.9343 36.892C20.2783 36.74 20.6623 36.664 21.0863 36.664C21.5023 36.664 21.8743 36.74 22.2023 36.892C22.5303 37.044 22.8103 37.256 23.0423 37.528C23.2743 37.792 23.4503 38.108 23.5703 38.476C23.6983 38.844 23.7623 39.248 23.7623 39.688V40.144H19.3103V40.432C19.3103 40.696 19.3503 40.944 19.4303 41.176C19.5183 41.4 19.6383 41.596 19.7903 41.764C19.9503 41.932 20.1423 42.064 20.3663 42.16C20.5983 42.256 20.8583 42.304 21.1463 42.304C21.5383 42.304 21.8783 42.212 22.1663 42.028C22.4623 41.844 22.6903 41.58 22.8503 41.236L23.5343 41.728C23.3343 42.152 23.0223 42.496 22.5983 42.76C22.1743 43.016 21.6703 43.144 21.0863 43.144ZM21.0863 37.468C20.8223 37.468 20.5823 37.516 20.3663 37.612C20.1503 37.7 19.9623 37.828 19.8023 37.996C19.6503 38.164 19.5303 38.364 19.4423 38.596C19.3543 38.82 19.3103 39.068 19.3103 39.34V39.424H22.7303V39.292C22.7303 38.74 22.5783 38.3 22.2743 37.972C21.9783 37.636 21.5823 37.468 21.0863 37.468ZM25.3442 43V36.808H26.3042V37.948H26.3642C26.4762 37.652 26.6762 37.388 26.9642 37.156C27.2522 36.924 27.6482 36.808 28.1522 36.808H28.5242V37.768H27.9602C27.4402 37.768 27.0322 37.868 26.7362 38.068C26.4482 38.26 26.3042 38.504 26.3042 38.8V43H25.3442ZM34.6892 43.684C34.6892 44.324 34.4372 44.792 33.9332 45.088C33.4372 45.392 32.6892 45.544 31.6892 45.544C30.7212 45.544 30.0252 45.412 29.6012 45.148C29.1772 44.884 28.9652 44.508 28.9652 44.02C28.9652 43.684 29.0532 43.42 29.2292 43.228C29.4052 43.044 29.6452 42.908 29.9492 42.82V42.688C29.5812 42.512 29.3972 42.224 29.3972 41.824C29.3972 41.512 29.4972 41.276 29.6972 41.116C29.8972 40.948 30.1532 40.824 30.4652 40.744V40.696C30.0972 40.52 29.8092 40.268 29.6012 39.94C29.4012 39.612 29.3012 39.232 29.3012 38.8C29.3012 38.488 29.3572 38.2 29.4692 37.936C29.5812 37.672 29.7372 37.448 29.9372 37.264C30.1452 37.072 30.3892 36.924 30.6692 36.82C30.9572 36.716 31.2772 36.664 31.6292 36.664C32.0692 36.664 32.4612 36.744 32.8052 36.904V36.796C32.8052 36.556 32.8612 36.36 32.9732 36.208C33.0852 36.048 33.2692 35.968 33.5252 35.968H34.4492V36.808H33.2732V37.204C33.4972 37.396 33.6692 37.628 33.7892 37.9C33.9172 38.164 33.9812 38.464 33.9812 38.8C33.9812 39.112 33.9252 39.4 33.8132 39.664C33.7012 39.928 33.5412 40.156 33.3332 40.348C33.1332 40.532 32.8892 40.676 32.6012 40.78C32.3132 40.884 31.9932 40.936 31.6412 40.936C31.4412 40.936 31.2412 40.916 31.0412 40.876C30.8332 40.932 30.6452 41.016 30.4772 41.128C30.3092 41.232 30.2252 41.38 30.2252 41.572C30.2252 41.756 30.3132 41.88 30.4892 41.944C30.6652 42.008 30.8932 42.04 31.1732 42.04H32.4932C33.2612 42.04 33.8172 42.188 34.1612 42.484C34.5132 42.772 34.6892 43.172 34.6892 43.684ZM33.7892 43.756C33.7892 43.508 33.6932 43.308 33.5012 43.156C33.3172 43.012 32.9852 42.94 32.5052 42.94H30.4412C30.0572 43.116 29.8652 43.396 29.8652 43.78C29.8652 44.052 29.9652 44.284 30.1652 44.476C30.3732 44.668 30.7212 44.764 31.2092 44.764H32.0972C32.6332 44.764 33.0492 44.68 33.3452 44.512C33.6412 44.344 33.7892 44.092 33.7892 43.756ZM31.6412 40.168C32.0492 40.168 32.3732 40.072 32.6132 39.88C32.8532 39.68 32.9732 39.376 32.9732 38.968V38.632C32.9732 38.224 32.8532 37.924 32.6132 37.732C32.3732 37.532 32.0492 37.432 31.6412 37.432C31.2332 37.432 30.9092 37.532 30.6692 37.732C30.4292 37.924 30.3092 38.224 30.3092 38.632V38.968C30.3092 39.376 30.4292 39.68 30.6692 39.88C30.9092 40.072 31.2332 40.168 31.6412 40.168ZM38.0668 43.144C37.6428 43.144 37.2588 43.068 36.9148 42.916C36.5788 42.764 36.2868 42.548 36.0388 42.268C35.7988 41.98 35.6108 41.64 35.4748 41.248C35.3468 40.848 35.2828 40.4 35.2828 39.904C35.2828 39.416 35.3468 38.972 35.4748 38.572C35.6108 38.172 35.7988 37.832 36.0388 37.552C36.2868 37.264 36.5788 37.044 36.9148 36.892C37.2588 36.74 37.6428 36.664 38.0668 36.664C38.4828 36.664 38.8548 36.74 39.1828 36.892C39.5108 37.044 39.7908 37.256 40.0228 37.528C40.2548 37.792 40.4308 38.108 40.5508 38.476C40.6788 38.844 40.7428 39.248 40.7428 39.688V40.144H36.2908V40.432C36.2908 40.696 36.3308 40.944 36.4108 41.176C36.4988 41.4 36.6188 41.596 36.7708 41.764C36.9308 41.932 37.1228 42.064 37.3468 42.16C37.5788 42.256 37.8388 42.304 38.1268 42.304C38.5188 42.304 38.8588 42.212 39.1468 42.028C39.4428 41.844 39.6708 41.58 39.8308 41.236L40.5148 41.728C40.3148 42.152 40.0028 42.496 39.5788 42.76C39.1548 43.016 38.6508 43.144 38.0668 43.144ZM38.0668 37.468C37.8028 37.468 37.5628 37.516 37.3468 37.612C37.1308 37.7 36.9428 37.828 36.7828 37.996C36.6308 38.164 36.5108 38.364 36.4228 38.596C36.3348 38.82 36.2908 39.068 36.2908 39.34V39.424H39.7108V39.292C39.7108 38.74 39.5588 38.3 39.2548 37.972C38.9588 37.636 38.5628 37.468 38.0668 37.468ZM46.2847 41.992H46.2367C45.8607 42.76 45.2567 43.144 44.4247 43.144C44.0407 43.144 43.6927 43.068 43.3807 42.916C43.0687 42.764 42.8007 42.548 42.5767 42.268C42.3607 41.988 42.1927 41.648 42.0727 41.248C41.9607 40.848 41.9047 40.4 41.9047 39.904C41.9047 39.408 41.9607 38.96 42.0727 38.56C42.1927 38.16 42.3607 37.82 42.5767 37.54C42.8007 37.26 43.0687 37.044 43.3807 36.892C43.6927 36.74 44.0407 36.664 44.4247 36.664C44.8567 36.664 45.2247 36.76 45.5287 36.952C45.8407 37.136 46.0767 37.424 46.2367 37.816H46.2847V34.12H47.2447V43H46.2847V41.992ZM44.6887 42.28C44.9047 42.28 45.1087 42.252 45.3007 42.196C45.5007 42.14 45.6727 42.06 45.8167 41.956C45.9607 41.844 46.0727 41.712 46.1527 41.56C46.2407 41.4 46.2847 41.22 46.2847 41.02V38.716C46.2847 38.548 46.2407 38.392 46.1527 38.248C46.0727 38.096 45.9607 37.968 45.8167 37.864C45.6727 37.76 45.5007 37.68 45.3007 37.624C45.1087 37.56 44.9047 37.528 44.6887 37.528C44.1447 37.528 43.7167 37.7 43.4047 38.044C43.0927 38.38 42.9367 38.824 42.9367 39.376V40.432C42.9367 40.984 43.0927 41.432 43.4047 41.776C43.7167 42.112 44.1447 42.28 44.6887 42.28Z" fill="white"/>
<defs>
<linearGradient id="paint0_linear_9995_61197" x1="-9.97949" y1="-5.20616" x2="7.26007" y2="72.7712" gradientUnits="userSpaceOnUse">
<stop stop-color="#3A86FF"/>
<stop offset="1" stop-color="#1C28AA"/>
</linearGradient>
</defs>
</svg>
