<svg width="56" height="52" viewBox="0 0 56 52" fill="none" xmlns="http://www.w3.org/2000/svg">
<rect width="56" height="52" rx="12" fill="url(#paint0_linear_9995_61197)"/>
<path fill-rule="evenodd" clip-rule="evenodd" d="M27.288 23.9391L27.4964 23.5871C27.8304 23.0229 27.9973 22.7407 28.2633 22.5834C28.5293 22.4261 28.8763 22.415 29.5702 22.3928C30.2209 22.372 30.6582 22.3152 31.0321 22.1603C31.8194 21.8342 32.4448 21.2087 32.7709 20.4215C33.0155 19.8311 33.0155 19.0826 33.0155 17.5856V16.943C33.0155 14.8396 33.0155 13.7879 32.542 13.0153C32.2771 12.583 31.9136 12.2195 31.4813 11.9546C30.7087 11.4811 29.657 11.4811 27.5536 11.4811H25.6259C23.5225 11.4811 22.4708 11.4811 21.6982 11.9546C21.2659 12.2195 20.9024 12.583 20.6375 13.0153C20.1641 13.7879 20.1641 14.8396 20.1641 16.943V17.5856C20.1641 19.0826 20.1641 19.8311 20.4086 20.4215C20.7347 21.2087 21.3602 21.8342 22.1474 22.1603C22.5213 22.3152 22.9586 22.372 23.6093 22.3928C24.3032 22.415 24.6502 22.4261 24.9162 22.5834C25.1822 22.7407 25.3491 23.0229 25.6831 23.5871L25.8915 23.9391C26.202 24.4637 26.9775 24.4637 27.288 23.9391ZM29.401 17.9068C29.8446 17.9068 30.2042 17.5472 30.2042 17.1036C30.2042 16.66 29.8446 16.3004 29.401 16.3004C28.9574 16.3004 28.5978 16.66 28.5978 17.1036C28.5978 17.5472 28.9574 17.9068 29.401 17.9068ZM27.393 17.1036C27.393 17.5472 27.0334 17.9068 26.5898 17.9068C26.1462 17.9068 25.7866 17.5472 25.7866 17.1036C25.7866 16.66 26.1462 16.3004 26.5898 16.3004C27.0334 16.3004 27.393 16.66 27.393 17.1036ZM23.7785 17.9068C24.2221 17.9068 24.5817 17.5472 24.5817 17.1036C24.5817 16.66 24.2221 16.3004 23.7785 16.3004C23.3349 16.3004 22.9753 16.66 22.9753 17.1036C22.9753 17.5472 23.3349 17.9068 23.7785 17.9068Z" fill="white"/>
<path d="M31.1388 7.66602C32.0985 7.66601 32.8617 7.666 33.4738 7.7242C34.1015 7.78388 34.6321 7.90896 35.1048 8.19864C35.5912 8.49668 36.0001 8.90559 36.2981 9.39193C36.5878 9.86465 36.7129 10.3953 36.7725 11.0229C36.8307 11.635 36.8307 12.3983 36.8307 13.358V14.0135C36.8307 14.6966 36.8307 15.2399 36.8007 15.6804C36.7699 16.1311 36.7057 16.5182 36.5556 16.8806C36.1887 17.7662 35.4851 18.4699 34.5995 18.8367C34.5773 18.8459 34.5551 18.8547 34.5327 18.8633C34.4258 18.9042 34.3342 18.9392 34.2538 18.9653C34.2655 18.5746 34.2655 18.1296 34.2655 17.6274V16.8838C34.2655 15.8825 34.2655 15.0437 34.2007 14.3618C34.1328 13.6478 33.9851 12.9779 33.6078 12.3621C33.2398 11.7616 32.735 11.2568 32.1345 10.8888C31.5187 10.5115 30.8488 10.3638 30.1349 10.2959C29.4529 10.2311 28.6141 10.2311 27.6128 10.2311H25.5668C24.8867 10.2311 24.2816 10.2311 23.7497 10.2514C23.7745 10.1655 23.8084 10.0671 23.8483 9.95155C23.9161 9.75504 24.0017 9.56919 24.1103 9.39193C24.4084 8.90559 24.8173 8.49668 25.3036 8.19864C25.7763 7.90896 26.307 7.78388 26.9346 7.7242C27.5467 7.666 28.3099 7.66601 29.2697 7.66602H31.1388Z" fill="white"/>
<path d="M12.116 43V34.624H17.108V35.512H13.124V38.32H16.76V39.208H13.124V43H12.116ZM20.7584 43.144C20.3424 43.144 19.9624 43.068 19.6184 42.916C19.2744 42.764 18.9784 42.548 18.7304 42.268C18.4904 41.98 18.3024 41.64 18.1664 41.248C18.0304 40.848 17.9624 40.4 17.9624 39.904C17.9624 39.416 18.0304 38.972 18.1664 38.572C18.3024 38.172 18.4904 37.832 18.7304 37.552C18.9784 37.264 19.2744 37.044 19.6184 36.892C19.9624 36.74 20.3424 36.664 20.7584 36.664C21.1744 36.664 21.5504 36.74 21.8864 36.892C22.2304 37.044 22.5264 37.264 22.7744 37.552C23.0224 37.832 23.2144 38.172 23.3504 38.572C23.4864 38.972 23.5544 39.416 23.5544 39.904C23.5544 40.4 23.4864 40.848 23.3504 41.248C23.2144 41.64 23.0224 41.98 22.7744 42.268C22.5264 42.548 22.2304 42.764 21.8864 42.916C21.5504 43.068 21.1744 43.144 20.7584 43.144ZM20.7584 42.292C21.2784 42.292 21.7024 42.132 22.0304 41.812C22.3584 41.492 22.5224 41.004 22.5224 40.348V39.46C22.5224 38.804 22.3584 38.316 22.0304 37.996C21.7024 37.676 21.2784 37.516 20.7584 37.516C20.2384 37.516 19.8144 37.676 19.4864 37.996C19.1584 38.316 18.9944 38.804 18.9944 39.46V40.348C18.9944 41.004 19.1584 41.492 19.4864 41.812C19.8144 42.132 20.2384 42.292 20.7584 42.292ZM25.1333 43V36.808H26.0933V37.948H26.1533C26.2653 37.652 26.4653 37.388 26.7533 37.156C27.0413 36.924 27.4373 36.808 27.9413 36.808H28.3133V37.768H27.7493C27.2293 37.768 26.8213 37.868 26.5253 38.068C26.2373 38.26 26.0933 38.504 26.0933 38.8V43H25.1333ZM33.3555 41.992H33.3075C33.2435 42.136 33.1635 42.28 33.0675 42.424C32.9795 42.56 32.8675 42.684 32.7315 42.796C32.5955 42.9 32.4315 42.984 32.2395 43.048C32.0475 43.112 31.8235 43.144 31.5675 43.144C30.9275 43.144 30.4195 42.94 30.0435 42.532C29.6675 42.116 29.4795 41.532 29.4795 40.78V36.808H30.4395V40.612C30.4395 41.724 30.9115 42.28 31.8555 42.28C32.0475 42.28 32.2315 42.256 32.4075 42.208C32.5915 42.16 32.7515 42.088 32.8875 41.992C33.0315 41.896 33.1435 41.776 33.2235 41.632C33.3115 41.48 33.3555 41.3 33.3555 41.092V36.808H34.3155V43H33.3555V41.992ZM36.3598 43V36.808H37.3198V37.816H37.3678C37.4398 37.656 37.5198 37.508 37.6078 37.372C37.7038 37.228 37.8158 37.104 37.9438 37C38.0798 36.896 38.2358 36.816 38.4118 36.76C38.5878 36.696 38.7958 36.664 39.0358 36.664C39.4438 36.664 39.8198 36.764 40.1638 36.964C40.5078 37.156 40.7638 37.476 40.9318 37.924H40.9558C41.0678 37.588 41.2758 37.296 41.5798 37.048C41.8918 36.792 42.3118 36.664 42.8398 36.664C43.4718 36.664 43.9638 36.872 44.3158 37.288C44.6758 37.696 44.8558 38.276 44.8558 39.028V43H43.8958V39.196C43.8958 38.644 43.7878 38.228 43.5718 37.948C43.3558 37.668 43.0118 37.528 42.5398 37.528C42.3478 37.528 42.1638 37.552 41.9878 37.6C41.8198 37.648 41.6678 37.72 41.5318 37.816C41.3958 37.912 41.2878 38.036 41.2078 38.188C41.1278 38.332 41.0878 38.504 41.0878 38.704V43H40.1278V39.196C40.1278 38.644 40.0198 38.228 39.8038 37.948C39.5878 37.668 39.2518 37.528 38.7958 37.528C38.6038 37.528 38.4198 37.552 38.2438 37.6C38.0678 37.648 37.9118 37.72 37.7758 37.816C37.6398 37.912 37.5278 38.036 37.4398 38.188C37.3598 38.332 37.3198 38.504 37.3198 38.704V43H36.3598Z" fill="white"/>
<defs>
<linearGradient id="paint0_linear_9995_61197" x1="-9.97949" y1="-5.20616" x2="7.26007" y2="72.7712" gradientUnits="userSpaceOnUse">
<stop stop-color="#3A86FF"/>
<stop offset="1" stop-color="#1C28AA"/>
</linearGradient>
</defs>
</svg>
