<svg width="37" height="36" viewBox="0 0 37 36" fill="none" xmlns="http://www.w3.org/2000/svg">
<path d="M25.2783 24.752C25.5408 24.5472 25.7789 24.3091 26.2551 23.833L32.1912 17.8969C32.3347 17.7534 32.269 17.5062 32.0773 17.4396C31.3766 17.1966 30.4651 16.7401 29.6125 15.8875C28.7599 15.0349 28.3035 14.1234 28.0604 13.4227C27.9938 13.231 27.7466 13.1653 27.6031 13.3088L21.667 19.2449C21.1909 19.7211 20.9528 19.9592 20.748 20.2217C20.5065 20.5313 20.2994 20.8664 20.1305 21.2209C19.9873 21.5214 19.8808 21.8408 19.6678 22.4797L19.3927 23.3051L18.9552 24.6177L18.5449 25.8484C18.4401 26.1628 18.5219 26.5094 18.7563 26.7437C18.9906 26.9781 19.3372 27.0599 19.6516 26.9551L20.8823 26.5448L22.1949 26.1073L23.0203 25.8322L23.0203 25.8322C23.6592 25.6192 23.9786 25.5127 24.2791 25.3695C24.6336 25.2006 24.9687 24.9935 25.2783 24.752Z" fill="#3A86FF"/>
<path d="M34.0498 16.0383C35.3167 14.7713 35.3167 12.7172 34.0498 11.4502C32.7828 10.1833 30.7287 10.1833 29.4617 11.4502L29.2709 11.6411C29.0867 11.8252 29.0033 12.0824 29.0493 12.3388C29.0782 12.5 29.1319 12.7358 29.2295 13.0171C29.4247 13.5797 29.7933 14.3182 30.4875 15.0125C31.1818 15.7067 31.9203 16.0753 32.4829 16.2705C32.7642 16.3681 33 16.4218 33.1612 16.4507C33.4176 16.4967 33.6748 16.4133 33.8589 16.2291L34.0498 16.0383Z" fill="#3A86FF"/>
<path fill-rule="evenodd" clip-rule="evenodd" d="M6.75736 4.75736C5 6.51472 5 9.34315 5 15V21C5 26.6569 5 29.4853 6.75736 31.2426C8.51472 33 11.3431 33 17 33H20C25.6569 33 28.4853 33 30.2426 31.2426C31.9718 29.5135 31.9995 26.7473 32 21.2701L27.7726 25.4976C27.3679 25.9025 27.0365 26.2342 26.6622 26.5261C26.2237 26.8681 25.7492 27.1614 25.2472 27.4006C24.8187 27.6049 24.3738 27.753 23.8307 27.9338L20.3631 29.0896C19.2403 29.4639 18.0023 29.1717 17.1653 28.3347C16.3284 27.4978 16.0362 26.2598 16.4104 25.1369L16.8207 23.9062L17.5334 21.7682L17.5662 21.6695C17.7471 21.1263 17.8952 20.6814 18.0994 20.2529C18.3387 19.7509 18.6319 19.2764 18.974 18.8379C19.2659 18.4636 19.5976 18.1321 20.0025 17.7275L26.0122 11.7178L27.68 10.0501L27.8708 9.85923C28.9439 8.78612 30.3505 8.24971 31.7569 8.25C31.53 6.70418 31.0912 5.60591 30.2426 4.75736C28.4853 3 25.6569 3 20 3H17C11.3431 3 8.51472 3 6.75736 4.75736ZM11.375 13.5C11.375 12.8787 11.8787 12.375 12.5 12.375H22.25C22.8713 12.375 23.375 12.8787 23.375 13.5C23.375 14.1213 22.8713 14.625 22.25 14.625H12.5C11.8787 14.625 11.375 14.1213 11.375 13.5ZM11.375 19.5C11.375 18.8787 11.8787 18.375 12.5 18.375H16.25C16.8713 18.375 17.375 18.8787 17.375 19.5C17.375 20.1213 16.8713 20.625 16.25 20.625H12.5C11.8787 20.625 11.375 20.1213 11.375 19.5ZM11.375 25.5C11.375 24.8787 11.8787 24.375 12.5 24.375H14.75C15.3713 24.375 15.875 24.8787 15.875 25.5C15.875 26.1213 15.3713 26.625 14.75 26.625H12.5C11.8787 26.625 11.375 26.1213 11.375 25.5Z" fill="#3A86FF"/>
</svg>
