<svg width="37" height="37" viewBox="0 0 37 37" fill="none" xmlns="http://www.w3.org/2000/svg">
<path d="M25.2783 25.252C25.5408 25.0472 25.7789 24.8091 26.2551 24.333L32.1912 18.3969C32.3347 18.2534 32.269 18.0062 32.0773 17.9396C31.3766 17.6966 30.4651 17.2401 29.6125 16.3875C28.7599 15.5349 28.3035 14.6234 28.0604 13.9227C27.9938 13.731 27.7466 13.6653 27.6031 13.8088L21.667 19.7449C21.1909 20.2211 20.9528 20.4592 20.748 20.7217C20.5065 21.0313 20.2994 21.3664 20.1305 21.7209C19.9873 22.0214 19.8808 22.3408 19.6678 22.9797L19.3927 23.8051L18.9552 25.1177L18.5449 26.3484C18.4401 26.6628 18.5219 27.0094 18.7563 27.2437C18.9906 27.4781 19.3372 27.5599 19.6516 27.4551L20.8823 27.0448L22.1949 26.6073L23.0203 26.3322L23.0203 26.3322C23.6592 26.1192 23.9786 26.0127 24.2791 25.8695C24.6336 25.7006 24.9687 25.4935 25.2783 25.252Z" fill="#3A86FF"/>
<path d="M34.0498 16.5383C35.3167 15.2713 35.3167 13.2172 34.0498 11.9502C32.7828 10.6833 30.7287 10.6833 29.4617 11.9502L29.2709 12.1411C29.0867 12.3252 29.0033 12.5824 29.0493 12.8388C29.0782 13 29.1319 13.2358 29.2295 13.5171C29.4247 14.0797 29.7933 14.8182 30.4875 15.5125C31.1818 16.2067 31.9203 16.5753 32.4829 16.7705C32.7642 16.8681 33 16.9218 33.1612 16.9507C33.4176 16.9967 33.6748 16.9133 33.8589 16.7291L34.0498 16.5383Z" fill="#3A86FF"/>
<path fill-rule="evenodd" clip-rule="evenodd" d="M6.75736 5.25736C5 7.01472 5 9.84315 5 15.5V21.5C5 27.1569 5 29.9853 6.75736 31.7426C8.51472 33.5 11.3431 33.5 17 33.5H20C25.6569 33.5 28.4853 33.5 30.2426 31.7426C31.9718 30.0135 31.9995 27.2473 32 21.7701L27.7726 25.9976C27.3679 26.4025 27.0365 26.7342 26.6622 27.0261C26.2237 27.3681 25.7492 27.6614 25.2472 27.9006C24.8187 28.1049 24.3738 28.253 23.8307 28.4338L20.3631 29.5896C19.2403 29.9639 18.0023 29.6717 17.1653 28.8347C16.3284 27.9978 16.0362 26.7598 16.4104 25.6369L16.8207 24.4062L17.5334 22.2682L17.5662 22.1695C17.7471 21.6263 17.8952 21.1814 18.0994 20.7529C18.3387 20.2509 18.6319 19.7764 18.974 19.3379C19.2659 18.9636 19.5976 18.6321 20.0025 18.2275L26.0122 12.2178L27.68 10.5501L27.8708 10.3592C28.9439 9.28612 30.3505 8.74971 31.7569 8.75C31.53 7.20418 31.0912 6.10591 30.2426 5.25736C28.4853 3.5 25.6569 3.5 20 3.5H17C11.3431 3.5 8.51472 3.5 6.75736 5.25736ZM11.375 14C11.375 13.3787 11.8787 12.875 12.5 12.875H22.25C22.8713 12.875 23.375 13.3787 23.375 14C23.375 14.6213 22.8713 15.125 22.25 15.125H12.5C11.8787 15.125 11.375 14.6213 11.375 14ZM11.375 20C11.375 19.3787 11.8787 18.875 12.5 18.875H16.25C16.8713 18.875 17.375 19.3787 17.375 20C17.375 20.6213 16.8713 21.125 16.25 21.125H12.5C11.8787 21.125 11.375 20.6213 11.375 20ZM11.375 26C11.375 25.3787 11.8787 24.875 12.5 24.875H14.75C15.3713 24.875 15.875 25.3787 15.875 26C15.875 26.6213 15.3713 27.125 14.75 27.125H12.5C11.8787 27.125 11.375 26.6213 11.375 26Z" fill="#3A86FF"/>
</svg>
