<svg width="20" height="21" viewBox="0 0 20 21" fill="none" xmlns="http://www.w3.org/2000/svg">
<path d="M6.95983 17.3676C7.66073 18.2585 8.76182 18.8327 10 18.8327C11.2382 18.8327 12.3393 18.2585 13.0402 17.3676C11.022 17.641 8.97798 17.641 6.95983 17.3676Z" fill="#072C50"/>
<path d="M15.6243 7.99935V8.5861C15.6243 9.29026 15.8252 9.97866 16.2018 10.5646L17.1247 12.0003C17.9676 13.3117 17.3241 15.0943 15.858 15.509C12.0227 16.5939 7.97728 16.5939 4.14197 15.509C2.67587 15.0943 2.03235 13.3117 2.8753 12.0003L3.79816 10.5646C4.17476 9.97866 4.37573 9.29026 4.37573 8.5861V7.99935C4.37573 4.77769 6.8938 2.16602 10 2.16602C13.1062 2.16602 15.6243 4.77769 15.6243 7.99935Z" fill="#072C50"/>
</svg>
