<svg width="20" height="20" viewBox="0 0 20 20" fill="none" xmlns="http://www.w3.org/2000/svg">
<path d="M14.1693 9.99935C16.4705 9.99935 18.3359 8.13387 18.3359 5.83268C18.3359 3.5315 16.4705 1.66602 14.1693 1.66602C11.8681 1.66602 10.0026 3.5315 10.0026 5.83268C10.0026 6.49922 10.1591 7.1292 10.4374 7.68788C10.5113 7.83635 10.5359 8.00604 10.4931 8.16627L10.2449 9.09379C10.1372 9.49643 10.5055 9.86478 10.9082 9.75705L11.8357 9.50888C11.9959 9.46601 12.1656 9.49062 12.3141 9.56457C12.8728 9.84284 13.5027 9.99935 14.1693 9.99935Z" fill="#133759"/>
<path d="M6.69539 6.09681L7.23623 7.06592C7.72432 7.94048 7.52838 9.08777 6.75966 9.8565C6.75965 9.8565 6.75965 9.8565 6.75965 9.8565C6.75954 9.85662 5.82731 10.7891 7.51782 12.4796C9.20768 14.1694 10.1401 13.2386 10.1409 13.2377C10.1409 13.2377 10.1409 13.2377 10.1409 13.2377C10.9097 12.469 12.0569 12.2731 12.9315 12.7612L13.9006 13.302C15.2212 14.039 15.3772 15.891 14.2164 17.0518C13.5189 17.7493 12.6644 18.2921 11.7198 18.3279C10.1297 18.3882 7.42929 17.9857 4.72048 15.2769C2.01167 12.5681 1.60924 9.86769 1.66952 8.27757C1.70533 7.333 2.24806 6.47853 2.94557 5.78103C4.10636 4.62023 5.95837 4.7762 6.69539 6.09681Z" fill="#133759"/>
</svg>
