<svg width="32" height="33" viewBox="0 0 32 33" fill="none" xmlns="http://www.w3.org/2000/svg">
<g opacity="0.5">
<rect width="32" height="32" transform="translate(0 0.5)" fill="white" fill-opacity="0.01"/>
<g clip-path="url(#clip0_10405_138558)">
<rect width="16" height="16" transform="translate(8 8.5)" fill="white" fill-opacity="0.01"/>
<g clip-path="url(#clip1_10405_138558)">
<path d="M8.29279 8.79162C8.48031 8.60415 8.73462 8.49883 8.99979 8.49883C9.26495 8.49883 9.51926 8.60415 9.70679 8.79162L15.9998 15.0846L22.2928 8.79162C22.385 8.69611 22.4954 8.61992 22.6174 8.56751C22.7394 8.51511 22.8706 8.48752 23.0034 8.48637C23.1362 8.48521 23.2678 8.51051 23.3907 8.56079C23.5136 8.61108 23.6253 8.68533 23.7192 8.77922C23.8131 8.87311 23.8873 8.98477 23.9376 9.10766C23.9879 9.23056 24.0132 9.36224 24.012 9.49502C24.0109 9.6278 23.9833 9.75902 23.9309 9.88102C23.8785 10.003 23.8023 10.1134 23.7068 10.2056L17.4138 16.4986L23.7068 22.7916C23.8889 22.9802 23.9897 23.2328 23.9875 23.495C23.9852 23.7572 23.88 24.008 23.6946 24.1934C23.5092 24.3788 23.2584 24.484 22.9962 24.4863C22.734 24.4886 22.4814 24.3878 22.2928 24.2056L15.9998 17.9126L9.70679 24.2056C9.51818 24.3878 9.26558 24.4886 9.00339 24.4863C8.74119 24.484 8.49038 24.3788 8.30497 24.1934C8.11956 24.008 8.01439 23.7572 8.01211 23.495C8.00983 23.2328 8.11063 22.9802 8.29279 22.7916L14.5858 16.4986L8.29279 10.2056C8.10532 10.0181 8 9.76378 8 9.49862C8 9.23345 8.10532 8.97914 8.29279 8.79162Z" fill="black"/>
</g>
</g>
</g>
<defs>
<clipPath id="clip0_10405_138558">
<rect width="16" height="16" fill="white" transform="translate(8 8.5)"/>
</clipPath>
<clipPath id="clip1_10405_138558">
<rect width="16" height="16" fill="white" transform="translate(8 8.5)"/>
</clipPath>
</defs>
</svg>
