<svg width="20" height="20" viewBox="0 0 20 20" fill="none" xmlns="http://www.w3.org/2000/svg">
<path fill-rule="evenodd" clip-rule="evenodd" d="M11.899 1.79288C11.5904 1.66602 11.1991 1.66602 10.4167 1.66602C9.63418 1.66602 9.24294 1.66602 8.93433 1.79288C8.52284 1.96204 8.19591 2.2865 8.02546 2.69488C7.94766 2.8813 7.91721 3.0981 7.90529 3.41434C7.88778 3.87908 7.64763 4.30926 7.2418 4.54179C6.83598 4.77432 6.34053 4.76563 5.92624 4.54831C5.64432 4.40043 5.43991 4.3182 5.23832 4.29186C4.79674 4.23417 4.35015 4.35293 3.9968 4.62202C3.73178 4.82383 3.53616 5.1601 3.14492 5.83263C2.75368 6.50515 2.55806 6.84142 2.51446 7.1701C2.45632 7.60835 2.57598 8.05157 2.84712 8.40225C2.97088 8.56231 3.14481 8.69687 3.41475 8.8652C3.8116 9.11267 4.06693 9.53423 4.06691 9.99937C4.06688 10.4645 3.81155 10.886 3.41475 11.1334C3.14476 11.3017 2.97081 11.4363 2.84704 11.5964C2.5759 11.9471 2.45624 12.3903 2.51437 12.8285C2.55798 13.1572 2.7536 13.4935 3.14484 14.166C3.53608 14.8385 3.7317 15.1748 3.99671 15.3766C4.35007 15.6457 4.79666 15.7645 5.23824 15.7068C5.43981 15.6804 5.64421 15.5982 5.92611 15.4504C6.34043 15.233 6.83592 15.2243 7.24177 15.4569C7.64762 15.6894 7.88778 16.1196 7.90529 16.5844C7.91721 16.9006 7.94766 17.1174 8.02546 17.3038C8.19591 17.7122 8.52284 18.0367 8.93433 18.2058C9.24294 18.3327 9.63418 18.3327 10.4167 18.3327C11.1991 18.3327 11.5904 18.3327 11.899 18.2058C12.3105 18.0367 12.6374 17.7122 12.8079 17.3038C12.8857 17.1174 12.9161 16.9006 12.928 16.5843C12.9456 16.1196 13.1857 15.6894 13.5915 15.4569C13.9973 15.2243 14.4928 15.233 14.9072 15.4503C15.1891 15.5982 15.3934 15.6804 15.595 15.7067C16.0366 15.7644 16.4832 15.6457 16.8365 15.3766C17.1016 15.1748 17.2972 14.8385 17.6884 14.166C18.0797 13.4934 18.2753 13.1572 18.3189 12.8285C18.377 12.3902 18.2573 11.947 17.9862 11.5963C17.8624 11.4363 17.6885 11.3017 17.4185 11.1334C17.0217 10.8859 16.7664 10.4644 16.7664 9.99927C16.7664 9.53422 17.0218 9.11275 17.4185 8.86534C17.6885 8.69697 17.8625 8.5624 17.9863 8.40231C18.2574 8.05162 18.3771 7.60841 18.319 7.17016C18.2754 6.84148 18.0797 6.50521 17.6885 5.83268C17.2973 5.16015 17.1016 4.82389 16.8366 4.62207C16.4833 4.35298 16.0367 4.23422 15.5951 4.29192C15.3935 4.31826 15.1891 4.40048 14.9072 4.54835C14.4929 4.76568 13.9974 4.77436 13.5916 4.54182C13.1857 4.30927 12.9456 3.87907 12.928 3.4143C12.9161 3.09808 12.8857 2.88129 12.8079 2.69488C12.6374 2.2865 12.3105 1.96204 11.899 1.79288ZM10.4167 12.4993C11.8079 12.4993 12.9357 11.3801 12.9357 9.99935C12.9357 8.61864 11.8079 7.49935 10.4167 7.49935C9.02544 7.49935 7.89763 8.61864 7.89763 9.99935C7.89763 11.3801 9.02544 12.4993 10.4167 12.4993Z" fill="#1C274C"/>
</svg>
