<svg width="20" height="20" viewBox="0 0 20 20" fill="none" xmlns="http://www.w3.org/2000/svg">
<path d="M7.71094 11.6673C9.09165 11.6673 10.2109 12.7866 10.2109 14.1673C10.2109 15.548 9.09165 16.6673 7.71094 16.6673C6.33023 16.6673 5.21094 15.548 5.21094 14.1673C5.21094 12.7866 6.33023 11.6673 7.71094 11.6673Z" fill="#1C274C"/>
<path d="M11.8776 3.33398C10.4969 3.33398 9.3776 4.45327 9.3776 5.83398C9.3776 7.2147 10.4969 8.33398 11.8776 8.33398C13.2583 8.33398 14.3776 7.2147 14.3776 5.83398C14.3776 4.45327 13.2583 3.33398 11.8776 3.33398Z" fill="#1C274C"/>
<path d="M7.29427 5.17442C7.63945 5.17442 7.91927 5.45424 7.91927 5.79942C7.91927 6.1446 7.63945 6.42442 7.29427 6.42442L1.46094 6.42442C1.11576 6.42442 0.835938 6.1446 0.835938 5.79942C0.835938 5.45424 1.11576 5.17442 1.46094 5.17442H7.29427Z" fill="#1C274C"/>
<path d="M12.2943 13.5078C11.9491 13.5078 11.6693 13.7876 11.6693 14.1328C11.6693 14.4779 11.9491 14.7578 12.2943 14.7578H18.1276C18.4728 14.7578 18.7526 14.4779 18.7526 14.1328C18.7526 13.7876 18.4728 13.5078 18.1276 13.5078H12.2943Z" fill="#1C274C"/>
<path d="M0.835938 14.1328C0.835938 13.7876 1.11576 13.5078 1.46094 13.5078H3.1276C3.47278 13.5078 3.7526 13.7876 3.7526 14.1328C3.7526 14.4779 3.47278 14.7578 3.1276 14.7578H1.46094C1.11576 14.7578 0.835938 14.4779 0.835938 14.1328Z" fill="#1C274C"/>
<path d="M18.1276 5.17442C18.4728 5.17442 18.7526 5.45424 18.7526 5.79942C18.7526 6.1446 18.4728 6.42442 18.1276 6.42442L16.4609 6.42442C16.1158 6.42442 15.8359 6.1446 15.8359 5.79942C15.8359 5.45424 16.1158 5.17442 16.4609 5.17442H18.1276Z" fill="#1C274C"/>
</svg>
