<svg width="16" height="16" viewBox="0 0 16 16" fill="none" xmlns="http://www.w3.org/2000/svg">
<g clip-path="url(#clip0_10448_16124)">
<rect width="16" height="16" fill="white" fill-opacity="0.01"/>
<path d="M2 4.25601C2 3.93304 2.23025 3.67122 2.51429 3.67122L4.29045 3.67091C4.64335 3.66074 4.95468 3.40559 5.07476 3.02811C5.07792 3.01819 5.08155 3.00594 5.09457 2.96152L5.1711 2.7004C5.21793 2.5403 5.25874 2.40082 5.31583 2.27615C5.54139 1.7836 5.95872 1.44158 6.44098 1.35401C6.56305 1.33184 6.69232 1.33194 6.84071 1.33205H9.15941C9.30779 1.33194 9.43707 1.33184 9.55914 1.35401C10.0414 1.44158 10.4587 1.7836 10.6843 2.27615C10.7414 2.40082 10.7822 2.5403 10.829 2.7004L10.9055 2.96152C10.9186 3.00594 10.9222 3.01819 10.9254 3.02811C11.0454 3.40559 11.4185 3.66105 11.7714 3.67122H13.4857C13.7697 3.67122 14 3.93304 14 4.25601C14 4.57898 13.7697 4.8408 13.4857 4.8408H2.51429C2.23025 4.8408 2 4.57898 2 4.25601Z" fill="white"/>
<path fill-rule="evenodd" clip-rule="evenodd" d="M7.7304 14.6655H8.2696C10.1247 14.6655 11.0523 14.6655 11.6554 14.0748C12.2585 13.4842 12.3202 12.5154 12.4436 10.5778L12.6214 7.78585C12.6884 6.73452 12.7219 6.20886 12.4193 5.87575C12.1167 5.54264 11.6058 5.54264 10.584 5.54264H5.41603C4.39418 5.54264 3.88325 5.54264 3.5807 5.87575C3.27815 6.20886 3.31163 6.73452 3.37858 7.78585L3.55639 10.5778C3.6798 12.5154 3.7415 13.4842 4.34459 14.0748C4.94769 14.6655 5.87526 14.6655 7.7304 14.6655ZM6.83085 8.12444C6.80337 7.8352 6.55835 7.62418 6.28358 7.6531C6.00881 7.68202 5.80834 7.93994 5.83581 8.22918L6.16915 11.7379C6.19662 12.0272 6.44165 12.2382 6.71642 12.2093C6.99119 12.1804 7.19166 11.9224 7.16419 11.6332L6.83085 8.12444ZM9.71642 7.6531C9.99119 7.68202 10.1917 7.93994 10.1642 8.22918L9.83085 11.7379C9.80338 12.0272 9.55835 12.2382 9.28358 12.2093C9.00881 12.1804 8.80834 11.9224 8.83581 11.6332L9.16915 8.12444C9.19663 7.8352 9.44165 7.62418 9.71642 7.6531Z" fill="white"/>
</g>
<defs>
<clipPath id="clip0_10448_16124">
<rect width="16" height="16" fill="white"/>
</clipPath>
</defs>
</svg>
