<svg width="12" height="12" viewBox="0 0 12 12" fill="none" xmlns="http://www.w3.org/2000/svg">
<path d="M5.58793 9.7845C5.6338 9.85112 5.69518 9.90559 5.76678 9.94322C5.83837 9.98086 5.91805 10.0005 5.99893 10.0005C6.07982 10.0005 6.15949 9.98086 6.23109 9.94322C6.30268 9.90559 6.36406 9.85112 6.40993 9.7845L10.9099 3.2845C10.962 3.20953 10.9926 3.12172 10.9982 3.0306C11.0039 2.93949 10.9845 2.84856 10.9422 2.7677C10.8998 2.68683 10.8361 2.61912 10.7579 2.57193C10.6798 2.52473 10.5902 2.49986 10.4989 2.5H1.49893C1.40785 2.50038 1.3186 2.52557 1.24077 2.57288C1.16294 2.62019 1.09948 2.68782 1.05722 2.7685C1.01495 2.84917 0.995473 2.93985 1.00089 3.03077C1.0063 3.12168 1.03639 3.20941 1.08793 3.2845L5.58793 9.7845Z" fill="#4B3A5A"/>
</svg>
