<svg width="41" height="40" viewBox="0 0 41 40" fill="none" xmlns="http://www.w3.org/2000/svg">
<path fill-rule="evenodd" clip-rule="evenodd" d="M13.9763 2.64233C13 3.61864 13 5.18999 13 8.33268V11.666C13 14.8087 13 16.3801 13.9763 17.3564C14.9526 18.3327 16.524 18.3327 19.6667 18.3327H21.3333C24.476 18.3327 26.0474 18.3327 27.0237 17.3564C28 16.3801 28 14.8087 28 11.666V8.33268C28 5.18999 28 3.61864 27.0237 2.64233C26.0474 1.66602 24.476 1.66602 21.3333 1.66602H19.6667C16.524 1.66602 14.9526 1.66602 13.9763 2.64233ZM21.125 4.99935C21.125 4.65417 20.8452 4.37435 20.5 4.37435C20.1548 4.37435 19.875 4.65417 19.875 4.99935V6.04102H18.8333C18.4881 6.04102 18.2083 6.32084 18.2083 6.66602C18.2083 7.01119 18.4881 7.29102 18.8333 7.29102H19.875L19.875 8.33268C19.875 8.67786 20.1548 8.95768 20.5 8.95768C20.8452 8.95768 21.125 8.67786 21.125 8.33268V7.29102H22.1666C22.5118 7.29102 22.7916 7.01119 22.7916 6.66602C22.7916 6.32084 22.5118 6.04102 22.1666 6.04102H21.125V4.99935ZM17.1667 11.041C16.8215 11.041 16.5417 11.3208 16.5417 11.666C16.5417 12.0112 16.8215 12.291 17.1667 12.291H23.8333C24.1785 12.291 24.4583 12.0112 24.4583 11.666C24.4583 11.3208 24.1785 11.041 23.8333 11.041H17.1667ZM18 14.3743C17.6548 14.3743 17.375 14.6542 17.375 14.9993C17.375 15.3445 17.6548 15.6243 18 15.6243H23C23.3452 15.6243 23.625 15.3445 23.625 14.9993C23.625 14.6542 23.3452 14.3743 23 14.3743H18Z" fill="#888888"/>
<path d="M7.644 29.944H7.584L6.876 31.348L4.872 34.996L2.868 31.348L2.16 29.944H2.1V37H1.116V28.624H2.46L4.86 33.136H4.92L7.332 28.624H8.628V37H7.644V29.944ZM13.0863 37.144C12.6623 37.144 12.2783 37.068 11.9343 36.916C11.5983 36.764 11.3063 36.548 11.0583 36.268C10.8183 35.98 10.6303 35.64 10.4943 35.248C10.3663 34.848 10.3023 34.4 10.3023 33.904C10.3023 33.416 10.3663 32.972 10.4943 32.572C10.6303 32.172 10.8183 31.832 11.0583 31.552C11.3063 31.264 11.5983 31.044 11.9343 30.892C12.2783 30.74 12.6623 30.664 13.0863 30.664C13.5023 30.664 13.8743 30.74 14.2023 30.892C14.5303 31.044 14.8103 31.256 15.0423 31.528C15.2743 31.792 15.4503 32.108 15.5703 32.476C15.6983 32.844 15.7623 33.248 15.7623 33.688V34.144H11.3103V34.432C11.3103 34.696 11.3503 34.944 11.4303 35.176C11.5183 35.4 11.6383 35.596 11.7903 35.764C11.9503 35.932 12.1423 36.064 12.3663 36.16C12.5983 36.256 12.8583 36.304 13.1463 36.304C13.5383 36.304 13.8783 36.212 14.1663 36.028C14.4623 35.844 14.6903 35.58 14.8503 35.236L15.5343 35.728C15.3343 36.152 15.0223 36.496 14.5983 36.76C14.1743 37.016 13.6703 37.144 13.0863 37.144ZM13.0863 31.468C12.8223 31.468 12.5823 31.516 12.3663 31.612C12.1503 31.7 11.9623 31.828 11.8023 31.996C11.6503 32.164 11.5303 32.364 11.4423 32.596C11.3543 32.82 11.3103 33.068 11.3103 33.34V33.424H14.7303V33.292C14.7303 32.74 14.5783 32.3 14.2743 31.972C13.9783 31.636 13.5823 31.468 13.0863 31.468ZM17.3442 37V30.808H18.3042V31.948H18.3642C18.4762 31.652 18.6762 31.388 18.9642 31.156C19.2522 30.924 19.6482 30.808 20.1522 30.808H20.5242V31.768H19.9602C19.4402 31.768 19.0322 31.868 18.7362 32.068C18.4482 32.26 18.3042 32.504 18.3042 32.8V37H17.3442ZM26.6892 37.684C26.6892 38.324 26.4372 38.792 25.9332 39.088C25.4372 39.392 24.6892 39.544 23.6892 39.544C22.7212 39.544 22.0252 39.412 21.6012 39.148C21.1772 38.884 20.9652 38.508 20.9652 38.02C20.9652 37.684 21.0532 37.42 21.2292 37.228C21.4052 37.044 21.6452 36.908 21.9492 36.82V36.688C21.5812 36.512 21.3972 36.224 21.3972 35.824C21.3972 35.512 21.4972 35.276 21.6972 35.116C21.8972 34.948 22.1532 34.824 22.4652 34.744V34.696C22.0972 34.52 21.8092 34.268 21.6012 33.94C21.4012 33.612 21.3012 33.232 21.3012 32.8C21.3012 32.488 21.3572 32.2 21.4692 31.936C21.5812 31.672 21.7372 31.448 21.9372 31.264C22.1452 31.072 22.3892 30.924 22.6692 30.82C22.9572 30.716 23.2772 30.664 23.6292 30.664C24.0692 30.664 24.4612 30.744 24.8052 30.904V30.796C24.8052 30.556 24.8612 30.36 24.9732 30.208C25.0852 30.048 25.2692 29.968 25.5252 29.968H26.4492V30.808H25.2732V31.204C25.4972 31.396 25.6692 31.628 25.7892 31.9C25.9172 32.164 25.9812 32.464 25.9812 32.8C25.9812 33.112 25.9252 33.4 25.8132 33.664C25.7012 33.928 25.5412 34.156 25.3332 34.348C25.1332 34.532 24.8892 34.676 24.6012 34.78C24.3132 34.884 23.9932 34.936 23.6412 34.936C23.4412 34.936 23.2412 34.916 23.0412 34.876C22.8332 34.932 22.6452 35.016 22.4772 35.128C22.3092 35.232 22.2252 35.38 22.2252 35.572C22.2252 35.756 22.3132 35.88 22.4892 35.944C22.6652 36.008 22.8932 36.04 23.1732 36.04H24.4932C25.2612 36.04 25.8172 36.188 26.1612 36.484C26.5132 36.772 26.6892 37.172 26.6892 37.684ZM25.7892 37.756C25.7892 37.508 25.6932 37.308 25.5012 37.156C25.3172 37.012 24.9852 36.94 24.5052 36.94H22.4412C22.0572 37.116 21.8652 37.396 21.8652 37.78C21.8652 38.052 21.9652 38.284 22.1652 38.476C22.3732 38.668 22.7212 38.764 23.2092 38.764H24.0972C24.6332 38.764 25.0492 38.68 25.3452 38.512C25.6412 38.344 25.7892 38.092 25.7892 37.756ZM23.6412 34.168C24.0492 34.168 24.3732 34.072 24.6132 33.88C24.8532 33.68 24.9732 33.376 24.9732 32.968V32.632C24.9732 32.224 24.8532 31.924 24.6132 31.732C24.3732 31.532 24.0492 31.432 23.6412 31.432C23.2332 31.432 22.9092 31.532 22.6692 31.732C22.4292 31.924 22.3092 32.224 22.3092 32.632V32.968C22.3092 33.376 22.4292 33.68 22.6692 33.88C22.9092 34.072 23.2332 34.168 23.6412 34.168ZM30.0668 37.144C29.6428 37.144 29.2588 37.068 28.9148 36.916C28.5788 36.764 28.2868 36.548 28.0388 36.268C27.7988 35.98 27.6108 35.64 27.4748 35.248C27.3468 34.848 27.2828 34.4 27.2828 33.904C27.2828 33.416 27.3468 32.972 27.4748 32.572C27.6108 32.172 27.7988 31.832 28.0388 31.552C28.2868 31.264 28.5788 31.044 28.9148 30.892C29.2588 30.74 29.6428 30.664 30.0668 30.664C30.4828 30.664 30.8548 30.74 31.1828 30.892C31.5108 31.044 31.7908 31.256 32.0228 31.528C32.2548 31.792 32.4308 32.108 32.5508 32.476C32.6788 32.844 32.7428 33.248 32.7428 33.688V34.144H28.2908V34.432C28.2908 34.696 28.3308 34.944 28.4108 35.176C28.4988 35.4 28.6188 35.596 28.7708 35.764C28.9308 35.932 29.1228 36.064 29.3468 36.16C29.5788 36.256 29.8388 36.304 30.1268 36.304C30.5188 36.304 30.8588 36.212 31.1468 36.028C31.4428 35.844 31.6708 35.58 31.8308 35.236L32.5148 35.728C32.3148 36.152 32.0028 36.496 31.5788 36.76C31.1548 37.016 30.6508 37.144 30.0668 37.144ZM30.0668 31.468C29.8028 31.468 29.5628 31.516 29.3468 31.612C29.1308 31.7 28.9428 31.828 28.7828 31.996C28.6308 32.164 28.5108 32.364 28.4228 32.596C28.3348 32.82 28.2908 33.068 28.2908 33.34V33.424H31.7108V33.292C31.7108 32.74 31.5588 32.3 31.2548 31.972C30.9588 31.636 30.5628 31.468 30.0668 31.468ZM38.2847 35.992H38.2367C37.8607 36.76 37.2567 37.144 36.4247 37.144C36.0407 37.144 35.6927 37.068 35.3807 36.916C35.0687 36.764 34.8007 36.548 34.5767 36.268C34.3607 35.988 34.1927 35.648 34.0727 35.248C33.9607 34.848 33.9047 34.4 33.9047 33.904C33.9047 33.408 33.9607 32.96 34.0727 32.56C34.1927 32.16 34.3607 31.82 34.5767 31.54C34.8007 31.26 35.0687 31.044 35.3807 30.892C35.6927 30.74 36.0407 30.664 36.4247 30.664C36.8567 30.664 37.2247 30.76 37.5287 30.952C37.8407 31.136 38.0767 31.424 38.2367 31.816H38.2847V28.12H39.2447V37H38.2847V35.992ZM36.6887 36.28C36.9047 36.28 37.1087 36.252 37.3007 36.196C37.5007 36.14 37.6727 36.06 37.8167 35.956C37.9607 35.844 38.0727 35.712 38.1527 35.56C38.2407 35.4 38.2847 35.22 38.2847 35.02V32.716C38.2847 32.548 38.2407 32.392 38.1527 32.248C38.0727 32.096 37.9607 31.968 37.8167 31.864C37.6727 31.76 37.5007 31.68 37.3007 31.624C37.1087 31.56 36.9047 31.528 36.6887 31.528C36.1447 31.528 35.7167 31.7 35.4047 32.044C35.0927 32.38 34.9367 32.824 34.9367 33.376V34.432C34.9367 34.984 35.0927 35.432 35.4047 35.776C35.7167 36.112 36.1447 36.28 36.6887 36.28Z" fill="#888888"/>
</svg>
