<svg width="33" height="40" viewBox="0 0 33 40" fill="none" xmlns="http://www.w3.org/2000/svg">
<path d="M8.16406 5.17479C8.16406 3.52074 8.16406 2.69371 8.71324 2.17986C9.26241 1.66602 10.1463 1.66602 11.9141 1.66602C13.6818 1.66602 14.5657 1.66602 15.1149 2.17986C15.6641 2.69371 15.6641 3.52074 15.6641 5.17479V14.8239C15.6641 16.478 15.6641 17.305 15.1149 17.8188C14.5657 18.3327 13.6818 18.3327 11.9141 18.3327C10.1463 18.3327 9.26241 18.3327 8.71324 17.8188C8.16406 17.305 8.16406 16.478 8.16406 14.8239V5.17479Z" fill="#888888"/>
<path d="M17.3359 12.8327C17.3359 11.1042 17.3359 10.24 17.8851 9.70299C18.4343 9.16602 19.3182 9.16602 21.0859 9.16602C22.8537 9.16602 23.7376 9.16602 24.2868 9.70299C24.8359 10.24 24.8359 11.1042 24.8359 12.8327V14.666C24.8359 16.3945 24.8359 17.2587 24.2868 17.7957C23.7376 18.3327 22.8537 18.3327 21.0859 18.3327C19.3182 18.3327 18.4343 18.3327 17.8851 17.7957C17.3359 17.2587 17.3359 16.3945 17.3359 14.666V12.8327Z" fill="#888888"/>
<path d="M17.3359 4.58268C17.3359 3.67668 17.3359 3.22369 17.4787 2.86635C17.669 2.38991 18.034 2.01138 18.4934 1.81403C18.838 1.66602 19.2748 1.66602 20.1484 1.66602H22.0234C22.8971 1.66602 23.3339 1.66602 23.6785 1.81403C24.1379 2.01138 24.5029 2.38991 24.6932 2.86635C24.8359 3.22369 24.8359 3.67668 24.8359 4.58268C24.8359 5.48868 24.8359 5.94168 24.6932 6.29901C24.5029 6.77545 24.1379 7.15399 23.6785 7.35134C23.3339 7.49935 22.8971 7.49935 22.0234 7.49935H20.1484C19.2748 7.49935 18.838 7.49935 18.4934 7.35134C18.034 7.15399 17.669 6.77545 17.4787 6.29901C17.3359 5.94168 17.3359 5.48868 17.3359 4.58268Z" fill="#888888"/>
<path d="M6.36 33.208H2.124V37H1.116V28.624H2.124V32.32H6.36V28.624H7.368V37H6.36V33.208ZM11.8444 37.144C11.4284 37.144 11.0484 37.068 10.7044 36.916C10.3604 36.764 10.0644 36.548 9.81638 36.268C9.57638 35.98 9.38838 35.64 9.25238 35.248C9.11638 34.848 9.04838 34.4 9.04838 33.904C9.04838 33.416 9.11638 32.972 9.25238 32.572C9.38838 32.172 9.57638 31.832 9.81638 31.552C10.0644 31.264 10.3604 31.044 10.7044 30.892C11.0484 30.74 11.4284 30.664 11.8444 30.664C12.2604 30.664 12.6364 30.74 12.9724 30.892C13.3164 31.044 13.6124 31.264 13.8604 31.552C14.1084 31.832 14.3004 32.172 14.4364 32.572C14.5724 32.972 14.6404 33.416 14.6404 33.904C14.6404 34.4 14.5724 34.848 14.4364 35.248C14.3004 35.64 14.1084 35.98 13.8604 36.268C13.6124 36.548 13.3164 36.764 12.9724 36.916C12.6364 37.068 12.2604 37.144 11.8444 37.144ZM11.8444 36.292C12.3644 36.292 12.7884 36.132 13.1164 35.812C13.4444 35.492 13.6084 35.004 13.6084 34.348V33.46C13.6084 32.804 13.4444 32.316 13.1164 31.996C12.7884 31.676 12.3644 31.516 11.8444 31.516C11.3244 31.516 10.9004 31.676 10.5724 31.996C10.2444 32.316 10.0804 32.804 10.0804 33.46V34.348C10.0804 35.004 10.2444 35.492 10.5724 35.812C10.9004 36.132 11.3244 36.292 11.8444 36.292ZM16.2192 37V30.808H17.1792V31.816H17.2272C17.2992 31.656 17.3792 31.508 17.4672 31.372C17.5632 31.228 17.6752 31.104 17.8032 31C17.9392 30.896 18.0952 30.816 18.2712 30.76C18.4472 30.696 18.6552 30.664 18.8952 30.664C19.3032 30.664 19.6792 30.764 20.0232 30.964C20.3672 31.156 20.6232 31.476 20.7912 31.924H20.8152C20.9272 31.588 21.1352 31.296 21.4392 31.048C21.7512 30.792 22.1712 30.664 22.6992 30.664C23.3312 30.664 23.8232 30.872 24.1752 31.288C24.5352 31.696 24.7152 32.276 24.7152 33.028V37H23.7552V33.196C23.7552 32.644 23.6472 32.228 23.4312 31.948C23.2152 31.668 22.8712 31.528 22.3992 31.528C22.2072 31.528 22.0232 31.552 21.8472 31.6C21.6792 31.648 21.5272 31.72 21.3912 31.816C21.2552 31.912 21.1472 32.036 21.0672 32.188C20.9872 32.332 20.9472 32.504 20.9472 32.704V37H19.9872V33.196C19.9872 32.644 19.8792 32.228 19.6632 31.948C19.4472 31.668 19.1112 31.528 18.6552 31.528C18.4632 31.528 18.2792 31.552 18.1032 31.6C17.9272 31.648 17.7712 31.72 17.6352 31.816C17.4992 31.912 17.3872 32.036 17.2992 32.188C17.2192 32.332 17.1792 32.504 17.1792 32.704V37H16.2192ZM29.0238 37.144C28.5998 37.144 28.2158 37.068 27.8718 36.916C27.5358 36.764 27.2438 36.548 26.9958 36.268C26.7558 35.98 26.5678 35.64 26.4318 35.248C26.3038 34.848 26.2398 34.4 26.2398 33.904C26.2398 33.416 26.3038 32.972 26.4318 32.572C26.5678 32.172 26.7558 31.832 26.9958 31.552C27.2438 31.264 27.5358 31.044 27.8718 30.892C28.2158 30.74 28.5998 30.664 29.0238 30.664C29.4398 30.664 29.8118 30.74 30.1398 30.892C30.4678 31.044 30.7478 31.256 30.9798 31.528C31.2118 31.792 31.3878 32.108 31.5078 32.476C31.6358 32.844 31.6998 33.248 31.6998 33.688V34.144H27.2478V34.432C27.2478 34.696 27.2878 34.944 27.3678 35.176C27.4558 35.4 27.5758 35.596 27.7278 35.764C27.8878 35.932 28.0798 36.064 28.3038 36.16C28.5358 36.256 28.7958 36.304 29.0838 36.304C29.4758 36.304 29.8158 36.212 30.1038 36.028C30.3998 35.844 30.6278 35.58 30.7878 35.236L31.4718 35.728C31.2718 36.152 30.9598 36.496 30.5358 36.76C30.1118 37.016 29.6078 37.144 29.0238 37.144ZM29.0238 31.468C28.7598 31.468 28.5198 31.516 28.3038 31.612C28.0878 31.7 27.8998 31.828 27.7398 31.996C27.5878 32.164 27.4678 32.364 27.3798 32.596C27.2918 32.82 27.2478 33.068 27.2478 33.34V33.424H30.6678V33.292C30.6678 32.74 30.5158 32.3 30.2118 31.972C29.9158 31.636 29.5198 31.468 29.0238 31.468Z" fill="#888888"/>
</svg>
