<svg width="56" height="40" viewBox="0 0 56 40" fill="none" xmlns="http://www.w3.org/2000/svg">
<path fill-rule="evenodd" clip-rule="evenodd" d="M21.4763 2.64233C20.5 3.61864 20.5 5.18999 20.5 8.33268V11.666C20.5 14.8087 20.5 16.3801 21.4763 17.3564C22.4526 18.3327 24.024 18.3327 27.1667 18.3327H28.8333C31.976 18.3327 33.5474 18.3327 34.5237 17.3564C35.5 16.3801 35.5 14.8087 35.5 11.666V8.33268C35.5 5.18999 35.5 3.61864 34.5237 2.64233C33.5474 1.66602 31.976 1.66602 28.8333 1.66602H27.1667C24.024 1.66602 22.4526 1.66602 21.4763 2.64233ZM24.6667 7.70768C24.3215 7.70768 24.0417 7.9875 24.0417 8.33268C24.0417 8.67786 24.3215 8.95768 24.6667 8.95768H31.3333C31.6785 8.95768 31.9583 8.67786 31.9583 8.33268C31.9583 7.9875 31.6785 7.70768 31.3333 7.70768H24.6667ZM24.6667 11.041C24.3215 11.041 24.0417 11.3208 24.0417 11.666C24.0417 12.0112 24.3215 12.291 24.6667 12.291H28.8333C29.1785 12.291 29.4583 12.0112 29.4583 11.666C29.4583 11.3208 29.1785 11.041 28.8333 11.041H24.6667Z" fill="#888888"/>
<path d="M3.144 31.888L2.136 30.028H2.1V37H1.116V28.624H2.28L5.34 33.736L6.348 35.596H6.384V28.624H7.368V37H6.204L3.144 31.888ZM14.0044 37C13.6444 37 13.3844 36.904 13.2244 36.712C13.0724 36.52 12.9764 36.28 12.9364 35.992H12.8764C12.7404 36.376 12.5164 36.664 12.2044 36.856C11.8924 37.048 11.5204 37.144 11.0884 37.144C10.4324 37.144 9.92038 36.976 9.55238 36.64C9.19238 36.304 9.01238 35.848 9.01238 35.272C9.01238 34.688 9.22438 34.24 9.64838 33.928C10.0804 33.616 10.7484 33.46 11.6524 33.46H12.8764V32.848C12.8764 32.408 12.7564 32.072 12.5164 31.84C12.2764 31.608 11.9084 31.492 11.4124 31.492C11.0364 31.492 10.7204 31.576 10.4644 31.744C10.2164 31.912 10.0084 32.136 9.84038 32.416L9.26438 31.876C9.43238 31.54 9.70038 31.256 10.0684 31.024C10.4364 30.784 10.9004 30.664 11.4604 30.664C12.2124 30.664 12.7964 30.848 13.2124 31.216C13.6284 31.584 13.8364 32.096 13.8364 32.752V36.16H14.5444V37H14.0044ZM11.2444 36.328C11.4844 36.328 11.7044 36.3 11.9044 36.244C12.1044 36.188 12.2764 36.108 12.4204 36.004C12.5644 35.9 12.6764 35.78 12.7564 35.644C12.8364 35.508 12.8764 35.36 12.8764 35.2V34.18H11.6044C11.0524 34.18 10.6484 34.26 10.3924 34.42C10.1444 34.58 10.0204 34.812 10.0204 35.116V35.368C10.0204 35.672 10.1284 35.908 10.3444 36.076C10.5684 36.244 10.8684 36.328 11.2444 36.328ZM15.9145 37V30.808H16.8745V31.948H16.9345C17.0465 31.652 17.2465 31.388 17.5345 31.156C17.8225 30.924 18.2185 30.808 18.7225 30.808H19.0945V31.768H18.5305C18.0105 31.768 17.6025 31.868 17.3065 32.068C17.0185 32.26 16.8745 32.504 16.8745 32.8V37H15.9145ZM20.3208 37V30.808H21.2808V31.948H21.3408C21.4528 31.652 21.6528 31.388 21.9408 31.156C22.2288 30.924 22.6248 30.808 23.1288 30.808H23.5008V31.768H22.9368C22.4168 31.768 22.0088 31.868 21.7128 32.068C21.4248 32.26 21.2808 32.504 21.2808 32.8V37H20.3208ZM29.1802 37C28.8202 37 28.5602 36.904 28.4002 36.712C28.2482 36.52 28.1522 36.28 28.1122 35.992H28.0522C27.9162 36.376 27.6922 36.664 27.3802 36.856C27.0682 37.048 26.6962 37.144 26.2642 37.144C25.6082 37.144 25.0962 36.976 24.7282 36.64C24.3682 36.304 24.1882 35.848 24.1882 35.272C24.1882 34.688 24.4002 34.24 24.8242 33.928C25.2562 33.616 25.9242 33.46 26.8282 33.46H28.0522V32.848C28.0522 32.408 27.9322 32.072 27.6922 31.84C27.4522 31.608 27.0842 31.492 26.5882 31.492C26.2122 31.492 25.8962 31.576 25.6402 31.744C25.3922 31.912 25.1842 32.136 25.0162 32.416L24.4402 31.876C24.6082 31.54 24.8762 31.256 25.2442 31.024C25.6122 30.784 26.0762 30.664 26.6362 30.664C27.3882 30.664 27.9722 30.848 28.3882 31.216C28.8042 31.584 29.0122 32.096 29.0122 32.752V36.16H29.7202V37H29.1802ZM26.4202 36.328C26.6602 36.328 26.8802 36.3 27.0802 36.244C27.2802 36.188 27.4522 36.108 27.5962 36.004C27.7402 35.9 27.8522 35.78 27.9322 35.644C28.0122 35.508 28.0522 35.36 28.0522 35.2V34.18H26.7802C26.2282 34.18 25.8242 34.26 25.5682 34.42C25.3202 34.58 25.1962 34.812 25.1962 35.116V35.368C25.1962 35.672 25.3042 35.908 25.5202 36.076C25.7442 36.244 26.0442 36.328 26.4202 36.328ZM32.4583 37C32.1223 37 31.8663 36.908 31.6903 36.724C31.5223 36.532 31.4383 36.284 31.4383 35.98V31.648H30.4183V30.808H30.9943C31.2023 30.808 31.3423 30.768 31.4143 30.688C31.4943 30.6 31.5343 30.452 31.5343 30.244V29.092H32.3983V30.808H33.7543V31.648H32.3983V36.16H33.6583V37H32.4583ZM35.7773 29.356C35.5693 29.356 35.4173 29.308 35.3213 29.212C35.2333 29.108 35.1893 28.976 35.1893 28.816V28.66C35.1893 28.5 35.2333 28.372 35.3213 28.276C35.4173 28.172 35.5693 28.12 35.7773 28.12C35.9853 28.12 36.1333 28.172 36.2213 28.276C36.3173 28.372 36.3653 28.5 36.3653 28.66V28.816C36.3653 28.976 36.3173 29.108 36.2213 29.212C36.1333 29.308 35.9853 29.356 35.7773 29.356ZM35.2973 30.808H36.2573V37H35.2973V30.808ZM39.6653 37L37.4933 30.808H38.4533L39.5333 33.88L40.2053 35.992H40.2653L40.9373 33.88L42.0413 30.808H42.9653L40.7813 37H39.6653ZM46.4378 37.144C46.0138 37.144 45.6298 37.068 45.2858 36.916C44.9498 36.764 44.6578 36.548 44.4098 36.268C44.1698 35.98 43.9818 35.64 43.8458 35.248C43.7178 34.848 43.6538 34.4 43.6538 33.904C43.6538 33.416 43.7178 32.972 43.8458 32.572C43.9818 32.172 44.1698 31.832 44.4098 31.552C44.6578 31.264 44.9498 31.044 45.2858 30.892C45.6298 30.74 46.0138 30.664 46.4378 30.664C46.8538 30.664 47.2258 30.74 47.5538 30.892C47.8818 31.044 48.1618 31.256 48.3938 31.528C48.6258 31.792 48.8018 32.108 48.9218 32.476C49.0498 32.844 49.1138 33.248 49.1138 33.688V34.144H44.6618V34.432C44.6618 34.696 44.7018 34.944 44.7818 35.176C44.8698 35.4 44.9898 35.596 45.1418 35.764C45.3018 35.932 45.4938 36.064 45.7178 36.16C45.9498 36.256 46.2098 36.304 46.4978 36.304C46.8898 36.304 47.2298 36.212 47.5178 36.028C47.8138 35.844 48.0418 35.58 48.2018 35.236L48.8858 35.728C48.6858 36.152 48.3738 36.496 47.9498 36.76C47.5258 37.016 47.0218 37.144 46.4378 37.144ZM46.4378 31.468C46.1738 31.468 45.9338 31.516 45.7178 31.612C45.5018 31.7 45.3138 31.828 45.1538 31.996C45.0018 32.164 44.8818 32.364 44.7938 32.596C44.7058 32.82 44.6618 33.068 44.6618 33.34V33.424H48.0818V33.292C48.0818 32.74 47.9298 32.3 47.6258 31.972C47.3298 31.636 46.9338 31.468 46.4378 31.468ZM52.5558 37.144C51.9798 37.144 51.4958 37.036 51.1038 36.82C50.7198 36.596 50.3878 36.3 50.1078 35.932L50.7918 35.38C51.0318 35.684 51.2998 35.92 51.5958 36.088C51.8918 36.248 52.2358 36.328 52.6278 36.328C53.0358 36.328 53.3518 36.24 53.5758 36.064C53.8078 35.888 53.9238 35.64 53.9238 35.32C53.9238 35.08 53.8438 34.876 53.6838 34.708C53.5318 34.532 53.2518 34.412 52.8438 34.348L52.3518 34.276C52.0638 34.236 51.7998 34.176 51.5598 34.096C51.3198 34.008 51.1078 33.896 50.9238 33.76C50.7478 33.616 50.6078 33.44 50.5038 33.232C50.4078 33.024 50.3598 32.776 50.3598 32.488C50.3598 32.184 50.4158 31.92 50.5278 31.696C50.6398 31.464 50.7918 31.272 50.9838 31.12C51.1838 30.968 51.4198 30.856 51.6918 30.784C51.9638 30.704 52.2558 30.664 52.5678 30.664C53.0718 30.664 53.4918 30.752 53.8278 30.928C54.1718 31.104 54.4718 31.348 54.7278 31.66L54.0918 32.236C53.9558 32.044 53.7558 31.872 53.4918 31.72C53.2278 31.56 52.8958 31.48 52.4958 31.48C52.0958 31.48 51.7918 31.568 51.5838 31.744C51.3838 31.912 51.2838 32.144 51.2838 32.44C51.2838 32.744 51.3838 32.964 51.5838 33.1C51.7918 33.236 52.0878 33.336 52.4718 33.4L52.9518 33.472C53.6398 33.576 54.1278 33.776 54.4158 34.072C54.7038 34.36 54.8478 34.74 54.8478 35.212C54.8478 35.812 54.6438 36.284 54.2358 36.628C53.8278 36.972 53.2678 37.144 52.5558 37.144Z" fill="#888888"/>
</svg>
