<svg width="45" height="40" viewBox="0 0 45 40" fill="none" xmlns="http://www.w3.org/2000/svg">
<circle cx="22.4974" cy="4.99935" r="3.33333" fill="#888888"/>
<path d="M29.1693 14.584C29.1693 16.6551 29.1693 18.334 22.5026 18.334C15.8359 18.334 15.8359 16.6551 15.8359 14.584C15.8359 12.5129 18.8207 10.834 22.5026 10.834C26.1845 10.834 29.1693 12.5129 29.1693 14.584Z" fill="#888888"/>
<path d="M6.36 37L5.52 34.528H2.136L1.296 37H0.276L3.204 28.624H4.488L7.416 37H6.36ZM3.852 29.56H3.792L2.376 33.64H5.268L3.852 29.56ZM11.0115 37.144C10.5795 37.144 10.1915 37.068 9.8475 36.916C9.5035 36.764 9.2115 36.548 8.9715 36.268C8.7395 35.988 8.5595 35.648 8.4315 35.248C8.3115 34.848 8.2515 34.4 8.2515 33.904C8.2515 33.408 8.3115 32.96 8.4315 32.56C8.5595 32.16 8.7395 31.82 8.9715 31.54C9.2115 31.26 9.5035 31.044 9.8475 30.892C10.1915 30.74 10.5795 30.664 11.0115 30.664C11.6275 30.664 12.1195 30.8 12.4875 31.072C12.8635 31.336 13.1435 31.684 13.3275 32.116L12.5235 32.524C12.4115 32.204 12.2275 31.956 11.9715 31.78C11.7155 31.604 11.3955 31.516 11.0115 31.516C10.7235 31.516 10.4715 31.564 10.2555 31.66C10.0395 31.748 9.8595 31.876 9.7155 32.044C9.5715 32.204 9.4635 32.4 9.3915 32.632C9.3195 32.856 9.2835 33.104 9.2835 33.376V34.432C9.2835 34.976 9.4275 35.424 9.7155 35.776C10.0115 36.12 10.4435 36.292 11.0115 36.292C11.7875 36.292 12.3475 35.932 12.6915 35.212L13.3875 35.68C13.1875 36.128 12.8875 36.484 12.4875 36.748C12.0955 37.012 11.6035 37.144 11.0115 37.144ZM16.9763 37.144C16.5443 37.144 16.1563 37.068 15.8123 36.916C15.4683 36.764 15.1763 36.548 14.9363 36.268C14.7043 35.988 14.5243 35.648 14.3963 35.248C14.2763 34.848 14.2163 34.4 14.2163 33.904C14.2163 33.408 14.2763 32.96 14.3963 32.56C14.5243 32.16 14.7043 31.82 14.9363 31.54C15.1763 31.26 15.4683 31.044 15.8123 30.892C16.1563 30.74 16.5443 30.664 16.9763 30.664C17.5923 30.664 18.0843 30.8 18.4523 31.072C18.8283 31.336 19.1083 31.684 19.2923 32.116L18.4883 32.524C18.3763 32.204 18.1923 31.956 17.9363 31.78C17.6803 31.604 17.3603 31.516 16.9763 31.516C16.6883 31.516 16.4363 31.564 16.2203 31.66C16.0043 31.748 15.8243 31.876 15.6803 32.044C15.5363 32.204 15.4283 32.4 15.3563 32.632C15.2843 32.856 15.2483 33.104 15.2483 33.376V34.432C15.2483 34.976 15.3923 35.424 15.6803 35.776C15.9763 36.12 16.4083 36.292 16.9763 36.292C17.7523 36.292 18.3123 35.932 18.6563 35.212L19.3523 35.68C19.1523 36.128 18.8523 36.484 18.4523 36.748C18.0603 37.012 17.5683 37.144 16.9763 37.144ZM22.9772 37.144C22.5612 37.144 22.1812 37.068 21.8372 36.916C21.4932 36.764 21.1972 36.548 20.9492 36.268C20.7092 35.98 20.5212 35.64 20.3852 35.248C20.2492 34.848 20.1812 34.4 20.1812 33.904C20.1812 33.416 20.2492 32.972 20.3852 32.572C20.5212 32.172 20.7092 31.832 20.9492 31.552C21.1972 31.264 21.4932 31.044 21.8372 30.892C22.1812 30.74 22.5612 30.664 22.9772 30.664C23.3932 30.664 23.7692 30.74 24.1052 30.892C24.4492 31.044 24.7452 31.264 24.9932 31.552C25.2412 31.832 25.4332 32.172 25.5692 32.572C25.7052 32.972 25.7732 33.416 25.7732 33.904C25.7732 34.4 25.7052 34.848 25.5692 35.248C25.4332 35.64 25.2412 35.98 24.9932 36.268C24.7452 36.548 24.4492 36.764 24.1052 36.916C23.7692 37.068 23.3932 37.144 22.9772 37.144ZM22.9772 36.292C23.4972 36.292 23.9212 36.132 24.2492 35.812C24.5772 35.492 24.7412 35.004 24.7412 34.348V33.46C24.7412 32.804 24.5772 32.316 24.2492 31.996C23.9212 31.676 23.4972 31.516 22.9772 31.516C22.4572 31.516 22.0332 31.676 21.7052 31.996C21.3772 32.316 21.2132 32.804 21.2132 33.46V34.348C21.2132 35.004 21.3772 35.492 21.7052 35.812C22.0332 36.132 22.4572 36.292 22.9772 36.292ZM31.168 35.992H31.12C31.056 36.136 30.976 36.28 30.88 36.424C30.792 36.56 30.68 36.684 30.544 36.796C30.408 36.9 30.244 36.984 30.052 37.048C29.86 37.112 29.636 37.144 29.38 37.144C28.74 37.144 28.232 36.94 27.856 36.532C27.48 36.116 27.292 35.532 27.292 34.78V30.808H28.252V34.612C28.252 35.724 28.724 36.28 29.668 36.28C29.86 36.28 30.044 36.256 30.22 36.208C30.404 36.16 30.564 36.088 30.7 35.992C30.844 35.896 30.956 35.776 31.036 35.632C31.124 35.48 31.168 35.3 31.168 35.092V30.808H32.128V37H31.168V35.992ZM34.1723 37V30.808H35.1323V31.816H35.1803C35.3323 31.464 35.5443 31.184 35.8163 30.976C36.0963 30.768 36.4683 30.664 36.9323 30.664C37.5723 30.664 38.0763 30.872 38.4443 31.288C38.8203 31.696 39.0083 32.276 39.0083 33.028V37H38.0483V33.196C38.0483 32.084 37.5803 31.528 36.6443 31.528C36.4523 31.528 36.2643 31.552 36.0803 31.6C35.9043 31.648 35.7443 31.72 35.6003 31.816C35.4563 31.912 35.3403 32.036 35.2523 32.188C35.1723 32.332 35.1323 32.504 35.1323 32.704V37H34.1723ZM42.3607 37C42.0247 37 41.7687 36.908 41.5927 36.724C41.4247 36.532 41.3407 36.284 41.3407 35.98V31.648H40.3207V30.808H40.8967C41.1047 30.808 41.2447 30.768 41.3167 30.688C41.3967 30.6 41.4367 30.452 41.4367 30.244V29.092H42.3007V30.808H43.6567V31.648H42.3007V36.16H43.5607V37H42.3607Z" fill="#888888"/>
</svg>
