<svg width="35" height="40" viewBox="0 0 35 40" fill="none" xmlns="http://www.w3.org/2000/svg">
<path fill-rule="evenodd" clip-rule="evenodd" d="M16.288 17.9391L16.4964 17.5871C16.8304 17.0229 16.9973 16.7407 17.2633 16.5834C17.5293 16.4261 17.8763 16.415 18.5702 16.3928C19.2209 16.372 19.6582 16.3152 20.0321 16.1603C20.8194 15.8342 21.4448 15.2087 21.7709 14.4215C22.0155 13.8311 22.0155 13.0826 22.0155 11.5856V10.943C22.0155 8.83957 22.0155 7.78786 21.542 7.01527C21.2771 6.58296 20.9136 6.21949 20.4813 5.95457C19.7087 5.48112 18.657 5.48112 16.5536 5.48112H14.6259C12.5225 5.48112 11.4708 5.48112 10.6982 5.95457C10.2659 6.21949 9.90243 6.58296 9.63751 7.01527C9.16406 7.78786 9.16406 8.83957 9.16406 10.943V11.5856C9.16406 13.0826 9.16406 13.8311 9.40863 14.4215C9.73471 15.2087 10.3602 15.8342 11.1474 16.1603C11.5213 16.3152 11.9586 16.372 12.6093 16.3928C13.3032 16.415 13.6502 16.4261 13.9162 16.5834C14.1822 16.7407 14.3491 17.0229 14.6831 17.5871L14.8915 17.9391C15.202 18.4637 15.9775 18.4637 16.288 17.9391ZM18.401 11.9068C18.8446 11.9068 19.2042 11.5472 19.2042 11.1036C19.2042 10.66 18.8446 10.3004 18.401 10.3004C17.9574 10.3004 17.5978 10.66 17.5978 11.1036C17.5978 11.5472 17.9574 11.9068 18.401 11.9068ZM16.393 11.1036C16.393 11.5472 16.0334 11.9068 15.5898 11.9068C15.1462 11.9068 14.7866 11.5472 14.7866 11.1036C14.7866 10.66 15.1462 10.3004 15.5898 10.3004C16.0334 10.3004 16.393 10.66 16.393 11.1036ZM12.7785 11.9068C13.2221 11.9068 13.5817 11.5472 13.5817 11.1036C13.5817 10.66 13.2221 10.3004 12.7785 10.3004C12.3349 10.3004 11.9753 10.66 11.9753 11.1036C11.9753 11.5472 12.3349 11.9068 12.7785 11.9068Z" fill="#888888"/>
<path d="M20.1388 1.66602C21.0985 1.66601 21.8617 1.666 22.4738 1.7242C23.1015 1.78388 23.6321 1.90896 24.1048 2.19864C24.5912 2.49668 25.0001 2.90559 25.2981 3.39193C25.5878 3.86465 25.7129 4.3953 25.7725 5.02292C25.8307 5.63501 25.8307 6.39827 25.8307 7.35801V8.01351C25.8307 8.69656 25.8307 9.23986 25.8007 9.68041C25.7699 10.1311 25.7057 10.5182 25.5556 10.8806C25.1887 11.7662 24.4851 12.4699 23.5995 12.8367C23.5773 12.8459 23.5551 12.8547 23.5327 12.8633C23.4258 12.9042 23.3342 12.9392 23.2538 12.9653C23.2655 12.5746 23.2655 12.1296 23.2655 11.6274V10.8838C23.2655 9.8825 23.2655 9.04369 23.2007 8.36175C23.1328 7.64783 22.9851 6.97786 22.6078 6.36215C22.2398 5.76164 21.735 5.25676 21.1345 4.88877C20.5187 4.51146 19.8488 4.36379 19.1349 4.29591C18.4529 4.23107 17.6141 4.23109 16.6128 4.23112H14.5668C13.8867 4.2311 13.2816 4.23109 12.7497 4.25139C12.7745 4.16552 12.8084 4.06709 12.8483 3.95155C12.9161 3.75504 13.0017 3.56919 13.1103 3.39193C13.4084 2.90559 13.8173 2.49668 14.3036 2.19864C14.7763 1.90896 15.307 1.78388 15.9346 1.7242C16.5467 1.666 17.3099 1.66601 18.2697 1.66602H20.1388Z" fill="#888888"/>
<path d="M1.116 37V28.624H6.108V29.512H2.124V32.32H5.76V33.208H2.124V37H1.116ZM9.75844 37.144C9.34244 37.144 8.96244 37.068 8.61844 36.916C8.27444 36.764 7.97844 36.548 7.73044 36.268C7.49044 35.98 7.30244 35.64 7.16644 35.248C7.03044 34.848 6.96244 34.4 6.96244 33.904C6.96244 33.416 7.03044 32.972 7.16644 32.572C7.30244 32.172 7.49044 31.832 7.73044 31.552C7.97844 31.264 8.27444 31.044 8.61844 30.892C8.96244 30.74 9.34244 30.664 9.75844 30.664C10.1744 30.664 10.5504 30.74 10.8864 30.892C11.2304 31.044 11.5264 31.264 11.7744 31.552C12.0224 31.832 12.2144 32.172 12.3504 32.572C12.4864 32.972 12.5544 33.416 12.5544 33.904C12.5544 34.4 12.4864 34.848 12.3504 35.248C12.2144 35.64 12.0224 35.98 11.7744 36.268C11.5264 36.548 11.2304 36.764 10.8864 36.916C10.5504 37.068 10.1744 37.144 9.75844 37.144ZM9.75844 36.292C10.2784 36.292 10.7024 36.132 11.0304 35.812C11.3584 35.492 11.5224 35.004 11.5224 34.348V33.46C11.5224 32.804 11.3584 32.316 11.0304 31.996C10.7024 31.676 10.2784 31.516 9.75844 31.516C9.23844 31.516 8.81444 31.676 8.48644 31.996C8.15844 32.316 7.99444 32.804 7.99444 33.46V34.348C7.99444 35.004 8.15844 35.492 8.48644 35.812C8.81444 36.132 9.23844 36.292 9.75844 36.292ZM14.1333 37V30.808H15.0933V31.948H15.1533C15.2653 31.652 15.4653 31.388 15.7533 31.156C16.0413 30.924 16.4373 30.808 16.9413 30.808H17.3133V31.768H16.7493C16.2293 31.768 15.8213 31.868 15.5253 32.068C15.2373 32.26 15.0933 32.504 15.0933 32.8V37H14.1333ZM22.3555 35.992H22.3075C22.2435 36.136 22.1635 36.28 22.0675 36.424C21.9795 36.56 21.8675 36.684 21.7315 36.796C21.5955 36.9 21.4315 36.984 21.2395 37.048C21.0475 37.112 20.8235 37.144 20.5675 37.144C19.9275 37.144 19.4195 36.94 19.0435 36.532C18.6675 36.116 18.4795 35.532 18.4795 34.78V30.808H19.4395V34.612C19.4395 35.724 19.9115 36.28 20.8555 36.28C21.0475 36.28 21.2315 36.256 21.4075 36.208C21.5915 36.16 21.7515 36.088 21.8875 35.992C22.0315 35.896 22.1435 35.776 22.2235 35.632C22.3115 35.48 22.3555 35.3 22.3555 35.092V30.808H23.3155V37H22.3555V35.992ZM25.3598 37V30.808H26.3198V31.816H26.3678C26.4398 31.656 26.5198 31.508 26.6078 31.372C26.7038 31.228 26.8158 31.104 26.9438 31C27.0798 30.896 27.2358 30.816 27.4118 30.76C27.5878 30.696 27.7958 30.664 28.0358 30.664C28.4438 30.664 28.8198 30.764 29.1638 30.964C29.5078 31.156 29.7638 31.476 29.9318 31.924H29.9558C30.0678 31.588 30.2758 31.296 30.5798 31.048C30.8918 30.792 31.3118 30.664 31.8398 30.664C32.4718 30.664 32.9638 30.872 33.3158 31.288C33.6758 31.696 33.8558 32.276 33.8558 33.028V37H32.8958V33.196C32.8958 32.644 32.7878 32.228 32.5718 31.948C32.3558 31.668 32.0118 31.528 31.5398 31.528C31.3478 31.528 31.1638 31.552 30.9878 31.6C30.8198 31.648 30.6678 31.72 30.5318 31.816C30.3958 31.912 30.2878 32.036 30.2078 32.188C30.1278 32.332 30.0878 32.504 30.0878 32.704V37H29.1278V33.196C29.1278 32.644 29.0198 32.228 28.8038 31.948C28.5878 31.668 28.2518 31.528 27.7958 31.528C27.6038 31.528 27.4198 31.552 27.2438 31.6C27.0678 31.648 26.9118 31.72 26.7758 31.816C26.6398 31.912 26.5278 32.036 26.4398 32.188C26.3598 32.332 26.3198 32.504 26.3198 32.704V37H25.3598Z" fill="#888888"/>
</svg>
