<svg width="20" height="21" viewBox="0 0 20 21" fill="none" xmlns="http://www.w3.org/2000/svg">
<g id="Bold / Arrows Action / Logout 2">
<g id="Vector">
<path fill-rule="evenodd" clip-rule="evenodd" d="M13.4349 10.5006C13.4349 10.1555 13.1551 9.87565 12.8099 9.87565L3.6661 9.87565L5.29997 8.47519C5.56205 8.25055 5.5924 7.85598 5.36776 7.59391C5.14313 7.33183 4.74856 7.30148 4.48648 7.52611L1.56982 10.0261C1.43129 10.1449 1.35156 10.3182 1.35156 10.5006C1.35156 10.6831 1.43129 10.8564 1.56982 10.9752L4.48648 13.4752C4.74856 13.6998 5.14313 13.6695 5.36777 13.4074C5.5924 13.1453 5.56205 12.7508 5.29997 12.5261L3.6661 11.1256L12.8099 11.1257C13.1551 11.1257 13.4349 10.8458 13.4349 10.5006Z" fill="#072C50"/>
<path d="M7.8099 7.16732C7.8099 7.75248 7.8099 8.04506 7.95032 8.25524C8.01113 8.34624 8.08927 8.42438 8.18028 8.48519C8.39046 8.62562 8.68304 8.62562 9.2682 8.62562L12.8099 8.62562C13.8454 8.62562 14.6849 9.46508 14.6849 10.5006C14.6849 11.5362 13.8454 12.3756 12.8099 12.3756L9.26826 12.3756C8.68304 12.3756 8.39043 12.3756 8.18023 12.5161C8.08926 12.5769 8.01114 12.655 7.95035 12.746C7.8099 12.9561 7.8099 13.2488 7.8099 13.834C7.8099 16.191 7.8099 17.3695 8.54213 18.1018C9.27436 18.834 10.4527 18.834 12.8097 18.834L13.643 18.834C16.0001 18.834 17.1786 18.834 17.9108 18.1018C18.643 17.3695 18.643 16.191 18.643 13.834L18.643 7.16732C18.643 4.8103 18.643 3.63178 17.9108 2.89955C17.1786 2.16732 16.0001 2.16732 13.643 2.16732L12.8097 2.16732C10.4527 2.16732 9.27436 2.16732 8.54213 2.89955C7.8099 3.63178 7.8099 4.81029 7.8099 7.16732Z" fill="#072C50"/>
</g>
</g>
</svg>
