<svg width="17" height="16" viewBox="0 0 17 16" fill="none" xmlns="http://www.w3.org/2000/svg">
<g clip-path="url(#clip0_10448_16602)">
<rect width="16" height="16" transform="translate(0.5)" fill="white" fill-opacity="0.01"/>
<path fill-rule="evenodd" clip-rule="evenodd" d="M14.0437 8.43021L14.3888 7.14231L14.3888 7.14231C14.7916 5.63892 14.993 4.88723 14.8413 4.23672C14.7216 3.72308 14.4522 3.25649 14.0672 2.89595C13.5797 2.43933 12.828 2.23792 11.3246 1.83508C9.82126 1.43225 9.06956 1.23084 8.41905 1.38252C7.90541 1.50228 7.43882 1.77167 7.07828 2.15661C6.68733 2.57402 6.48346 3.18508 6.18008 4.29577C6.12913 4.4823 6.07534 4.68306 6.01742 4.89921L5.67232 6.18712L5.67232 6.18712C5.26949 7.6905 5.06808 8.4422 5.21976 9.09271C5.33952 9.60635 5.60891 10.0729 5.99385 10.4335C6.48137 10.8901 7.23307 11.0915 8.73645 11.4943C10.0915 11.8574 10.8359 12.0569 11.4459 11.9816C11.5127 11.9734 11.5779 11.9619 11.6421 11.9469C12.1557 11.8271 12.6223 11.5578 12.9828 11.1728C13.4394 10.6853 13.6409 9.9336 14.0437 8.43021ZM8.48325 6.1824C8.21652 6.11093 7.94235 6.26922 7.87088 6.53595C7.79941 6.80269 7.9577 7.07686 8.22443 7.14833L11.4442 8.01106C11.7109 8.08253 11.9851 7.92424 12.0566 7.6575C12.128 7.39077 11.9697 7.1166 11.703 7.04513L8.48325 6.1824ZM7.96535 8.11404C7.69861 8.04257 7.42445 8.20086 7.35297 8.4676C7.2815 8.73433 7.4398 9.0085 7.70653 9.07997L9.63838 9.59761C9.90511 9.66908 10.1793 9.51079 10.2508 9.24405C10.3222 8.97732 10.1639 8.70315 9.8972 8.63168L7.96535 8.11404ZM2.68408 11.0973L2.33899 9.80937C1.93616 8.30598 1.73474 7.55429 1.88642 6.90377C2.00619 6.39013 2.27557 5.92354 2.66052 5.563C3.10994 5.14207 3.78387 4.93801 5.06423 4.5931L5.05171 4.63986L4.69544 5.96944L4.69544 5.96946C4.50333 6.68635 4.34299 7.2847 4.25371 7.78398C4.16055 8.305 4.12638 8.80756 4.24588 9.32005C4.41056 10.0263 4.78096 10.6679 5.31026 11.1636C5.69434 11.5233 6.14665 11.745 6.64445 11.9249C7.11781 12.0959 7.71065 12.255 8.42024 12.4452L8.43673 12.4496L8.50794 12.4686C9.16006 12.6434 9.71148 12.7912 10.1756 12.8834C10.4039 12.9288 10.6286 12.9647 10.8514 12.9834C10.8136 13.0236 10.7744 13.0626 10.7339 13.1005C10.2464 13.5572 9.4947 13.7586 7.99131 14.1614C6.48792 14.5642 5.73623 14.7656 5.08571 14.614C4.57207 14.4942 4.10548 14.2248 3.74495 13.8399C3.28833 13.3523 3.08691 12.6007 2.68408 11.0973Z" fill="white"/>
</g>
<defs>
<clipPath id="clip0_10448_16602">
<rect width="16" height="16" fill="white" transform="translate(0.5)"/>
</clipPath>
</defs>
</svg>
