<svg width="20" height="21" viewBox="0 0 20 21" fill="none" xmlns="http://www.w3.org/2000/svg">
<path fill-rule="evenodd" clip-rule="evenodd" d="M3.47631 3.14233C2.5 4.11864 2.5 5.68999 2.5 8.83268V12.166C2.5 15.3087 2.5 16.8801 3.47631 17.8564C4.45262 18.8327 6.02397 18.8327 9.16667 18.8327H10.8333C13.976 18.8327 15.5474 18.8327 16.5237 17.8564C17.5 16.8801 17.5 15.3087 17.5 12.166V8.83268C17.5 5.68999 17.5 4.11864 16.5237 3.14233C15.5474 2.16602 13.976 2.16602 10.8333 2.16602H9.16667C6.02397 2.16602 4.45262 2.16602 3.47631 3.14233ZM6.66667 8.20768C6.32149 8.20768 6.04167 8.4875 6.04167 8.83268C6.04167 9.17786 6.32149 9.45768 6.66667 9.45768H13.3333C13.6785 9.45768 13.9583 9.17786 13.9583 8.83268C13.9583 8.4875 13.6785 8.20768 13.3333 8.20768H6.66667ZM6.66667 11.541C6.32149 11.541 6.04167 11.8208 6.04167 12.166C6.04167 12.5112 6.32149 12.791 6.66667 12.791H10.8333C11.1785 12.791 11.4583 12.5112 11.4583 12.166C11.4583 11.8208 11.1785 11.541 10.8333 11.541H6.66667Z" fill="#3A86FF"/>
</svg>
