<svg width="12" height="16" viewBox="0 0 12 16" fill="none" xmlns="http://www.w3.org/2000/svg">
<path fill-rule="evenodd" clip-rule="evenodd" d="M7.39689 1.59471C8.4112 0.580408 10.0557 0.580408 11.07 1.59471C12.0843 2.60902 12.0843 4.25353 11.07 5.26783L6.00734 10.3305C5.72201 10.6159 5.54776 10.7901 5.35354 10.9416C5.12472 11.1201 4.87714 11.2731 4.61517 11.398C4.39283 11.5039 4.15902 11.5819 3.77618 11.7094L1.99441 12.3034L1.56664 12.446C1.18374 12.5736 0.76159 12.4739 0.476193 12.1885C0.190795 11.9031 0.0911403 11.481 0.218774 11.0981L0.955285 8.88855C1.08288 8.5057 1.1608 8.2719 1.26676 8.04955C1.39161 7.78759 1.54462 7.54001 1.7231 7.31119C1.87458 7.11697 2.04886 6.94272 2.33423 6.65738L7.39689 1.59471ZM1.97135 11.257L1.40777 10.6934L1.89338 9.23654C2.03477 8.81237 2.09317 8.63991 2.16949 8.47977C2.26309 8.28337 2.3778 8.09776 2.51161 7.92621C2.62071 7.78633 2.74885 7.65697 3.065 7.34082L6.99232 3.4135C7.15443 3.82016 7.42871 4.31098 7.89123 4.7735C8.35375 5.23602 8.84457 5.5103 9.25123 5.67241L5.32391 9.59972C5.00776 9.91588 4.8784 10.044 4.73852 10.1531C4.56697 10.2869 4.38135 10.4016 4.18495 10.4952C4.02482 10.5716 3.85236 10.63 3.42819 10.7713L1.97135 11.257ZM10.048 4.87559C9.9655 4.85747 9.86228 4.8302 9.74492 4.78948C9.42224 4.67753 8.99779 4.46584 8.59834 4.06639C8.19889 3.66694 7.9872 3.24249 7.87525 2.91981C7.83453 2.80245 7.80726 2.69923 7.78914 2.61668L8.104 2.30182C8.72778 1.67804 9.73913 1.67804 10.3629 2.30182C10.9867 2.9256 10.9867 3.93695 10.3629 4.56073L10.048 4.87559ZM0.164076 14.6673C0.164076 14.3912 0.387934 14.1673 0.664076 14.1673H11.3307V15.1673H0.664076C0.387934 15.1673 0.164076 14.9435 0.164076 14.6673Z" fill="#4C495A"/>
</svg>
