<svg width="161" height="51" viewBox="0 0 161 51" fill="none" xmlns="http://www.w3.org/2000/svg">
<g clip-path="url(#clip0_10150_53786)">
<path d="M52.0624 20.8353V30.9508C52.0627 31.1989 52.0132 31.4444 51.9168 31.6726C51.8205 31.9007 51.6794 32.1065 51.5021 32.2776C51.3248 32.4487 51.115 32.5815 50.8855 32.6679C50.656 32.7542 50.4115 32.7924 50.167 32.78H19.8046C19.5601 32.7924 19.3156 32.7542 19.086 32.6679C18.8565 32.5815 18.6467 32.4487 18.4694 32.2776C18.2921 32.1065 18.151 31.9007 18.0547 31.6726C17.9584 31.4444 17.9089 31.1989 17.9092 30.9508V20.8353C17.9089 20.5872 17.9584 20.3416 18.0547 20.1135C18.151 19.8854 18.2921 19.6795 18.4694 19.5084C18.6467 19.3373 18.8565 19.2045 19.086 19.1182C19.3156 19.0318 19.5601 18.9937 19.8046 19.0061H50.167C50.4115 18.9937 50.656 19.0318 50.8855 19.1182C51.115 19.2045 51.3248 19.3373 51.5021 19.5084C51.6794 19.6795 51.8205 19.8854 51.9168 20.1135C52.0132 20.3416 52.0627 20.5872 52.0624 20.8353ZM50.167 36.2371H19.8046C19.5523 36.224 19.3 36.2647 19.0642 36.3566C18.8284 36.4484 18.6142 36.5895 18.4355 36.7705C18.2569 36.9515 18.1177 37.1686 18.027 37.4075C17.9364 37.6465 17.8962 37.9021 17.9092 38.1578V48.2733C17.9089 48.5214 17.9584 48.7669 18.0547 48.9951C18.151 49.2232 18.2921 49.429 18.4694 49.6001C18.6467 49.7713 18.8565 49.904 19.086 49.9904C19.3156 50.0767 19.5601 50.1149 19.8046 50.1025H48.2716C49.2738 50.1025 50.2353 49.7003 50.9457 48.9838C51.6561 48.2674 52.0576 47.295 52.0624 46.2794V38.1578C52.0753 37.9021 52.0352 37.6465 51.9445 37.4075C51.8538 37.1686 51.7147 36.9515 51.536 36.7705C51.3574 36.5895 51.1432 36.4484 50.9074 36.3566C50.6715 36.2647 50.4193 36.224 50.167 36.2371ZM48.3618 1.59213H19.8046C19.5601 1.57973 19.3156 1.61786 19.086 1.70422C18.8565 1.79057 18.6467 1.92334 18.4694 2.09445C18.2921 2.26556 18.151 2.47143 18.0547 2.69954C17.9584 2.92765 17.9089 3.17322 17.9092 3.42133V13.5368C17.9089 13.7849 17.9584 14.0305 18.0547 14.2586C18.151 14.4867 18.2921 14.6926 18.4694 14.8637C18.6467 15.0348 18.8565 15.1676 19.086 15.2539C19.3156 15.3403 19.5601 15.3784 19.8046 15.366H50.167C50.4115 15.3784 50.656 15.3403 50.8855 15.2539C51.115 15.1676 51.3248 15.0348 51.5021 14.8637C51.6794 14.6926 51.8205 14.4867 51.9168 14.2586C52.0132 14.0305 52.0627 13.7849 52.0624 13.5368V5.43345C52.0624 4.41467 51.663 3.43761 50.9521 2.71723C50.2411 1.99684 49.2769 1.59213 48.2716 1.59213H48.3618ZM11.9161 28.1338H1.89765C1.4189 28.1338 0.959755 28.3265 0.621226 28.6696C0.282698 29.0126 0.0925142 29.4779 0.0925142 29.963V46.1514C0.0972869 47.167 0.498778 48.1394 1.20917 48.8558C1.91956 49.5722 2.88104 49.9744 3.8833 49.9744H11.9161C12.3949 49.9744 12.854 49.7817 13.1926 49.4387C13.5311 49.0956 13.7213 48.6304 13.7213 48.1452V30.0362C13.731 29.7899 13.6915 29.5441 13.6052 29.3137C13.5188 29.0832 13.3874 28.8728 13.2188 28.6952C13.0502 28.5175 12.8479 28.3762 12.624 28.2797C12.4002 28.1832 12.1594 28.1336 11.9161 28.1338ZM11.9161 1.61042H3.79304C2.78766 1.61042 1.82346 2.01513 1.11255 2.73552C0.401643 3.4559 0.00225801 4.43296 0.00225801 5.45174V21.7865C-0.00998437 22.0343 0.0276485 22.282 0.112868 22.5146C0.198087 22.7472 0.32911 22.9598 0.497968 23.1395C0.666826 23.3191 0.869988 23.4621 1.0951 23.5597C1.3202 23.6573 1.56255 23.7074 1.80739 23.7071H11.9161C12.161 23.7074 12.4033 23.6573 12.6284 23.5597C12.8536 23.4621 13.0567 23.3191 13.2256 23.1395C13.3944 22.9598 13.5255 22.7472 13.6107 22.5146C13.6959 22.282 13.7335 22.0343 13.7213 21.7865V3.4945C13.7285 3.24971 13.6872 3.00593 13.5997 2.77763C13.5123 2.54933 13.3805 2.34115 13.2121 2.16544C13.0438 1.98973 12.8423 1.85006 12.6197 1.75472C12.3971 1.65938 12.1578 1.61031 11.9161 1.61042Z" fill="white"/>
<path d="M98.9949 40.7734H99.9516L99.3378 43.9013C99.4927 43.5612 99.7137 43.2564 99.9877 43.005C100.244 42.8005 100.564 42.6965 100.89 42.7123C101.087 42.7037 101.282 42.7423 101.461 42.825C101.64 42.9076 101.797 43.032 101.919 43.1879C102.175 43.5701 102.301 44.0256 102.28 44.4867C102.282 44.9008 102.227 45.3132 102.118 45.7122C102.024 46.0879 101.871 46.446 101.666 46.7732C101.473 47.0607 101.228 47.3089 100.944 47.5048C100.657 47.6852 100.326 47.7803 99.9877 47.7792C99.6996 47.7839 99.4167 47.701 99.1754 47.5414C99.063 47.4604 98.9683 47.3569 98.8969 47.2374C98.8255 47.1178 98.7789 46.9848 98.7602 46.8463L98.5616 47.706H97.6049L98.9949 40.7734ZM99.8433 46.9561C100 46.9587 100.157 46.9293 100.302 46.8696C100.448 46.8099 100.58 46.7211 100.692 46.6085C100.934 46.3383 101.091 46.0006 101.143 45.6391L101.269 44.9622C101.279 44.8772 101.279 44.7912 101.269 44.7062C101.279 44.6211 101.279 44.5352 101.269 44.4501C101.276 44.2145 101.206 43.9832 101.071 43.7916C101.001 43.7063 100.912 43.6388 100.812 43.5943C100.712 43.5499 100.602 43.5297 100.493 43.5355C100.317 43.5366 100.144 43.5805 99.9877 43.6635C99.8375 43.7571 99.6983 43.8676 99.5725 43.9928C99.4438 44.1426 99.3346 44.3086 99.2476 44.4867C99.1571 44.6724 99.0903 44.8691 99.049 45.072L98.8866 45.9683C98.8486 46.0869 98.842 46.2134 98.8673 46.3354C98.8926 46.4573 98.9491 46.5704 99.031 46.6634C99.1325 46.7757 99.2596 46.861 99.4012 46.9121C99.5428 46.9631 99.6946 46.9782 99.8433 46.9561ZM106.468 42.8221H107.587L104.392 48.6206L104.139 49.0414C104.057 49.1467 103.96 49.2391 103.851 49.3157C103.748 49.3921 103.631 49.4479 103.508 49.4804C103.364 49.5004 103.218 49.5004 103.074 49.4804H102.352L102.497 48.6572H103.381L103.833 47.8158L103.093 42.7672H103.977L104.266 44.9074L104.446 46.7366L105.295 44.9074L106.468 42.8221ZM108.057 47.706C107.904 47.7551 107.74 47.7551 107.587 47.706C107.545 47.663 107.512 47.6115 107.49 47.5549C107.468 47.4982 107.458 47.4375 107.461 47.3768C107.453 47.3161 107.453 47.2546 107.461 47.1939C107.461 47.1939 107.461 47.0658 107.461 47.0109C107.496 46.8541 107.571 46.7092 107.678 46.5902C107.826 46.4711 108.012 46.4124 108.201 46.4256C108.356 46.411 108.511 46.4568 108.634 46.5536C108.677 46.5967 108.71 46.6482 108.732 46.7048C108.753 46.7615 108.763 46.8221 108.761 46.8829C108.768 46.9375 108.768 46.9929 108.761 47.0475C108.761 47.0475 108.761 47.1939 108.761 47.2487C108.729 47.4017 108.654 47.5418 108.544 47.6512C108.394 47.7314 108.22 47.751 108.057 47.706ZM108.797 44.0476C108.719 44.0533 108.64 44.0433 108.566 44.0182C108.491 43.9931 108.423 43.9534 108.364 43.9013C108.321 43.8626 108.287 43.8145 108.265 43.7606C108.243 43.7067 108.234 43.6485 108.237 43.5904V43.4074C108.234 43.3465 108.234 43.2854 108.237 43.2245C108.268 43.0661 108.343 42.9201 108.454 42.8038C108.595 42.6842 108.776 42.6251 108.959 42.6392C109.115 42.6226 109.27 42.6686 109.392 42.7672C109.439 42.8078 109.476 42.8584 109.501 42.9154C109.526 42.9723 109.538 43.0342 109.537 43.0965C109.544 43.1511 109.544 43.2065 109.537 43.2611C109.545 43.3279 109.545 43.3955 109.537 43.4623C109.515 43.6146 109.446 43.7558 109.338 43.8647C109.265 43.9309 109.179 43.9813 109.086 44.0127C108.993 44.0442 108.895 44.0561 108.797 44.0476ZM115.819 41.9807L114.808 47.706H113.725L114.808 42.0538H113.003L113.183 41.1575H117.859L117.678 42.0538L115.819 41.9807ZM118.869 47.706C118.629 47.7188 118.389 47.6798 118.165 47.5915C117.941 47.5032 117.738 47.3677 117.57 47.1939C117.39 46.9916 117.252 46.7543 117.165 46.4965C117.078 46.2386 117.044 45.9656 117.064 45.6939C117.068 45.2969 117.129 44.9026 117.245 44.5232C117.36 44.1652 117.537 43.8307 117.768 43.5355C117.979 43.2637 118.243 43.0394 118.544 42.877C118.85 42.713 119.192 42.6311 119.537 42.6392C119.777 42.6264 120.017 42.6654 120.241 42.7537C120.466 42.842 120.669 42.9775 120.837 43.1513C121.193 43.5578 121.374 44.0907 121.342 44.633C121.342 45.0377 121.275 45.4395 121.144 45.822C121.038 46.1749 120.866 46.5039 120.638 46.7914C120.434 47.0821 120.163 47.3175 119.848 47.4769C119.534 47.6364 119.185 47.7151 118.833 47.706H118.869ZM118.869 46.9012C119.169 46.8959 119.454 46.771 119.664 46.5536C119.91 46.2784 120.067 45.9339 120.115 45.5659L120.277 44.7976C120.277 44.7976 120.277 44.6879 120.277 44.633V44.4318C120.287 44.303 120.271 44.1736 120.231 44.0511C120.191 43.9286 120.127 43.8155 120.043 43.7184C119.957 43.6222 119.85 43.5474 119.731 43.4998C119.612 43.4522 119.484 43.4331 119.357 43.444C119.21 43.4432 119.064 43.4719 118.927 43.5284C118.791 43.5849 118.667 43.6681 118.563 43.7733C118.322 44.0542 118.16 44.3953 118.093 44.761L117.949 45.5476C117.949 45.5476 117.949 45.6573 117.949 45.7122V45.9134C117.935 46.1728 118.019 46.4278 118.183 46.6268C118.268 46.7472 118.383 46.8428 118.516 46.9038C118.65 46.9648 118.796 46.9891 118.942 46.9744L118.869 46.9012ZM123.057 47.5963C122.824 47.6121 122.592 47.5405 122.407 47.3951C122.337 47.3273 122.283 47.2444 122.249 47.1526C122.215 47.0608 122.201 46.9624 122.209 46.8646V46.6817C122.202 46.6209 122.202 46.5596 122.209 46.4988L122.787 43.5538H122.083L122.245 42.7489H122.606C122.736 42.7609 122.865 42.7216 122.967 42.6392C123.039 42.5281 123.088 42.4037 123.111 42.2733L123.274 41.4136H124.158L123.906 42.7489H124.862L124.7 43.5538H123.834L123.202 46.7732H124.122L123.96 47.5963H123.057ZM128.617 47.5963C128.434 47.6104 128.253 47.5513 128.112 47.4317C128.048 47.3707 127.997 47.2969 127.963 47.2151C127.929 47.1332 127.912 47.045 127.913 46.9561C127.902 46.865 127.902 46.7728 127.913 46.6817V46.5171C127.754 46.8543 127.533 47.1583 127.263 47.4134C126.997 47.6124 126.673 47.7154 126.343 47.706C126.147 47.7159 125.952 47.6758 125.775 47.5895C125.599 47.5032 125.446 47.3735 125.332 47.2122C125.077 46.8368 124.95 46.387 124.971 45.9317C124.969 45.5116 125.024 45.0931 125.133 44.6879C125.22 44.3155 125.373 43.9623 125.584 43.6452C125.768 43.3494 126.015 43.0993 126.307 42.9135C126.594 42.7331 126.925 42.6381 127.263 42.6392C127.552 42.631 127.836 42.7141 128.076 42.877C128.296 43.0393 128.444 43.2821 128.491 43.5538L128.653 42.7489H129.61L128.816 46.7732H129.429L129.267 47.5963H128.617ZM126.812 46.8829C126.996 46.8825 127.177 46.832 127.335 46.7366C127.488 46.6543 127.623 46.5424 127.733 46.4073C128.012 46.1101 128.194 45.7335 128.256 45.3281L128.455 44.3403C128.481 44.2384 128.481 44.1312 128.455 44.0294C128.422 43.9263 128.367 43.8324 128.292 43.755C128.206 43.6616 128.101 43.5869 127.985 43.5355C127.842 43.515 127.696 43.515 127.552 43.5355C127.396 43.5283 127.24 43.5539 127.094 43.6105C126.948 43.6672 126.815 43.7537 126.704 43.8647C126.465 44.1379 126.309 44.4742 126.252 44.8342L126.108 45.5293C126.108 45.5293 126.108 45.6756 126.108 45.7671V46.0232C126.096 46.2624 126.159 46.4994 126.289 46.7C126.355 46.7803 126.438 46.8449 126.531 46.8892C126.625 46.9334 126.727 46.9563 126.83 46.9561L126.812 46.8829ZM131.162 47.5963C130.971 47.6044 130.784 47.5391 130.639 47.4134C130.577 47.3515 130.529 47.2771 130.498 47.1952C130.467 47.1132 130.454 47.0255 130.458 46.9378C130.451 46.8587 130.451 46.7791 130.458 46.7L131.65 40.7002H132.606L131.397 46.7732H132.065L131.902 47.5963H131.162ZM136 47.5963H135.025L136.325 41.0844H138.708C139.181 41.0519 139.648 41.2096 140.008 41.5234C140.153 41.6793 140.266 41.8633 140.341 42.0643C140.415 42.2654 140.449 42.4795 140.441 42.694C140.443 42.9362 140.406 43.1771 140.332 43.4074C140.289 43.6351 140.203 43.8524 140.08 44.0476C139.942 44.2481 139.763 44.4165 139.556 44.5415C139.352 44.6928 139.118 44.7988 138.87 44.8525L139.665 47.706H138.6L137.823 45.072H136.469L136 47.5963ZM138.275 44.1757C138.516 44.1841 138.752 44.1065 138.942 43.9562C139.125 43.7934 139.252 43.5754 139.304 43.3343C139.304 43.1696 139.304 43.0233 139.304 42.9318C139.311 42.8527 139.311 42.7731 139.304 42.694C139.307 42.6092 139.292 42.5247 139.261 42.4459C139.23 42.3671 139.183 42.2958 139.123 42.2367C139.045 42.1667 138.953 42.1142 138.853 42.0827C138.754 42.0512 138.649 42.0414 138.545 42.0538H137.029L136.614 44.1757H138.275ZM142.643 47.8341C142.385 47.8533 142.125 47.8159 141.882 47.7243C141.639 47.6328 141.418 47.4893 141.235 47.3036C140.89 46.8775 140.716 46.3355 140.748 45.7854C140.743 45.3937 140.804 45.004 140.928 44.633C141.046 44.2907 141.216 43.9696 141.434 43.6818C141.652 43.3981 141.929 43.167 142.246 43.005C142.752 42.761 143.327 42.7028 143.871 42.8404C144.051 42.8896 144.222 42.97 144.376 43.0782C144.537 43.1743 144.668 43.3136 144.755 43.4806C144.854 43.6659 144.903 43.8738 144.899 44.0842C144.903 44.3386 144.831 44.5882 144.693 44.8004C144.554 45.0126 144.356 45.1774 144.123 45.2732C143.365 45.5984 142.546 45.7544 141.722 45.7305C141.714 45.834 141.714 45.938 141.722 46.0415C141.709 46.3008 141.792 46.5558 141.957 46.7549C142.06 46.8541 142.182 46.93 142.316 46.9773C142.45 47.0246 142.592 47.0423 142.733 47.0292C142.979 47.027 143.221 46.9642 143.437 46.8463C143.677 46.7009 143.891 46.5153 144.069 46.2976L144.665 46.8097C144.413 47.1386 144.092 47.4071 143.726 47.5963C143.378 47.7158 143.008 47.7533 142.643 47.706V47.8341ZM143.221 43.5355C143.06 43.5304 142.901 43.5586 142.752 43.6183C142.603 43.6781 142.468 43.7682 142.354 43.883C142.104 44.1283 141.939 44.4493 141.885 44.7976V45.0537C142.318 45.0537 142.679 45.0537 142.95 44.944C143.174 44.9248 143.393 44.8692 143.6 44.7793C143.736 44.7284 143.851 44.6315 143.925 44.505C143.952 44.3845 143.952 44.2595 143.925 44.1391C143.947 44.0429 143.947 43.9427 143.925 43.8464C143.879 43.7674 143.817 43.6988 143.744 43.6452L143.509 43.5538L143.221 43.5355ZM147.3 47.706C147.061 47.7123 146.823 47.6702 146.6 47.5823C146.377 47.4943 146.173 47.3623 146.001 47.1939C145.651 46.7704 145.476 46.2265 145.513 45.6756C145.508 45.2719 145.569 44.8702 145.694 44.4867C145.793 44.1348 145.959 43.8057 146.181 43.5172C146.387 43.2458 146.653 43.0266 146.957 42.877C147.256 42.7129 147.592 42.631 147.932 42.6392C148.323 42.6192 148.709 42.7283 149.033 42.9501C149.313 43.1581 149.507 43.4648 149.575 43.8099L148.78 44.1391C148.727 43.9428 148.621 43.7655 148.474 43.6269C148.312 43.4911 148.105 43.4254 147.896 43.444C147.596 43.4367 147.304 43.5482 147.084 43.755C146.857 44.0104 146.713 44.3292 146.668 44.6696L146.506 45.4744C146.49 45.6142 146.49 45.7554 146.506 45.8951C146.5 46.1533 146.583 46.4054 146.741 46.6085C146.827 46.7095 146.936 46.7885 147.058 46.8393C147.181 46.8901 147.313 46.9113 147.445 46.9012C147.669 46.9045 147.886 46.8267 148.058 46.6817C148.264 46.4946 148.436 46.2716 148.564 46.0232L149.286 46.3707C149.118 46.7691 148.843 47.1114 148.492 47.3585C148.147 47.6132 147.725 47.7364 147.3 47.706ZM153.51 47.706C153.327 47.7164 153.147 47.6577 153.005 47.5414C152.943 47.4796 152.895 47.4052 152.864 47.3232C152.833 47.2412 152.819 47.1535 152.824 47.0658C152.814 46.9747 152.814 46.8826 152.824 46.7914V46.6268C152.664 46.964 152.444 47.268 152.174 47.5231C151.914 47.7195 151.596 47.8225 151.272 47.8158C151.073 47.8238 150.876 47.7831 150.697 47.6971C150.518 47.611 150.362 47.4823 150.243 47.3219C149.994 46.9443 149.873 46.4947 149.9 46.0415C149.892 45.6221 149.941 45.2037 150.044 44.7976C150.14 44.4283 150.292 44.0765 150.495 43.755C150.684 43.4632 150.929 43.2141 151.217 43.0233C151.505 42.8429 151.836 42.7478 152.174 42.7489C152.463 42.7356 152.749 42.8192 152.986 42.9867C153.098 43.0641 153.193 43.1643 153.264 43.2808C153.336 43.3973 153.383 43.5277 153.402 43.6635L153.546 42.8587H154.521L153.727 46.8829H154.34L154.196 47.706H153.51ZM151.705 46.9927C151.889 46.9941 152.071 46.9435 152.228 46.8463C152.386 46.7648 152.527 46.653 152.643 46.5171C152.909 46.2106 153.09 45.8382 153.167 45.4378L153.366 44.4501C153.383 44.3472 153.383 44.242 153.366 44.1391C153.334 44.0315 153.271 43.9361 153.185 43.8647C153.102 43.7672 152.997 43.6918 152.878 43.6452C152.74 43.6262 152.601 43.6262 152.463 43.6452C152.304 43.6377 152.145 43.663 151.996 43.7196C151.847 43.7762 151.711 43.8629 151.596 43.9745C151.358 44.2477 151.202 44.584 151.145 44.944L151.019 45.6391C151.009 45.718 151.009 45.7979 151.019 45.8769C151.011 45.962 151.011 46.0478 151.019 46.1329C151.016 46.3712 151.078 46.6055 151.199 46.8097C151.329 46.9099 151.488 46.9616 151.651 46.9561L151.705 46.9927ZM156.073 47.706C155.877 47.7135 155.684 47.6485 155.532 47.5231C155.414 47.3935 155.35 47.2235 155.351 47.0475C155.345 46.9684 155.345 46.8889 155.351 46.8097L156.525 40.81H157.481L156.326 46.8463H156.976L156.831 47.6695L156.073 47.706ZM158.492 47.706C158.302 47.7107 158.116 47.6458 157.969 47.5231C157.907 47.4613 157.859 47.3869 157.828 47.3049C157.797 47.223 157.783 47.1352 157.788 47.0475C157.78 46.9685 157.78 46.8888 157.788 46.8097L158.979 40.81H159.936L158.727 46.8829H159.395L159.232 47.706H158.492ZM66.4844 37.6637H91.2328V30.5299H74.4089V22.5729H88.85V15.439H74.4089V7.93929H91.2328V0.823707H66.4844V37.6637ZM125.639 7.81124C125.154 6.45023 124.398 5.2049 123.418 4.15285C122.424 3.08278 121.21 2.24618 119.862 1.70172C118.415 1.09753 116.861 0.798779 115.295 0.823707H98.0923V37.6637H106.017V24.3655H115.295C116.861 24.3904 118.415 24.0917 119.862 23.4875C121.169 22.9408 122.349 22.1247 123.328 21.0912C124.307 20.0379 125.062 18.7929 125.548 17.4328C126.086 15.8885 126.349 14.2596 126.325 12.622C126.377 10.9901 126.144 9.36157 125.639 7.81124ZM118.238 13.7561C118.272 14.2546 118.2 14.7547 118.025 15.2221C117.851 15.6895 117.578 16.1129 117.227 16.4633C116.449 17.1185 115.456 17.4518 114.447 17.3962H106.017V7.79295H114.357C115.363 7.73945 116.353 8.06524 117.136 8.70755C117.487 9.06288 117.758 9.48979 117.932 9.95978C118.106 10.4298 118.18 10.932 118.147 11.4331L118.238 13.7561ZM153.871 23.1948C155.951 22.4765 157.715 21.0388 158.853 19.134C159.984 17.1455 160.552 14.8797 160.496 12.5854C160.51 10.9547 160.247 9.33358 159.72 7.79295C159.224 6.43721 158.47 5.19395 157.499 4.13456C156.525 3.09516 155.344 2.27824 154.033 1.73831C152.593 1.15815 151.053 0.8722 149.503 0.896874H132.263V37.6637H140.188V24.146H145.856L152.21 37.6637H161.019L153.871 23.1948ZM152.319 13.7561C152.353 14.2546 152.281 14.7547 152.106 15.2221C151.932 15.6895 151.659 16.1129 151.308 16.4633C150.525 17.1213 149.525 17.4546 148.51 17.3962H140.188V7.79295H148.51C149.522 7.73662 150.519 8.06247 151.308 8.70755C151.658 9.06288 151.929 9.48979 152.103 9.95978C152.278 10.4298 152.351 10.932 152.319 11.4331V13.7561Z" fill="white"/>
</g>
<defs>
<clipPath id="clip0_10150_53786">
<rect width="161" height="49.3518" fill="white" transform="translate(0 0.824219)"/>
</clipPath>
</defs>
</svg>
