<svg width="44" height="40" viewBox="0 0 44 40" fill="none" xmlns="http://www.w3.org/2000/svg">
<path d="M26.1654 9.99935C28.4666 9.99935 30.332 8.13387 30.332 5.83268C30.332 3.5315 28.4666 1.66602 26.1654 1.66602C23.8642 1.66602 21.9987 3.5315 21.9987 5.83268C21.9987 6.49922 22.1552 7.1292 22.4335 7.68788C22.5074 7.83635 22.532 8.00604 22.4892 8.16627L22.241 9.09379C22.1333 9.49643 22.5016 9.86478 22.9043 9.75705L23.8318 9.50888C23.992 9.46601 24.1617 9.49062 24.3102 9.56457C24.8688 9.84284 25.4988 9.99935 26.1654 9.99935Z" fill="#888888"/>
<path d="M18.6993 6.09681L19.2401 7.06592C19.7282 7.94048 19.5323 9.08777 18.7636 9.8565C18.7636 9.8565 18.7636 9.8565 18.7636 9.8565C18.7634 9.85662 17.8312 10.7891 19.5217 12.4796C21.2116 14.1694 22.144 13.2386 22.1448 13.2377C22.1448 13.2377 22.1448 13.2377 22.1448 13.2377C22.9136 12.469 24.0608 12.2731 24.9354 12.7612L25.9045 13.302C27.2251 14.039 27.3811 15.891 26.2203 17.0518C25.5228 17.7493 24.6683 18.2921 23.7237 18.3279C22.1336 18.3882 19.4332 17.9857 16.7244 15.2769C14.0156 12.5681 13.6131 9.86769 13.6734 8.27757C13.7092 7.333 14.252 6.47853 14.9495 5.78103C16.1103 4.62023 17.9623 4.7762 18.6993 6.09681Z" fill="#888888"/>
<path d="M3.468 37.144C2.788 37.144 2.208 37.016 1.728 36.76C1.248 36.496 0.84 36.136 0.504 35.68L1.248 35.056C1.544 35.448 1.872 35.748 2.232 35.956C2.592 36.156 3.016 36.256 3.504 36.256C4.104 36.256 4.56 36.112 4.872 35.824C5.192 35.536 5.352 35.152 5.352 34.672C5.352 34.272 5.232 33.964 4.992 33.748C4.752 33.532 4.356 33.36 3.804 33.232L3.12 33.076C2.352 32.9 1.764 32.636 1.356 32.284C0.956 31.924 0.756 31.42 0.756 30.772C0.756 30.404 0.824 30.076 0.96 29.788C1.096 29.5 1.284 29.26 1.524 29.068C1.772 28.876 2.064 28.732 2.4 28.636C2.744 28.532 3.12 28.48 3.528 28.48C4.16 28.48 4.7 28.596 5.148 28.828C5.604 29.06 5.988 29.4 6.3 29.848L5.544 30.4C5.312 30.08 5.032 29.828 4.704 29.644C4.376 29.46 3.968 29.368 3.48 29.368C2.944 29.368 2.52 29.484 2.208 29.716C1.904 29.94 1.752 30.28 1.752 30.736C1.752 31.136 1.88 31.44 2.136 31.648C2.4 31.848 2.796 32.008 3.324 32.128L4.008 32.284C4.832 32.468 5.428 32.748 5.796 33.124C6.164 33.5 6.348 34 6.348 34.624C6.348 35.008 6.28 35.356 6.144 35.668C6.016 35.98 5.828 36.244 5.58 36.46C5.332 36.676 5.028 36.844 4.668 36.964C4.316 37.084 3.916 37.144 3.468 37.144ZM11.8087 35.992H11.7607C11.6967 36.136 11.6167 36.28 11.5207 36.424C11.4327 36.56 11.3207 36.684 11.1847 36.796C11.0487 36.9 10.8847 36.984 10.6927 37.048C10.5007 37.112 10.2767 37.144 10.0207 37.144C9.38066 37.144 8.87266 36.94 8.49666 36.532C8.12066 36.116 7.93266 35.532 7.93266 34.78V30.808H8.89266V34.612C8.89266 35.724 9.36466 36.28 10.3087 36.28C10.5007 36.28 10.6847 36.256 10.8607 36.208C11.0447 36.16 11.2047 36.088 11.3407 35.992C11.4847 35.896 11.5967 35.776 11.6767 35.632C11.7647 35.48 11.8087 35.3 11.8087 35.092V30.808H12.7687V37H11.8087V35.992ZM14.813 30.808H15.773V31.816H15.821C15.981 31.424 16.213 31.136 16.517 30.952C16.829 30.76 17.201 30.664 17.633 30.664C18.017 30.664 18.365 30.74 18.677 30.892C18.989 31.044 19.253 31.26 19.469 31.54C19.693 31.82 19.861 32.16 19.973 32.56C20.093 32.96 20.153 33.408 20.153 33.904C20.153 34.4 20.093 34.848 19.973 35.248C19.861 35.648 19.693 35.988 19.469 36.268C19.253 36.548 18.989 36.764 18.677 36.916C18.365 37.068 18.017 37.144 17.633 37.144C16.793 37.144 16.189 36.76 15.821 35.992H15.773V39.4H14.813V30.808ZM17.369 36.28C17.913 36.28 18.341 36.112 18.653 35.776C18.965 35.432 19.121 34.984 19.121 34.432V33.376C19.121 32.824 18.965 32.38 18.653 32.044C18.341 31.7 17.913 31.528 17.369 31.528C17.153 31.528 16.945 31.56 16.745 31.624C16.553 31.68 16.385 31.76 16.241 31.864C16.097 31.968 15.981 32.096 15.893 32.248C15.813 32.392 15.773 32.548 15.773 32.716V35.02C15.773 35.22 15.813 35.4 15.893 35.56C15.981 35.712 16.097 35.844 16.241 35.956C16.385 36.06 16.553 36.14 16.745 36.196C16.945 36.252 17.153 36.28 17.369 36.28ZM21.7739 30.808H22.7339V31.816H22.7819C22.9419 31.424 23.1739 31.136 23.4779 30.952C23.7899 30.76 24.1619 30.664 24.5939 30.664C24.9779 30.664 25.3259 30.74 25.6379 30.892C25.9499 31.044 26.2139 31.26 26.4299 31.54C26.6539 31.82 26.8219 32.16 26.9339 32.56C27.0539 32.96 27.1139 33.408 27.1139 33.904C27.1139 34.4 27.0539 34.848 26.9339 35.248C26.8219 35.648 26.6539 35.988 26.4299 36.268C26.2139 36.548 25.9499 36.764 25.6379 36.916C25.3259 37.068 24.9779 37.144 24.5939 37.144C23.7539 37.144 23.1499 36.76 22.7819 35.992H22.7339V39.4H21.7739V30.808ZM24.3299 36.28C24.8739 36.28 25.3019 36.112 25.6139 35.776C25.9259 35.432 26.0819 34.984 26.0819 34.432V33.376C26.0819 32.824 25.9259 32.38 25.6139 32.044C25.3019 31.7 24.8739 31.528 24.3299 31.528C24.1139 31.528 23.9059 31.56 23.7059 31.624C23.5139 31.68 23.3459 31.76 23.2019 31.864C23.0579 31.968 22.9419 32.096 22.8539 32.248C22.7739 32.392 22.7339 32.548 22.7339 32.716V35.02C22.7339 35.22 22.7739 35.4 22.8539 35.56C22.9419 35.712 23.0579 35.844 23.2019 35.956C23.3459 36.06 23.5139 36.14 23.7059 36.196C23.9059 36.252 24.1139 36.28 24.3299 36.28ZM31.0748 37.144C30.6588 37.144 30.2788 37.068 29.9348 36.916C29.5908 36.764 29.2948 36.548 29.0468 36.268C28.8068 35.98 28.6188 35.64 28.4828 35.248C28.3468 34.848 28.2788 34.4 28.2788 33.904C28.2788 33.416 28.3468 32.972 28.4828 32.572C28.6188 32.172 28.8068 31.832 29.0468 31.552C29.2948 31.264 29.5908 31.044 29.9348 30.892C30.2788 30.74 30.6588 30.664 31.0748 30.664C31.4908 30.664 31.8668 30.74 32.2028 30.892C32.5468 31.044 32.8428 31.264 33.0908 31.552C33.3388 31.832 33.5308 32.172 33.6668 32.572C33.8028 32.972 33.8708 33.416 33.8708 33.904C33.8708 34.4 33.8028 34.848 33.6668 35.248C33.5308 35.64 33.3388 35.98 33.0908 36.268C32.8428 36.548 32.5468 36.764 32.2028 36.916C31.8668 37.068 31.4908 37.144 31.0748 37.144ZM31.0748 36.292C31.5948 36.292 32.0188 36.132 32.3468 35.812C32.6748 35.492 32.8388 35.004 32.8388 34.348V33.46C32.8388 32.804 32.6748 32.316 32.3468 31.996C32.0188 31.676 31.5948 31.516 31.0748 31.516C30.5548 31.516 30.1308 31.676 29.8028 31.996C29.4748 32.316 29.3108 32.804 29.3108 33.46V34.348C29.3108 35.004 29.4748 35.492 29.8028 35.812C30.1308 36.132 30.5548 36.292 31.0748 36.292ZM35.4497 37V30.808H36.4097V31.948H36.4697C36.5817 31.652 36.7817 31.388 37.0697 31.156C37.3577 30.924 37.7537 30.808 38.2577 30.808H38.6297V31.768H38.0657C37.5457 31.768 37.1377 31.868 36.8417 32.068C36.5537 32.26 36.4097 32.504 36.4097 32.8V37H35.4497ZM41.2708 37C40.9348 37 40.6788 36.908 40.5028 36.724C40.3348 36.532 40.2508 36.284 40.2508 35.98V31.648H39.2308V30.808H39.8068C40.0148 30.808 40.1548 30.768 40.2268 30.688C40.3068 30.6 40.3468 30.452 40.3468 30.244V29.092H41.2108V30.808H42.5668V31.648H41.2108V36.16H42.4708V37H41.2708Z" fill="#888888"/>
</svg>
