<svg width="20" height="20" viewBox="0 0 20 20" fill="none" xmlns="http://www.w3.org/2000/svg">
<g id="Bold / Essentional, UI / Info Circle">
<path id="Vector" fill-rule="evenodd" clip-rule="evenodd" d="M18.3307 9.99935C18.3307 14.6017 14.5998 18.3327 9.9974 18.3327C5.39502 18.3327 1.66406 14.6017 1.66406 9.99935C1.66406 5.39698 5.39502 1.66602 9.9974 1.66602C14.5998 1.66602 18.3307 5.39698 18.3307 9.99935ZM9.9974 14.791C10.3426 14.791 10.6224 14.5112 10.6224 14.166V9.16602C10.6224 8.82084 10.3426 8.54102 9.9974 8.54102C9.65222 8.54102 9.3724 8.82084 9.3724 9.16602V14.166C9.3724 14.5112 9.65222 14.791 9.9974 14.791ZM9.9974 5.83268C10.4576 5.83268 10.8307 6.20578 10.8307 6.66602C10.8307 7.12625 10.4576 7.49935 9.9974 7.49935C9.53716 7.49935 9.16406 7.12625 9.16406 6.66602C9.16406 6.20578 9.53716 5.83268 9.9974 5.83268Z" fill="#072C50"/>
</g>
</svg>
